<mxfile host="app.diagrams.net" modified="2024-06-05T06:06:59.813Z" agent="Mozilla/5.0 (Windows NT 10.0; Win64; x64) AppleWebKit/537.36 (KHTML, like Gecko) Chrome/125.0.0.0 Safari/537.36" etag="2l7mk73yyIwDKuxkZvcv" version="24.4.13" type="github">
  <diagram name="第 1 页" id="d5NoUXwyiJWllpcq43qh">
    <mxGraphModel dx="2868" dy="3898" grid="1" gridSize="10" guides="1" tooltips="1" connect="1" arrows="1" fold="1" page="1" pageScale="1" pageWidth="827" pageHeight="1169" math="0" shadow="0">
      <root>
        <mxCell id="0" />
        <mxCell id="1" parent="0" />
        <mxCell id="xpNhdHFbhx5iCEHr1dCp-40" value="" style="strokeWidth=2;html=1;shape=mxgraph.flowchart.annotation_2;align=left;labelPosition=right;pointerEvents=1;direction=north;" vertex="1" parent="1">
          <mxGeometry x="460" y="-480" width="900" height="190" as="geometry" />
        </mxCell>
        <mxCell id="xpNhdHFbhx5iCEHr1dCp-10" value="" style="rounded=0;whiteSpace=wrap;html=1;" vertex="1" parent="1">
          <mxGeometry x="190" y="-770" width="1460" height="80" as="geometry" />
        </mxCell>
        <mxCell id="xpNhdHFbhx5iCEHr1dCp-3" value="" style="shape=image;verticalLabelPosition=bottom;labelBackgroundColor=default;verticalAlign=top;aspect=fixed;imageAspect=0;image=data:image/png,iVBORw0KGgoAAAANSUhEUgAAB4AAAAO5CAIAAAB3+q/nAAAgAElEQVR4Aezda4wd533n+ZPNTDaTWXgzyhrZeBDtYD1rGzsvZrJ+sbdgJrPZwLMbNBMCcmDAwA5bLziArYXg0KIpi016Hd0M2pYiBSJlMm1rRIpSKEUtyeKlL6RlkpIl0aJkmlar2S3eW7w2+/Q5okRSrd5UPVVP/ev2nLqdS9X5Nhqt59Tlqef51NMsn18/fk6t3mjyjQACCCCAAAIIIIAAAggggAACCCCAAAIIIIBA4QK1wmukQgQQQAABBBBAAAEEEEAAAQQQQAABBBBAAAEE6o0mATQTwBFAAAEEEEAAAQQQQAABBBBAAAEEEEAAAQTaIkAA3RZW/riBAAIIIIAAAggggAACCCCAAAIIIIAAAgggQABNAI0AAggggAACCCCAAAIIIIAAAggggAACCCDQFgEC6Law8pcNBBBAAAEEEEAAAQQQQAABBBBAAAEEEECgGgLHT57K3BECaAJoBBBAAAEEEEAAAQQQQAABBBBAAAEEEEAAgViBjZsevfuee7Nl0ATQsazZQDkLAQQQQAABBBBAAAEEEEAAAQQQQAABBBCoksDd99xLAE2OjAACCCCAAAIIIIAAAggggAACCCCAAAIIIFCAwOj4xFM7dugMfXR8YnR8Qr98ascOuVdvjywwA7qA+xEpy0YEEEAAAQQQQAABBBBAAAEEEEAAAQQQQKCMAk/t2LFi8FYZOutejI5PrBi8lQCaWBkBBBBAAAEEEEAAAQQQQAABBBBAAAEEEEAgo8Do+IT67MGnduzYuOnRjZseVXn08ZOnIoNpnVAHCsyAzngDAo68RAABBBBAAAEEEEAAAQQQQAABBBBAAAEE0gnsXVdb6y1tMTW8bGhvOK6c2bJ2eKrRrE8OD/gPHhieqe9dVwt/icPStacRvPrd99y7YvDWv1z19RWDt64YvDXDStAE0EHTnLeE0xFAAAEEEEAAAQQQQAABBBBAAAEEEEAAgYQCU8PLBoaHh0IhskiiowPoeqNpnztjXWhyeMgOo8VZBcSearWNjZserTeax0+eMqzLYehsXwTQY2tr8i8JBg6xa2bLcuu2W39GCAX/kVusq9TWjSU5eHJ4oFYLjwa7hmVbJgsYHJEtZCMCCCCAAAIIIIAAAggggAACCCCAAAII9I7A2FoVEk4MLbfmOE8Nr3Oywb3rRHgYCKCt3NILLe2kMRBfi3NTJ41333Pv3ffcq5Z43rjp0RWDt2qu4ydP6UnQo+MT6ki9N66QJYCenxia3/L5+Y2fK/J7y+fnJ4biWplze4YAWmXBQ2uX1WrJEmF7rnvCW2tVbg8pX78mhweWD49Zf/EIR95OGh4YSbEvw5VHxuJWm5P1LvJ0NiKAAAIIIIAAAggggAACCCCAAAIIIIBALoGZLcu9gG5srVeuN5p2RGlHgCruc7JmdYwbQ6u5z3IGtC+8dgLoR2O+fPmkPc1Zxcpqlee777n3L1d9XR7zl6u+riZE6wBarRMtjwmUUwfQVvpcbPQsa2tPBp02gFbps/prg11uNa85cqUVGQ/LRDh++rOdX08MRUyjdseTHs3x2fHU8LKIdFufKAvxlQRGSeaXVmMiupP6Dy+ZG8CJCCCAAAIIIIAAAggggAACCCCAAAIIlETACqMHloejyMAMaC9bs2ZM77XWWgh8RU6TDUfQLVnUEhxqNnS90VQTolN9AmG90UwfQBc+91kG0Fs+37Lb5gPsxDMAHvsyaq7xhLXeisyL7bVUTClqTKCs2mm3J/SHC+9PFu6uveu8i/qXHrfrCQTQdiNjlhIngDaPEPYigAACCCCAAAIIIIAAAggggAACCCDQOwLeBw9aqeDwljQB9NjacFrtxdPhPsoMOrw3cosKnTv6IYRtnP5sJ9GR/cy5MeEMaBVeR6XSTfVpkhF/OrDnPkdstycah9Nn66Mq3dWfRasmhvxLYYytFcu4WFXJANpOnyNDdTvX7qkAOueN43QEEEAAAQQQQAABBBBAAAEEEEAAAQQqLTDjJs4qIdQvnVnP9vIM7nzZyeEBZ06qWjPa+jlmrUAQ+oqZulpvNFUGnYT0qR071PIao+MTGzc9unHTo2oq9PGTp1JNgk4/A1pOWG5DOUnn0x4jot6YvwCo9VOWD0+pQuiW1azU2EqB5VRoFVjb6bO1KxBD24Mj8CcIu4bg9GcZLuvmBTbqlzp99tcsFtMggE47PDgeAQQQQAABBBBAAAEEEEAAAQQQQACB7gg4mbIV+rkxo8r9JobWTrizVENLcKiz1LrPaqnotRN1+6WVSfpXd8jWr6d27FgxeGtk0BxYl6Nl/QTQajFvf54rF0oOlFVCvXbCnhOtz5oZsz6uUE9bjlsiww6g3XTbnmptb4n+i4Tc5QTQegDZ2bdzdVmuqwVDYgeZzq/tJF3E1vWGM8rt3LxW039LcVtr/ddtp26GM7xsEzlz3DrAPjjQNqd5Xp0aUCfvFBBAAAEEEEAAAQQQQAABBBBAAAEEEOgXAXv9jcDnEDrZmUjb3ADaTvDU7qG9TbV2x9haPXHWDSe9idLZGZ/asUMv/VxvNEfHJ+TLp3bsiMymI8PotgTQ70+suX76lcD3+xNrFrb+ccsVPCJbmXOjzkNz1mM+3Q5b1QBwV3YOhNfuS+tI33IZMhfW6ey6MXvlDTvJdQJo2QDvcm4urPbqyuXBVjkQE9uLh9S8pT+sNgwsXybncXsL0ARO9yXXzvok4k8rTpbtxs06ZbYjdfGZhHbY3cIq2AvXkO0IIIAAAggggAACCCCAAAIIIIAAAggg0BmBu++59+577s12reID6IWtf7wY8/X+xJq2BtBeJqtT3FYF9y8JoQhYTSJ2UlpZi45Tg39AsOPU4EIcEXfFCoLTpq6BADrUWquBTp1xAXQ4hbe5dEvsOv1ZdqDxogbrYJfOmkI+sHbdgE6WLbSo2dliu1uzHUkbL+oeGdRmOwIIIIAAAggggAACCCCAAAIIIIAAAgh0RuDue+7duOnRbNcqPoC++trDMfnz4odvP9PWADqSQOXCYn2MyCjTSlT15F8vww1kpoGX1mxcNatXJtRRZW9NDF90G9ngqI0qgB4ecuqOCMGdbqp1x73L6c76OuhcwuqOL4DWmbJog7+Dbs3+MHrZlkmvfk9PrQfihtHiFN0q6/8poNNqcVHvADYigAACCCCAAAIIIIAAAggggAACCCCAQHcF1KcRZmtDxQNoK9+0l+uurR0Of06gIPPyU98yyoHEWbx0c+1lW/a2mNEsA1n3LCdIHhiesD/YMCqzVtuc2cEqgJ7RDbZzW+uIcGQsL6ePV+tv6ITd2R4KoAMHqNbqS1gv3QDaWwJ77zq10dprtdbXVLudKi63g+zQZGdxAKEzAggggAACCCCAAAIIIIAAAggggAACCFRNoMoBtI5i3Wx0Ysib8Bu4kakDaH+2q+cRB6q1XupmeKdELWRsp70RU5vts3yprqjHTnVrIheOvZyvg04N5gDat9fqiC+AtleUHtprr78xbCfjKon2LzAi82X3LviI5AGiX75j2I4AAggggAACCCCAAAIIIIAAAggggAACJRWobAAt01Iv+nRj09Dd8uWzXmQspjxbpwReqhzZH7mGak4WQMuG7V1nTyWWIawIoK02eF+BOcvxeXfEBGSLxUvkfQJuZ2Wwbh3gzYB2ZjoPe5m+chh2JkQrB5kvy7KrFNEqd5fsPmUEEEAAAQQQQAABBBBAAAEEEEAAAQQQKKVA8QH0+xNr4taAvvrawx1ZA9qOSsVqD14AbUXGwb124umLXzsfQIdbqBe+sJsnAmjf7Gm7L04c7YTFXuPV+tS+RTPEkh1OkK0jZp+AdVE7E9fNsNNqGUCrYH3ZgK5fRdLLl+lTnDTcXQPaXS/bm+Vt1+m9JHpGAAEEEEAAAQQQQAABBBBAAAEEEEAAgYoJFB9Az2/83PXTr4Qz6Ounf7aw9Y/bHUDb02xFzGrHtf541/pDgR196uzVTaW9icVu0upMefZyXpmuOkMh/Qxo1Uj7anb8Gp5YbW2RzYsLoCP+6BEbQDszuN1Orp2wJ3Trq4QCaP/xarUNMQM6mFC7cbP3WY7uFl/E7ATZqhVeeB3RkYr9ptEdBBBAAAEEEEAAAQQQQAABBBBAAIGyC1yamz81M3Xs2MzU9ImSfh87NnNqZurS3HzH7kVbAuirr3xvcXHx6ivfU3Hz+z9Zt7i4+MGhR1qmz/MbP5en53EzasMBtHUVe4avu9iFL371MtxwNOybgGzHpqoeN9eN/q+TtNorTgQ+OdA+PbSShn2kl886J0ZXHt7qnUiwiwACCCCAAAIIIIAAAggggAACCCCAAAIFCFyamz92bObcc7fXN3524eGbS/pd3/jZc8/dfuzYTMcy6OID6IXH/2jxxrXrl96RcfP1s68vLi4ubP+/5cbIcp4AOu7c6AA6HCWHtyQNoPU84oih7MXZ4frVKhnhBNnd4gbT2WZARzQmjojtCCCAAAIIIIAAAggggAACCCCAAAIIIGAQODUzde6520uaOweafe6520/NTBk6W+Cu4gPoD99+ZnFxsbn7/5X5cvO5/7i4uHjt2E65MbJcYN/KXpWVXIuVrMveHdqPAAIIIIAAAggggAACCCCAAAIIIIBAeQWOHZsp9dxnmUHXN37W6k7EfNnip7QWHEA3n19hBc0zo+Fw+cNf7bCC6Z1fCe+SWzrTba6CAAIIIIAAAggggAACCCCAAAIIIIAAAggkF5iaPiEz3LKXp6ZPJO97niMLDqCvzx5aXFxsPLVMZsqqvPCf/+3i9Q+uX/hVeJfckqcznIsAAggggAACCCCAAAIIIIAAAggggAACCLRDgAA6m2qRAfT7L33L+rDBnz8qA2VZvvrqg9aHE/7sgfqW/0l9y72qnK0bnIUAAggggAACCCCAAAIIIIAAAggggAACCLRPgAA6m22uAHph6x9fP/3KYujr+ulXFrb+cSBcvja9J3Tg4o350wuP/3t5ZLZucBYCCCCAAAIIIIAAAggggAACCCCAAAIIINA+AQLobLa5Auirrz0czpTVlvcn1shY+f2X/r+4Iz88+nfyyGzd4CwEEEAAAQQQQAABBBBAAAEEEEAAAQQQQKB9AgTQ2WzbFUBffe1hGStfPXh/XAB97Z3n5ZHZusFZCCCAAAIIIIAAAggggAACCCCAAAIIIIBA+wSyBdBX/vrmK399cw9+YmE5PoTQMAOaALp9Y52aEeiKwNn9r85sH5ne+gzfCCQXmNk+cnb/q10ZsVwUAQQQQAABBBBAAAEEEEAAgWIFMgTQd3zhE//kH//ab/z6r93xhU/0WgZNAN0sdnxQGwII5BE4u//VUzvHzv/s1QuHDvGNQHKB8z+zRg4ZdJ7fPs5FAAEEEEAAAQQQQAABBBDoEYG0AfRff+mmmvh66D/+i0QZ9F/9zrI/+J1jD+tJ0787VPutv/0r/TJU+KvfWWY+wKvKdy4BNAE0Agj0kMDM9hHS5+SpK0dKgfM/s+bO98j/VqAZCCCAAAIIIIAAAggggAACCGQWSBtA/6tP/WORP9f+4L//rxub/03rDLpVAH1sxW/JamPLf/q75muVI4B+f2JN3MrOgSU4mi/+p9gjX/kea0BnHveciEBnBKa3PiMjRcoIpBKY3vpMZwYqV0EAAQQQQAABBBBAAAEEEECgfQJpA+jf+PVfk+nwP/3NX29u/T/MobC1t1UAbdfwz//2D2pDq3wzmp2aV/12rVX0rI4sRwA9v/FzV197+PrpV+T3h28/8/7EGpkpq/L7P1l3/fi+wPcH/s8qnN/4ufYNEWpGAIHMAgTQqfJWDg4IEEBn/tXjRAQQQAABBBBAAAEEEEAAgd4RSBtA/7Pf+i9kAP3ffOI3mk/+X05MHF4Ww1pJo+WXXovDCqBjvyoWQIeD5pxbemdI0RIEENACBNCBRJWXqQQIoPWvEgUEEEAAAQQQQAABBBBAAIHyCqQNoP/83/jWylj+v/xec/sXYgNoHUknmgEdNfdZ15CsUJoZ0Dnj5vDp5R2CtByBCgsQQKfKWzk4IEAAXeF/HOgaAggggAACCCCAAAIIINA/AmkD6J8P/d4n/sk/UvOUP/Fb/+jQ9/5d87E/LCSAbrEMtO8zDGOjagLoQj5+bWKoVhsYnon/NbAOGNorrzUxVFs31pBbUpfH1gYuGt+Mvetqayfs5s1sWR6eNZ+3JfVGc2p4WYxA5BX9bXDalk7A6/7edf7q9KtlWyZFnXvX1ZYPT3nmE0M1/wENC7DVl201OTwQdZwQmNmyPKuqd7NE4xtNr79eF/QBFrJ/gOldWQpTw8vcAdOsN/x30Hiz/CdmuTQBdCBR7eeXXxoY+NLAQCoBAuj4x1CW30dqQwABBBBAAAEEEEAAAQQQ6IpA2gD6yZWf1MtA/9Pf/PWX7//fFx75HwoJoCMrGf9TlYvpZTpio2d1OgF0Ue/JwxGzqNmLPnVQmDuAnhweUHFqgvh1bK1OJ2e2LA+nrumj0tiL+nJZEchqjXAD9K7UhbG1NSsn9XhlDc6FrEg09GU1LCLnlTcl8obKA/StbIaqijxXts1YjmiYdbwxgLbbkPtPGlZHQl8DwxNuui26bLdHHOsMqvYH0OOvfvGWV0cPqVDyrVWffmmbU46NKbfdPvbd8di9hw5Nf/eWuAPsXU+8+sVP7/yM//uLG6YPieuObhj7zO1vyS05ytPfvaVlpwxttnrqdXn81S+GGxbY6CPVUF3pu766KhBAd+V/5XBRBBBAAAEEEEAAAQQQQACBrgskD6B/uvq//T//x98UEY1T/NL//ImfD/2eMT4On+TfEjW7WU2Ijv5MwvjlOAigjVFgxFTT0IRQ/63xvXLn23rRoU6Nrcm26WNf0Z6xtW6ObIxfrYhWfq0dbsMMaKsvW6wZ0MORnQq2QbZHlV2ojL/eQkBMxNZJt1twDlMpaniy87oxcVMi2mw1Ut41kcaKyNjOu91bI+5Xoq5F5b9hLSc9D+8Ibck8J9qfIzs99W+UgbgrbJoIn/QXrcUM6NENY1/c8OoqK4Oe/u4tvlxYhcLbbvc2rnriwqFDb9kHB5JN+TI+zFXJbCiftdswbdXsT6UDIfVnPr0zkFMnS6WD/frMp3faHUnWZjsWNwfQoxvGfBWGOmi1szt9l328cOgQAXSifzfS/jvD8QgggAACCCCAAAIIIIAAAj0vkCSAPv/93/9//tf/KpQG+Tbc/if/7NKDvx8ZQyfYaPz4QXmdqKha1t/DAfSWz4cXbi5sy5bPF/DG3lqHIRwie2GccwkrVXQSyYhY075bqYPCvevsycX2TNu1EbNW7VrdGFTEowX0Wv6KOoGpheAmvyrYdS8tD7bK4VUvkuaS/pZbkaj1peeALx8e8890Htqrb4R7sH2G+2PZlr3DW9SiKKG/Clh9WS5XFNEzmlsE0Nb9Na5Q4e9FTN9j7pf3Z4yGPd+5RWov8vHgXYi5rnODXCHnv+vG7CU4hvY2pyZnrA661xXtUdSRmb7hWtG7zAG0CovfWnXLS6tU+qym9z7x0mdCU6GdmNXa5UXSTpgb2ug7xp0y7ATNoXzWDaDdtPSJlz7jTcp2N4r50clyZ31izAzo8YiJ2LrZTtLtNjUqgPZmi8uM3jrRPUu2s0t91wiqQACd6F+MFL/g0b90XAUBBBBAAAEEEEAAAQQQQKDXBJIE0P/+cxETnwOxTq1W+w//+rcXHv7vZBwsyr87VKstW/HP1RZ7YY3fHo+fyLzw8M3WDOg//V1RQ4vFN9SRPRxATwwVFjdv/FywqomhIgZWVMbnpZnqrb5KP+1A1gqsdTIro8zUoYAXZMcuQKHr1OGgExOHB6K1xU0VE7J4DYiuzt26dsKeEey+NPw3ZQOsduqJz7rg5eBqorrWbtb1qs0iILZnkcubaN8UN/91JvzaIbu7loi8a+JE9xSpJ5Y90fciWSF+HrTbDLee4GBzt+cOpPyTnUVPrT8hOMu5+MeAQ+3+HUL9sSH855nWLTQG0FZwPPbdcTGpWUXJUfmvHUDL2c1eAiuT1vglONxzo5JfObV52+07V22ISofdINt/uUDG6ryUobCOlVXBN1vZybXdtgVibjdKDgbQjpu6lqfnZPROB+W6H279Hel7lM/Pn3+eGdDy3xPKCCCAAAIIIIAAAggggAACfSWQJIA2xGyBXc3//G9DkbEVPddqoUWc/+p37KVsY2PoqgXQ9UZzfmJovvB50Fs+P19M+mxHaaHkMRA72kHesFp2WWRz2eM575dNh49WG9ZFfnqeNbHaOUwnpzJMdLuQIfy1I85AZ722iURYb4w5OMecaH0Vq7BuKPDhitYWLxW1EnZ1vD7L6oKlIcJ3rWTJ6OhcxL7OAXpX4Pe55syIt6oVZ7VOXbWSVQgNKrVXzDh2K9RjwJc4252KmJvvnuU72Lcxsl/OGtDD+nMXnVhZtEdPNtcT4VXiX3AAbaWiX7TWaxYzoG95dVRMZ5ZZrZWu2rlwYHZwKO50w9ZAmKtDWzfVPfTES2qhZ98MaL1XnG6nyTLPjQ6dZUusFNtaMCT47WTEwe0xbXYbo+PsL97+krWAtQjoreWq3ZdOTq3OsrNmx6qzfQ/1+ufPP1+r1e5YuVLNgH5o/frf/9SnVCQd9Amdy4cQ+v4xif9l5zAEEEAAAQQQQAABBBBAAIFeFmgZQF/565tDqVTshvef+lMZQLee6WzH0L6Fnp1g2rqEb7txurS+aO/OgO7lQSDa5s9zfeGmFe2NrVUrGIipuE4i4Ms6RYW+QDB+u8htVQBthcgzW5ary1nBnwp8A5GiChOD4zFHAB2sSr+WderZx3qvrxDGSYagtaMTW5WKiixYHz85MTas1i2xL+00z1kDeshdNVsnyNrQv8i1uPWyAfb85dRrqsicKOMMaL0ChvKcmZpMxigvbZXt/NqdJ2713V43PNyjyADa+zNDdDjeukmGGdBvfXfDW/YHBuo5vPZyyXacOjrufCqgFbB6a26MffcJ91P4nnjJnbbceu3mVU/osFsknm4ALUJPuwG+mc7WFvdC4txgghzc1SKAjpqJLLpprTFi5ddeAO1+rGLg8wathbNfWuV8KuP0d2+3P87RPcueDL6z830XnrVa7aH16y8cOnTHypW1Wu33P/Wp3//Up/TGh9avr9VqQTpx+oVDhwig458arX/7OBcBBBBAAAEEEEAAAQQQQKBHBFoG0AsP3/yH//K/9AVsMS/+5F9/MhBA61y4YwUC6NzvyfXCGlZuGDnl05kf6l+ywD8oZFwbDAQjWqgj0Vpt2dDaZdYM6JgA2v210Xm3iE3VhXQsm+C6bm1Ok7y0MXCuqNPqtdM2Z+kGfyUiSQ9U0vKlusredUNr11krL/tyW5n724mq3zv0St04raSmqFtH+YNXeYA37VfPWbbui76Vk8MDbozr73LEDfUdIONsgSACX7cGX7IfOfbcI0U9vmsFtvsqDCFZG7yr+Mezk3pvWe6KtSGAtuJFL4DWs3TVpxG6s3r19GR37rA6JWbK8KELzmRh93Q3zXTD7iei1tawA+4vbph2wu7bXw18HKKOhpMn0XrOsj5XF6JmRsd0x42Sg0tw6Phb5dEqi9eJvHtWt/ruXvfCoUM6a9YZtNxCAG365Q38LvMSAQQQQAABBBBAAAEEEECgzAJJAuiFh29uPv5H7z/1py2/m4//u45lzZEXIoBOmdBFjl1vCm1kbSKp9E6XUWbkWQk3qkBZz371hYZeeKrDWXs2q++g9AtA6xDEH0H6a9U5rNNlQwqcYwZ0zfrQP2dtEy/1VraR7Laqd2QAOXxTVLN1C+UBohyOjGP/GhG4ou+lyVPqaltTyJs92ZdJtz0DesK946LL9hR7d5K4phYHmNrm67VbubPRMAPaH0DboaodAduzfd0UVQfQXqyp1ugIRsyqNmfCrzVROvgxhv6Qd/zVVbeMfeaWse96C2XYE7GD06JjPkJQR8DZC3INa1/bfHGz3U3fFneCtpvIq46/tOp2d5EQl84Tc4J+d65x5/ou42aVQasJ0aolBNCBXxZeIoAAAggggAACCCCAAAIIVFUgYQAdmfb24EYCaFMWlmwQ2+Hv8mUDVkSok0pZrY7n5EYR1XmptDygVdmbrLpsy+REzAxoN/a1FolWc1dVYC0qj01jxTExLUwyA9o1DF3XqTN7Tuquqe3WoEN260bIGdB2R2Qe6jvSOtpN6p2b4k0wD05hFndNhs6y7Cwe7c0UdgVae/qOnJyZ0uyyrDc29ALfUTVbwyNjG9IE0MNi8fF1W6z1Oty0Ouu4ShJA23GkWLNYrrmsA+htt7tLYdgBdGAyspdce2GrvTSHG9e6s61V9OllzV62q6LklgG0s3qGm/ZGB9BOoCwbryY+i8vlDaBFVfa8b53Itwig2913N+a2ZAIBtNx14dAhAmjfPxHynwLKCCCAAAIIIIAAAggggAAC1RIggM72FriW7bRePsuNKUXM54bC7sxQlQwWH0C761rYH5RnRX5xAbSOJlVy6ubRcjqtUxa9aMtvrOHSkam9bnmLgrfqRTDx9LMHAmg9idjXWZEv29vdW6z/tKAPcFNvdboXQNt/jdAhrK/yFh3RQ11fVI+iqb3r7D9vyM9LtGuTnQpcK6iR9Or2wuXeJyhajZHLm7hdcydre8PGbrb/pXuw7lqSQuIA2k5y1coVcpEKvQa0nTjbazTbU5utI53I1QqaRR7tm01sfdKgWk9ZB9NWgmzHx07WbNXpXbFVAK0WdxazjwOhqvVS5856EWf9gYeHDukFrw1LV4sVn60+ql7bC0NvcJfA1t2x91rt99YwCTfJNWl/38W0axVAf2lg4KH16yO/vzRg/R6EWyu3sAZ0kt8yjkEAAQQQQAABBBBAAAEEEOhxAQLobDeoSgG0k6XqfDAs4mSITsrpT0KdoFBHmSmSwdCF1KcO2gsWy0TVmeErg934y2VKKt38Mbq4pLQAACAASURBVCLJ9m3yIsjiZ0DbGhH90gGuWrA4aVOt+cLRK5n4emRPK5ZzhK1mqADa+vODNE99Z1VTDeOqrv7C4Vf1N8975U7rTt0MOcycADqQbodfehOuPcNsDUgaQIejZxVl6onPYo6zG1Dak5G97NiZjOyGrcG5yfZ2uTSHyJq9zwz0NroBsZ5ZrCpsPQNaR8x6jZELVu7sLgliDq8PWctYqwDabcCn3TzaaoDeqPL3t1b59npRtX/J6Y713b01Dr767EFvEIdKckWOwLnqJQG0/P2ljAACCCCAAAIIIIAAAgggUFKBY8dm6hs/24OLaWRoUn3jZ63uhNOkNmypUgCdK9HrDDdXySQQEWf762l5AGMjr4A5gI7MHNmIgBYggPb/k5X395HaEEAAAQQQQAABBBBAAAEEuiJwambq3HO3Z0h7e/CUc8/dfmpmqjOMBNAEAQgg0FqAAFpnqRQyCBBAd+aJzlUQQAABBBBAAAEEEEAAAQTaKnBpbv7YsZlzz91e6nnQ9Y2fPffc7ceOzVyam28rl66cALp19KaxKCDQtwIE0BlSV07RAgTQfftPBx1HAAEEEEAAAQQQQAABBComcGlu/tTM1LFjM1PTJ0r6fezYzKmZqY6lz/VGkwCaABoBBFoLEEDrLJVCBgEC6Ir97y26gwACCCCAAAIIIIAAAggggEByAQLo1tFbck2ORKCqAjPbR87/7NUMySOnIHD+Z6/ObB+p6q8G/UIAAQQQQAABBBBAAAEEEEAAAbMAATQBNAIItBY4u//VUzvHyKBJk9MKnP+ZNXLO7n/V/ChiLwIIIIAAAggggAACCCCAAAIIVFWAALp19FbVe0+/EEglcHa/NY91euszfCOQXGBm+wjpc6pfNA5GAAEEEEAAAQQQQAABBBBAoGICBNAE0AgggAACCCCAAAIIIIAAAggggAACCCCAAAJtEaiV9OMaaTYCCCCAAAIIIIAAAggggAACCCCAAAIIIIBAjwvUlvhCAAEEEEAAAQQQQAABBBBAAAEEEEAAAQQQQKANAizB0ZaJ5RVbqIXuIIAAAggggAACCCCAAAIIIIAAAggggAACGQQIoAmgEUAAAQQQQAABBBBAAAEEEEAAAQQQQAABBNoiQADdFtYMfwrgFAQQQAABBBBAAAEEEEAAAQQQQAABBBBAoGICBNAE0AgggAACCCCAAAIIIIAAAggggAACCCCAAAJtESCAbgtrxf5MQXcQQAABBBBAAAEEEEAAAQQQQAABBBBAAIEMAgTQBNAIIIAAAggggAACCCCAAAIIIIAAAggggAACbREggG4La4Y/BXAKAggggAACCCCAAAIIIIAAAggggAACCCBQMQECaAJoBBBAAAEEEEAAAQQQQAABBBBAAAEEEEAAgbYIVCSAPnv2bMX+MmDoToU7S9cM9z3nLmxzAlbs9AqPh3bcqRJxlaip7bhT1IkAAggggAACCCCAAAIIINCDAgUE0LX0X4VD9NVb7gp3lq4V/quhK8RWU6wYvFWXO1b4yldvWzF46+Nbt3XsiuYLVXg8mDuebW+JuErU1Gz3grMQQAABBBBAAAEEEEAAAQRKJ1BMAJ2q27VaARcNXLGv3nJXuLN0LTCw1csVg7cGviMPM29MZRu4nHpprj/h3nbUnKprqp0yg1719TsSNj7zYSp9Vn3vkQw6A1rm7lfgxBJxlaipFRgYdAEBBBBAAAEEEEAAAQQQQCCJQAFZcNpAOe3xSbrRV2+5M3d2aN16Hf8NrVufBDbhMUXVnLlrCdvZxcPSdk3fqZaFhJ1K1QCZz6r6w1sSXjdwWLie8JbAKS1fpuqarm3F4K1PP/P3Khr+yldv09sLL6z6+h2Pb90m72Phl8hQYTa0DBfq5CkaufCL5uHS/x+hwlsVWWHCpmorcyHyEmxEAAEEEEAAAQQQQAABBBBot8Do+IR+vyavpTb+5aqvP7Vjh9ze42UC6LYsrd3Wu54wXwi0QY9aWQgck+2lrFCXs1WVrWvZrtXhs9J2TUu2LCTsSKoG5A+F41oVrjm8Je7cuO2puqYrefqZv18xeKua/jy0bn2bMmgdcOsMOtuFWg4DdYDuXctCNrSW1Xb3ADWW8o+ocC/ycPVsAK27KcXiyvpgCggggAACCCCAAAIIIIAAAh0QWDF468ZNj46OT4yOT8jLqS0bNz36l6u+LrcHyuYYIXCw4WXatCGuqmICaP0GO2EhrjWZt+dJBzJftFsnZuisGi7y//uv47CcvSi25gxdy9n+jp3e9a6laoAOoQz/YGWj0zXr08OX0LsSFlJ1Tdf5la/eturrd+j2tCODlitvfOWrtz2+dVu29LneaIaVIrfo3rUsZENrWW13D9AmhTcjD5d+LBbeqsgKEzZVj3w1unRVcdv1ARQQQAABBBBAAAEEEEAAAQQ6ILBi8NZA9CwvquZHyy2Bsnxzp3atGLx167Yntm57IrwrcK5+qd9lJz9FnxsoFBNAByqVL2u12ov+L5bgkD4ZygnzBV2zWh9Dp8/fWHOn2qUy6DxrcQRq1lfMXHParukr1htNuQzIV7562w82b5F7M5d/efRXBw6+/NJP96vv1w/9PFtV2bomf9XD5VQtSdUA/S9L+KJ6S6qr64N1zXKLrlMV9K6EhVRdU3V+5au36ZGvm1RsBi3TZ9WvPItNt5RpeUAAMwNaoIbefKnvZrHNy8NFAF3svaA2BBBAAAEEEEAAAQQQQKAfBLoeQMucQZaz4fd5AD0xVFs31hCrcOxd54YFcvvMluXO5oHhGRfa2zi0161hcnggUKGsvKBy2igkMEp0AK2nVbo9cnuRuJ2BmmU9hl3ysEA5Vdf0ZFIZPavr6p+B+tO+1LlzoKBj6Jd+uj9hnam6puvUHYks6MOSFFI1QKd4kddVG5NcNHyMrlnvCl9C70pYSNW1eqMp0+fAJYrKoMPpsx6ugSsmfNnSXB3wt8M//NvhHyapMy1ayzrDd7blKe04oE3NyMPlPlMKeNomEUvY1PDvXeSWJFfkGAQQQAABBBBAAAEEEEAAgV4TCL87TjUDOpxChLek6nIBb4nNM5oTzoC+K+YrYWcSvuWWtU0NL7NzARE0W/Hxsi2TVg5r7V0+PGVHsWNra7W1ar2ViaFaTcXN1gFq4+TwgHPkzJblzunyQuFyTF/vCh8ZuSVtZ/UQ+caaO+V3gQG0rFYF3PqikV2I25iqaysGb/3KV2+TSZ9a5UBXfu9994d/3/TeloWXfrr/jcNv6sPennxHToXWZX2AuZCqa7oqxRj3Ux+WpJCqAfr2xV06M6yhQr0rSXfkMam6JgeMvmKgkGeqsgq4AxXmTJ+T/KqqK3Y3gI4bFX+34+nIb3kTiyq3qQ2pxphOnM2FuC535gEhoZKUA62NvKF/t+PpwGG8RAABBBBAAAEEEEAAAQQQ6IqAfKOnGpA8gFYJQ7jZcdvDR4a39EoAXW80w++6w82N25IqHfDyZf+EZS9TtnLniSEnjNYFN5i2c+extU4SbR9pp9h714n50S1mE3eys4HxUZkZ0Kpf+ue9990fOTyyZX8HDr4cWdsbh98MzIaOPCy8Me0QVTXo3kUWwlcxbCm8AYZrJdkV2SO1Mcnp8phUXWsZQGcbMLo94fpzVqhqbimjDmhTAG24WeFdmkIWwnml3FtgOfyI1ZXnaUOqMWbOnfVe3bBwoQMPCAmVpBxuZB7PcG1sQQABBBBAAAEEEEAAAQQQKFBAvtFT1SYPoGUzWsYR8mBDuYcC6EAGbWh0eFeqdMA73RdAW0tqeItpNJpja2tWoLx3nZ4KbZ3onuKl1c4M6NBqHq0WspARg9ekVmfVG820nQ2s1KwD6MwrNevWBmrW2zPXnKprMvl68K8f0lcPF/T61+FdkVvennwncrva+NYvjsgM2nCk3JWqa/pE2cdwWR+WpFB4A5JMyzU0LNyd8BbD6XJX2q6FM2J9aR0Wq3BNXiVJOVyzrjDJ6YZjVAtbHtCmANpwXb2rZQtlXqnPSlXQt8lcMNSZuQ2pxpiOmM0FQzs78DSU/1skSTmytZk9I2tjIwIIIIAAAggggAACCCCAQFEC8o2eqjNDAC3ffedsWG8F0Ppdd9pepUoHvMrdNNneki6Arjf0GtDWshtiQnSLuc/e1d1J33JLknKGzqoRI3NYlRGHh2OSBshjiq05Vdfkr4E55nv6mb+XbW5Znjo2bThGL76hYmjDkXJXqq7pE2Ufw2V9WJJC4Q1QF808hFp2J3nNGboWTorVii5actsT27c9sV2/TFgIdMo8LBPWqQ5TNRtOUQd0N4A2NE/tyhbr62qTDwl9SriQrQ0Zxpi+tI6h9ZaEBfVHyoQH68MSNjUwVuNe6mrjCtk842pjOwIIIIAAAggggAACCCCAgBLokQ8hPPLLozknIKru9FwAnW2cJXzLHaw8VwAtgua96+z1oK0Vou0vsa50ghnNwVa1OiVbZ+PyhaF169M2IHB8gTWn6lrgugWGfYEOypeB9LmqH0KouxxAli/VMZkzQVmVKuuLpq051bDRVwlk0HL8qPQ5QwYtOyUr1BfNXIgkkrWpA7oYQMvGtKmcebDlb0+2MaaumzmAztbshE2VmEnK2RrDWQgggAACCCCAAAIIIIAAAtkEuhtAh1OI8JZU/SKA1mFxxAxoa0WO8BIc7ocTutAzW5ZblThLdjTsU5wPLRQhdatY2a2t9SkJ84VwhWrFDDViVO6stuTPoIuqOXPXwp3ttS3ZuqZuVtzPVH0svAHq6jK6StWecKcCpyevOVvX5KcFBsLi/AG0rlBWJcuBzrZ8GeaK3EIA3VIy2wGZx1i90SSAzmbOWQgggAACCCCAAAIIIIBAPwusGLx146ZHR8cnRscnpIPasnHTo+bYJDI00BtlheGyOiz59vCR4S0E0DqAFgmyFRa7nz3omyXd9JZ+dgPlqeFl9mcPzmxZbq3FYRE7q0K3jpLD9yPJljxRSLj+ojLoQmoutmvhJnVxS7au6X8aIgupupOtAS0vYf73ruXp+oBwPeEt+uBAIU/XvvLV23RYLKvNMP1Znl54OXIAhDcSQBcuryrMM8YIoNt0U6gWAQQQQAABBBBAAAEEEKiwwFM7duh3/bKbemMgmJbH9GCZANoLoO0PGHRCZCtodmc6j62t2StsqFTa90GFMmvWM6DDIXWxNz5PFBLZkt7JoAvvWmR/u7IxW9f0PyuRhVQdydaAwCXCoXB4S+CUhC/D9YS3xFVVSNfiKu+17SpiNv9M0ubSoelfgSS9K/yYPFw9G0BrUkOhcEkqRAABBBBAAAEEEEAAAQQQ6EMBAmgRQKvVM1Ra4KbP9pjQnzfoT5/1LGlnNrS7BrTv3OLnQeeJQuKG+NC69T/YvCVub57tqWpuR9fyNL7Ac7N1zRAMJc9nVS+yNSAgENmewDHZXuapuZCuZWu2Xok/sv1JNqa9rjl6rvAMaDXg0w77tLxxx3d3jMW1KnJ7iZoa2X42IoAAAggggAACCCCAAAIIVE+gmABaz/BKWCjcsa/ecle4s3St8F8NXSG2mqLYQpKU2XBMsY1JXlvpxoM2TN7HAo8sEVeJmlrgDaIqBBBAAAEEEEAAAQQQQACBXhYoIIDuhe711VvuCneWrrXvtwnbNtnqYDRboU2tallthcdDy75nOKBEXCVqaoYbwSkIIIAAAggggAACCCCAAAJlFCCALn6JjHaPgwrnC3StfYMH2/bZlrHmCo+HdtyOEnGVqKntuFPUiQACCCCAAAIIIIAAAggg0IMCFQmge1CWJiGAAAIIIIAAAggggAACCCCAAAIIIIAAAn0uQABdvhnQfT5k6T4CCCCAAAIIIIAAAggggAACCCCAAAIIlEWAAJoAGgEEEEAAAQQQQAABBBBAAAEEEEAAAQQQQKAtAgTQbWEty98faCcCCCCAAAIIIIAAAggggAACCCCAAAIIINA+AQJoAmgEEEAAAQQQQAABBBBAAAEEEEAAAQQQQACBtggQQLeFtX1/MaBmBBBAAAEEEEAAAQQQQAABBBBAAAEEEECgLAIE0ATQCCCAAAIIIIAAAggggAACCCCAAAIIIIAAAm0RIIBuC2tZ/v5AOxFAAAEEEEAAAQQQQAABBBBAAAEEEEAAgfYJ1KamT/CNAAIIIIAAAggggAACCCCAAAIIIIAAAggggEDhAsyAZgZ01wSmpk/c4AsBBBBAAAEEEEAAAQQQQAABBBBAQAhMTZ9o31zU3qx5avrEmT776qsuE0B3LX7tzV/4TraKAFo8XCgigAACCCCAAAIIIIAAAggggAAClgABdD9k0QTQZLIIdEKAAJrnKgIIIIAAAggggAACCCCAAAIIIBAQIIAmgK6YADOgO5G0dnJacYmuRQAdeMDwEgEEEEAAAQQQQAABBBBAAAEEECCArlj8GtkdZkCTySLQCQECaJ6pCCCAAAIIIIAAAggggAACCCCAQECAADoysa3YRgLoToSPJZqoS1PbJEAAHXjA8BIBBBBAAAEEEEAAAQQQQAABBBAggK5Y1hzZHQJoAmgEOiFAAM0zFQEEEEAAAQQQQAABBBBAAAEEEAgIEEBHJrYV20gA3YnwsU2Taqm2RAIE0IEHDC8RQAABBBBAAAEEEEAAAQQQQAABAuiKZc2R3SGAJoBGoBMCBNA8UxFAAAEEEEAAAQQQQAABBBBAAIGAAAF0ZGJbsY0E0J0IH0s0UZemtkmAADrwgOElAggggAACCCCAAAIIIIAAAgggQABdsaw5sjsE0ATQCHRCgACaZyoCCCCAAAIIIIAAAggggAACCCAQECCAjkxsK7axjQH04W2rBwc3jLlggZfu5k7+t9amya1Ui0BLAQLowAOGlwgggAACCCCAAAIIIIAAAggggAABdBuy0dENg4ODgxtGW1U9+r3BwcHV2w63Oi73/nQBtBUi260as/th9SXwZXXNbrx/++pto1tXy02rtx4+7N8i97rlmNoGB1dvdWgOb12tyy0xCKA7MdW3ZRTbnwcQQPNMRQABBBBAAAEEEEAAAQQQQAABBAIC7Qqgp59ZMzi45ukZO4aaeXpNZDkUlB18cFCdZZ3+4P5G6IAitqRLY1vmnVEHqHC2ZWbamwG0Exmv3nbYCqBVPm5H6t+zEnV7r8jWfVOe7Rf2YVbX7FNVbWqKdLi/9hanNvtIL/jWs6qd9iQI9NWtIIBuy69NfwbKaXtNAB14wPASAQQQQAABBBBAAAEEEEAAAQQQ6EQAPX3wgTXWbNcHDjannrZKax46OBUZJdux9eBDB6cOPmgf90z0YZHnJt7YhgDaDl7dCb1x/002HVgFvlGpdo5tabtsZb6rN4xutQNo66f+2rDNmtFsRcZuLqx32YXVq1dbe+1J1Pb8ZXXYhrGo47832jKAtg/wpkInMTAF0Jfm5k+fee/YzMmp6RN8I5BK4NjMydNn3rs0N29IpQmgeaYigAACCCCAAAIIIIAAAggggAACAYF2BND7HxKh5EMPPiBe6eIDB61p0S2/3DnURc7pTJvGJgk91TEqLdVTd8+461TILV5t3gIXYkKxt7vIUsYuG2dA2yH1tsPODGgngl+9dXTb6sENW91FPHw5tRVOq1nhGsoYQKs6UyfysQH0pbn5YzMn5+cXFhcXl/hCIKXA4uLi/PzCsZmThgyaADrwgOElAggggAACCCCAAAIIIIAAAggg0I4Aut5wZzo7S3DY8bFeXsM0VfmglVavacvEZz1tMWMamyQQVpmyvQaFfbhhMWi1y0ngWy7WkeTihmPSdNlpmNUkO4De8D25rPNq+2XMDGhvjQ536Q43gLYjeCekVn0WSXSLJTisfh3etjpxEB0bQJ8+8978/ELK1JHDEfAJzM8vnD7znv7XJFAggOaZigACCCCAAAIIIIAAAggggAACCAQE2hNAO7ObffOX+yGAPqPSWycrVatPRIbL9q4NG9SHEKqVLtr5UYRpAmg77VUfAOjNgPbCbdVy9fmKqoNuiG59mKI9o3n1tsO2g8yj3bnutoYvidaf1mjXZtPZOb43bdw93NviNSeiFBtAH5s5ydxnX5jKi/QCi4uLx2ZOBnJn/ZIAOvCA4SUCCCCAAAIIIIAAAggggAACCCDQlgDazppV5Biz1Maap6ebdbXisxtN2h8/eNBel6NdHz+oYqJ0aWxEwmna5GSyVvZqh7CR83btgHX11sNuXGvntpFHmi6VYl+6LtuBr54BvU2uAb1626izBrQ6KLgEhzfz2V4GevB7owrENwNa9NRdgsPNmMVgsIrfU6tJi1oTdDo2gJ6aPpE+b+QMBIIChn80CaB5piKAAAIIIIAAAggggAACCCCAAAIBAUOWomf1pSx4izuveejBNYN21txo1uNmQLsfPGhfRZ1b4gDayZ2dIFVErTo5VVmrvUcH0M6sY2/tDn10MYVMAfToqLX4xmo7gLaaa0XJXgDtNDmQGPte2n0UAfQZe00PfYi18oYbQFvd9MruDGh1buQUcoMLAXQwMOV1sQKGfzQJoAMPGF4igAACCCCAAAIIIIAAAggggAAChiwlZe7sfU7g/ocG7eh5MNESHL4Auml/gKGbWZtWi/Yul7ad6dJYQ9IZt8vOT1XOGlw1wpnp6wTTIoB281xnT1zVGben67LbyNXW4s8bRkV3fAF0oC1uahzY7AbQanGS4McteqGzmjE9aB8QrspqUvDcwIX0SwLoYuNWagsKGP7RJIDmmYoAAggggAACCCCAAAIIIIAAAggEBAxZStpgVx8/9fQz++1Yec3TM1P2mhp61qtX0J806A+g1fEPHGzWGzNPr2nLVOh0aazONRMWnLh2wzZrqQrrS0zgdSc/j22Tn+vnmLjLTYjjE16y9WHpumw3c8OY/Z/V2w5bPfJycTtQ1lmwWGbE6bjTG//KzoNOEO8d49TgBdDKRs0Btw/zsnv3rIQyBNDBwJTXxQoY/tEkgA48YHiJAAIIIIAAAggggAACCCCAAAIIGLIUHShnKbgBtHeueQkOJ7d8UCfX9cbBBwYHBx866NVQ0ITodGls63TXPUJFqL7EWU37tecRu0fJ//pmQMsdRZfTdXlsg7X4sop9Q6uCmANoLzV2u+DOgHZfq/86GbdedsOBkjm1XXZNQ83wV+d7lT6APvLYhrHzTkZ55LE7Njz22IYN4+6GcHZ5fmyDd7zefX58wx2GL7vCI4+Fj3jsiFPF+bENuqxrpdAZgX379v3whz98wP7at2+f+aKGfzQJoHmmIoAAAggggAACCCCAAAIIIIAAAgEBQ5aSK/lNEEDbq20MDg4Gpjm7y0CHa+jdANrJSWOm6DrpanhvjwbQdpx7+LD1GYkyUFZRsvWXAisOdqNhPeM5qrB662HvrKgD7G1qNvToBj3NWs2A3qrmievZ1r6U2fAicwCtIuTHjiydH9+w4bHHVZ6skuio5NjLku1jzo9veFxlyVY9/ijZqtBNtI88pore8VbaeX5swx3O6ebwk73FC/zwhz9cv379s88+q2Lo9evXmzNowz+aBNCBBwwvEUAAAQQQQAABBBBAAAEEEEAAAUOW0u4AOr5+e+6zlU0Gsuns6z7La6WbDmxIOsuzq4tdjp4B7dJ5S3C4W/L/N10A7c1b9iY+e3nxkcd1cOzlnrEzoO0E+cjjXjJtlzaMn/cqXFoKB9B28E367AF3tPTss8+uX7/+ypUr+qqHDx9ev3798ePH9ZZAwfCPJgE0z1QEEEAAAQQQQAABBBBAAAEEEEAgIGDIUmRoW6VyF9PY/Olqthr6qsvpAmgrW3SW4HAX0VBJ9JhaLsMOoM0ToO+w5ztbM5rHnTjbTa3dqNoUQB95/A5nQQ+5Ekgg8uRl2wQeeOCBf8igZfX/EEabJ0Eb/tEkgA48YHiJAAIIIIAAAggggAACCCCAAAIIGLKUKoXOsi99lcaqwLqvupwngNarYzgRsjMD2ouGjzymV9c4f14tE+2s3SyX1HCjbHdVDSeADk2OdmdI2yH4HW5sLcNQyu0WiMyaw6m0bIbhH00CaJ6pCCCAAAIIIIAAAggggAACCCCAQEDAkKXI0LZK5b5KYwmgvXVbpqZPyBjRK6sJztbE58DqGXfcIVJha5lm+bVhw7j7+YFWVVEzoJe8mnW6HF6CgwWgvVvR+ZL67EF5XWZABx4SvEQAAQQQQAABBBBAAAEEEEAAAQTyCBBAZ1vUolxn9VXmnm4GtFo0w1kEw4kh5YoZMpm0U2Y9A9oOl70PG/RmQOv5z3eoxTns09wAWh/mFrwlOPTy0P5r8qqtAmrFZ/2pg1euXFGfSWi4qOEfTWZA53kacS4CCCCAAAIIIIAAAggggAACCFRSwJClVGnWs+xLX6WxzIBONAPaDqBlcOxOddafDRi10z3IDpfdQNkXXDrLdIhE+8hjzrocwePFMb4qeNF2gX9In9evX//AAw+o6PmBBx6IXJdDt8PwjyYBdCUfk3QKAQQQQAABBBBAAAEEEEAAAQTyCBiyFBnaVqlMAF2u6dtpW5tuBrSVKnpLPFsxszup+chjYv0NHT6q493FncVmJ1D2Pq/QrUctz+HMgD7yuFu/L4C2zhLHi2opdkTgypUr+/bte/bZZ9VUaBVJ62nRgSYY/tEkgM7zNOJcBBBAAAEEEEAAAQQQQAABBBCopIAhS6lS6Cz7QgCdNtIt1/F5AmgraXQ/KjAYCNtrQNsb1SxmNSc60RRpdy1pOctZB9BW+Owu0BFIOnnZPQFDBm34R5MAupKPSTqFAAIIIIAAAggggAACCCCAAAJ5BAxZigxtq1QmgC5XoJy2tekCaPXRghvGzru58x1qdrP3csP4gcetxTY2jJ3Xn0PohdNqxvPjR+wPIZQfSiijUyd49qY/Ox9aaJ/F1GdJ1UvluAza8I8mAXSepxHnIoAAAggggAACCCCAAAIIIIBAJQUMWUqVQmfZFwLotJFuuY5PF0D3UuBJW3pO56ndqAAAIABJREFUQK3LEWiW4R9NAuhKPibpFAIIIIAAAggggAACCCCAAAII5BEwZCkytK1SeWr6BN8VFiCADuSlvCxYwPCPJgF0nqcR5yKAAAIIIIAAAggggAACCCCAQCUFDFlKlUJn+tI/AgTQBeetVBcQMPyjSQBdyccknUIAAQQQQAABBBBAAAEEEEAAgTwChiylfyJLelolAQLoQF7Ky4IFDP9oEkDneRpxLgIIIIAAAggggAACCCCAAAIIVFLAkKVUKZSkL/0jQABdcN5KdQEBwz+aBNCVfEzSKQQQQAABBBBAAAEEEEAAAQQQyCNgyFL6J7Kkp1USiA2gj82cXFxcDISJvEQglcDi4uKxmZNxvzAE0HmeRpyLAAIIIIAAAggggAACCCCAAAKVFCCAjouS2F5SgdgA+vSZ9+bnF1KljRyMQEBgfn7h9Jn34n43CKAr+ZikUwgggAACCCCAAAIIIIAAAgggkEeAADouSmJ7SQViA+hLc/PHZk7Ozy8wDzoQqvIyicDi4uL8/MKxmZOX5ubjfjcIoPM8jTgXAQQQQAABBBBAAAEEEEAAAQQqKUAAHRclsb2kArEBdL3RvDQ3f/rMe8dmTk5Nn+AbgVQCx2ZOnj7zniF9rjeaBNCVfEzSKQQQQAABBBBAAAEEEEAAAQQQyCNAAF3SmJVmxwmYAui4c9iOQCECBNB5nkaciwACCCCAAAIIIIAAAggggAAClRQggC4kd6KS3hEggG72zs3ot5YQQFfyMUmnEEAAAQQQQAABBBBAAAEEEEAgjwABdL9FZJXvLwE0AXTXBAig8zyNOBcBBBBAAAEEEEAAAQQQQAABBCopQABd+UC23zpIAN21+LXfhlq4vwTQlXxM0ikEEEAAAQQQQAABBBBAAAEEEMgjQAAdDpHYUmoBAmgC6K4JEEDneRpxLgIIIIAAAggggAACCCCAAAIIVFKAALrUYSuNDwsQQHctfg3fjH7bQgBdyccknUIAAQQQQAABBBBAAAEEEEAAgTwCBND9FpFVvr8E0ATQXRMggM7zNOJcBBBAAAEEEEAAAQQQQAABBBCopAABdOUD2X7rIAF01+LXfhtq4f4SQFfyMUmnEEAAAQQQQAABBBBAAAEEEEAgj0AXA+ibOvgVTopWdvArfPXbvr+vY9/hq3/7hZUd+w5fvd1bCKAJoLsmQACd52nEuQgggAACCCCAAAIIIIAAAgggUEmB7gbQSx35uummm8Kh58qVK9/vyNfKlSvDV7/t+/umzn3Uge/bvr8vfPVvv7Dy6LlfduD72y9E9D3cnmK3EEB3LX4t9kaWsTYC6Eo+JukUAggggAACCCCAAAIIIIAAAgjkESCAbncKTQDd4SCRAJoAumsCBNB5nkaciwACCCCAAAIIIIAAAggggAAClRQggCaAbt9UaGZAdy0J7XDqz+WUAAF0JR+TdAoBBBBAAAEEEEAAAQQQQAABBPIIEEATQBNAExMjUIwAAXSepxHnIoAAAggggAACCCCAAAIIIIBAJQUIoAmgCaCLCR+ZBYwAAXQlH5N0CgEEEEAAAQQQQAABBBBAAAEE8ggQQBNAE0ATQCNQjAABdJ6nEecigAACCCCAAAIIIIAAAggggEAlBQigCaAJoIsJH5n/iwABdCUfk3QKAQQQQAABBBBAAAEEEEAAAQTyCBBAE0ATQBNAI1CMAAF0nqcR5yKAAAIIIIAAAggggAACCCCAQCUFCKAJoKsWQE9Nn+AbgW4JVPI5QacQQAABBBBAAAEEEEAAAQQQQACBzAIE0ATQVQugWQgCgW4JMAM686OIExFAAAEEEEAAAQQQQAABBBBAoKoCBNAE0ATQxSy/0K3Qk+v2jgABdFWflPQLAQQQQAABBBBAAAEEEEAAAQQyCxBAE0ATQBNAI1CMAAF05kcRJyKAAAIIIIAAAggggAACCCCAQFUFCKAJoAmgiwkfe2ceLi3plgABdFWflPQLAQQQQAABBBBAAAEEEEAAAQQyCxBAE0ATQBNAI1CMAAF05kcRJyKAAAIIIIAAAggggAACCCCAQFUFCKAJoAmgiwkfuzXrluv2jgABdFWflPQLAQQQQAABBBBAAAEEEEAAAQQyCxBAE0ATQBNAI1CMAAF05kcRJyKAAAIIIIAAAggggAACCCCAQFUFCKAJoAmgiwkfe2ceLi3plgABdFWflPQLAQQQQAABBBBAAAEEEEAAAQQyCxBAE0ATQBNAI1CMAAF05kcRJyKAAAIIIIAAAggggAACCCCAQFUFig2gjxz91ZGjv0o4+/Cmm25a6sjXTTfdFG7SypUr2x09q/pXrlwZvvpt3983de6jDnzf9v194at/+4WV7QudZc3ffiGi74H2HEkzZgLnRr6sRW5lIwIdECCAruqTkn4hgAACCCCAAAIIIIAAAggggEBmgQID6CNHf/XCj1984ccvJsygCaAJoNOOmSQRIgF0MZN5k1hzTECAADrzo4gTEUAAAQQQQAABBBBAAAEEEECgqgJFBdA6SXzhxy++9YsjgVgm8iUBNAH0W784ov5okfzvFpFjSW4sIoCeHB6oLRtYXov+WjthX29my/JlWya9tHdqeFlt+fBUw9sim2WXJ4Zq68ZMBxjOrciuU2fOHjj48os7d23bvv3AwZePHD0aUupET9t0XQLoqj4p6RcCCCCAAAIIIIAAAggggAACCGQWKCSAzpA+1xtNAmgC6HqjWXgGXUAAPTW8bGB4xgtG966rOaGzl41acbP4GhgeHhIvrWLolHqj3wPoF3fuWnPnN++7/zv33f+dRzZtUuUXd+7yqFul86fOnE1+cNyRj2zadN/930l13biqAtsJoDM/ijgRAQQQQAABBBBAAAEEEEAAAQSqKpA/gM6WPqsA+qZOfQVionqjubKDX+Gr3/b9fR37Dl/92y+s7Nh3+OrhLcVm0PkDaGdq89jaQKKsXtqznveusyY7Tw4PuCnz2Nra0N5mfXJ4QEyCDoTUkdX5ku5W8WvYrkRbImNfHUkn7Mi27du3bd+e8ODIw44cPaov2jLO3rZ9eyCnPnL06H33fyey5nqjSQBd1Scl/UIAAQQQQAABBBBAAAEEEEAAgcwCOQPozOlzXIDD9v4UKDCDzh1Aq3C50XQy5Uaz7s2AVtm0mMi8d52bIM9sWW5n0N4Wb7q0uqlOou1m1n11p1XmqwLfF3fuUpOgDxx8ud5onjpzds2d30wYK+cMoFUIrjLoRzZtankLDhx8Wc6VPnL06Jo7v2lYvoMAOvOjiBMRQAABBBBAAAEEEEAAAQQQQKCqAnkC6EtzV0bHxtUavrv37Llw6XLLPIcDEIgUuHDp8u49e9RYGh0bvzR3JfKwJBsjAuhHY76iqrNyZLWUs2kGtDdVWYXR9llyhnMoZZ4aXja01zp4i1UIZtNRLanUMTq3VRnuizt3qUhahbkq5zUEu9onTwCt0udt27ffd/93klxLXVRn0C3TZ2ZAV/UxSb8QQAABBBBAAAEEEEAAAQQQQCCPQJ4Aut5onr94SWfQ4xN7yaB1UEYhucCFS5fHJ/bq9Pn8xUvJzw0fGRFA1xvNcAQdPtMKEIeXDaxdp5bRiJ8BbS+1IePmmu/TCMM1W2txWJG0TqtbHB+uodRbDhx8ec2d31RdOHDwZTXxud5oPrJpk17gQifUkT1VubPKju+7/zv6Zcs1NHRtKn0+debsI5s2JZn7rE+sN5oqgza3UB3PDOg8TyPORQABBBBAAAEEEEAAAQQQQACBSgrkDKDJoGVORTmDQLHpc73RjA6gAxl0XEPHhu2Vne11nJPNgHYW6Agf7C7NYYXa7gcS6rU7JoZaZdZxLSzj9shpy2rljcgwOtDHU2fO6sRZrd2hXyYMoPOkz/VGU819lmtxBFqoXxJAV/IxSacQQAABBBBAAAEEEEAAAQQQQCCPQP4Amgxap08U0goUnj6bAmidQbdopf4gwcmJsUl7HQy9xV15Ixw3x6yqYS/N4S3HoQPopj0buqZD6hZNcq9b0sNe3LkrMOk4vO6zmtfcsoORWbb5rELS5yNHj+q1OAyXI4DO8zTiXAQQQAABBBBAAAEEEEAAAQQQqKRAIQF0IIP+6YEDhoiGXQhogZ8eOFDUyhu6ztgZ0PqIFgUdN09ODC1fN2Z/CKE5KbYW7hiesav1Jc5ja+2IeXJ4wLdeh/3CmmRtHeyeWKkVnwPCR44eve/+78iN27Zv14tyqO1r7vymng0tjwyU0wbQRaXPqhktM2gC6Eo+JukUAggggAACCCCAAAIIIIAAAgjkESgqgNYZ9OjYeMI1fN/eXOvYdyDFqjeav9r5Fx37Dl999y1/3rHv8NUfWfVEx77DV5db1BriyceMPDeuXFwAbc07nhiy4uKWSzZ7H0LoTIXeu85ddkMmy3IGtNxe8XJgtQ21qIX8GEC1SHSS9TRSBdBq6Yxs6z6r4fXIpk2ynWo96G3bt8cNPgLoPE8jzkUAAQQQQAABBBBAAAEEEEAAgUoKFBhAqww6YfpcbzTf3lxbmj3Uge+3N0dkkr/a+RdLC4c68P2rnX8RTqt23/LnH75xqAPfu2/58/DVH1n1xMmj73Xg+5FVT4SvHthy/uKl5GMmcG7ky4ibHXlc7EY9A9r+TEIrfd6rpjDbs6H9q2EE1uJwF+Kw8mi3LMPlPg2g643mizt33Xf/d3TELHNkFU/rTyOMvS+2vK7BfJjaq2Zer7nzm4EFQJKcm+0YAuhKPibpFAIIIIAAAggggAACCCCAAAII5BEoNoBOFdoQQBNApxowCQ8uJoDestaa+exfH0PNhq7V1k5Ynytof/kPaHp5tP0xhqEW928AraYhhz/HT819DizQEXKTIX6K8qkzZ48cPRqYwlxU5ZH1EEDneRpxLgIIIIAAAggggAACCCCAAAIIVFKAALrdk6CZAR2Z1LVvY+4A2j/HuX0N7beaT505++LOXWvu/OZ993/nkU2bHtm0ac2d31xz5zcTzn0uBRcBdCUfk3QKAQQQQAABBBBAAAEEEEAAAQTyCBBAE0C3by2OJEtwFJ4rEkCnmCNcuH7LCk+dOXvg4Mvbtm9/ceeuF3fuSrWkRsvKu34AAXSepxHnIoAAAggggAACCCCAAAIIIIBAJQUIoAmgCaB7OrHteqhKA5ILEEBX8jFJpxBAAAEEEEAAAQQQQAABBBBAII8AATQBNAE0ATQCxQgQQOd5GnEuAggggAACCCCAAAIIIIAAAghUUoAAmgCaALqY8DH5PFmOrKoAAXQlH5N0CgEEEEAAAQQQQAABBBBAAAEE8ggQQBNAE0ATQCNQjAABdJ6nEecigAACCCCAAAIIIIAAAggggEAlBQigCaAJoIsJH6s6q5d+JRcggK7kY5JOIYAAAggggAACCCCAAAIIIIBAHgECaAJoAmgCaASKESCAzvM04lwEEEAAAQQQQAABBBBAAAEEEKikAAE0ATQBdDHhY/J5shxZVQEC6Eo+JukUAggggAACCCCAAAIIIIAAAgjkESCAJoAmgCaARqAYAQLoPE8jzkUAAQQQQAABBBBAAAEEEEAAgUoKEEATQBNAFxM+VnVWL/1KLkAAXcnHJJ1CAAEEEEAAAQQQQAABBBBAAIE8AgTQBNBVC6DP8oVAlwQIoPM8jTgXAQQQQAABBBBAAAEEEEAAAQQqKUAATQBdtQA6+XxVjkSgWAEC6Eo+JukUAggggAACCCCAAAIIIIAAAgjkESCAJoAmgGYJDgSKESCAzvM04lwEEEAAAQQQQAABBBBAAAEEEKikAAE0ATQBdDHhY7FzaamtjAIE0JV8TNIpBBBAAAEEEEAAAQQQQAABBBDII0AATQBNAE0AjUAxAgTQeZ5GnItAhwWuX79+7dq1D/lCAAEEEEAAAQQQ6HmBa9euXb9+vcP/c5HLIYBAgQIE0ATQBNDFhI9lnLFLm4sVIIAu8OFEVQi0VeD69etXr15dWFi4cuXKHF8IIIAAAggggAACPSxw5cqVhYWFq1evkkG39X8hUzkCbRUggCaAJoAmgEagGAEC6LY+rqgcgQIFrl27trCw8N577504ceJdvhBAAAEEEEAAAQR6WODEiRPvvffewsLCtWvXCvwfhFSFAAKdFCCAJoAmgC4mfCx2Li21lVGAALqTTy+uhUAegQ8//PDKlSsnTpxY4gsBBBBAAAEEEECg5wVOnDhx5cqVDz/8MM//AuRcBBDoogABNAE0ATQBNALFCBBAd/FhxqURSCXw4Ycfzs3Nvfvuu4Z3W6rCuAPy7F1aWjp37lw7aja3iutKc7NVnr044ywFZJlxlVyD36PkVoyr5FaMq+RWPTiu3n333bm5OQJodWv4iUAZBbobQL+9udaZ7/Bkyl/t/IuOfYevvvuWP+/Yd/jqj6x6omPf4au3e0ut3RegfgTiBAigy/gUpM39KUAALd+CqrIaCeHt+ffyhl+q4lyUBuOqKEnzmMQZZykgy+aRY97LuCpKsq+cCaDV7eYnAuUV6GIAHZfhsB2BPAIE0MVM5s1zD/r2XALo8j4LaXm/CRBAy7e+qqzGQHh7/r0EDVIV56I0GFdFSZrHJM44SwFZNo8c817GVVGSfeVMAK1uNz8RKK8AAXTfZmVV7TgBNAF01wQIoMv7LKTl/SZAAC3f+qqyGgPh7fn3EjRIVZyL0mBcFSVpHpM44ywFZNk8csx7GVdFSfaVMwG0ut38RKC8AgTQVc1h+7ZfBNBdi1/7dszpjhNAl/dZSMv7TYAAWr71VWU1BsLb8+8laJCqOBelwbgqStI8JnHGWQrIsnnkmPcyroqS7CtnAmh1u/mJQHkFCKB1dkShGgLFBNCz587v2r17z549I/aXoqFcbYfnnntu1+7dFy/PZf5NIIAu77OQlvebAAG0fOurymoMhLfn30vQIFVxLkqDcVWUpHlM4oyzFJBl88gx72VcFSXZV84E0Op28xOB8goQQGfOmjixNwVyBdCTU1Mvv/JKvdE8f/HiyMjI7t0E0CPqNo/YX/1T3rdv3+TUVNohTgBd3mchLe83AQJo+dZXldUYCG/Pv5egQariXJQG46ooSfOYxBlnKSDL5pFj3su4Kkqyr5wJoNXt5icC5RUggE4bMXF8jwtkD6AvX5kfsb/OnJ2tN5oXL12eX2j0eG9pXoEC8wuNC5cu1xvNmePH1Z8f0lZOAF3eZyEt7zcBAmj51leV1RgIb8+/l6BBquJclAbjqihJ85jEGWcpIMvmkWPey7gqSrKvnAmg1e3mJwLlFSCAThsxcXyPC2QPoOuN5uTU1NuTkz3eQ5rXAYG3JydPnjpdbzQvX5lPfjkC6PI+C2l5vwnIADqu7x/YX+3Ye+PGjdnZ2XbUbG4z15XmZqs8e3HGWQrIMuMquQa/R8mtGFfJrRhXya16bVwtLS0RQMvbRxmBMgoQQCcPlziyFAJZAujJqandu/ecv3ixFD2kkR0TOHnq9MjISPK1OAigy/gUpM39KUAAHb7ved5qms/lDb/UNlvl2YszzlJAlhlXyTX4PUpuxbhKbsW4Sm4VN64IoKUhZQRKKkAA3bEsiwt1RiBLAL1r9+6RkZGpY9OdaSJXKYvA25OTIyMj+/btS9hgAuiSPghpdh8KyABa/t9gZVmxyC2ynGcv/9fjoiTNdwFnnKWALJtHjnkv46ooSZylJONKapjHRp69OJfamRnQavDzE4HyChBAJ0yWOKwsAlkC6PMXL779zjtl6SHt7KRAqoFBAF3eZyEt7zcBAmj5FlSV1RgIb8+/lzf8UhXnojQYV0VJmsckzjhLAVk2jxzzXsZVUZJ95UwArW43PxEorwABdCezLK7VAYEsAXQHmsUlSi1w8fJckvYTQJf3WUjL+02AAFq+9VVlNQbC2/PvJWiQqjgXpcG4KkrSPCZxxlkKyLJ55Jj3Mq6KkuwrZwJodbv5iUB5BfozgH7tjbd27hl7ceeuF3fu2rln7LU33jKES28cfnP3nlF18O49o28cfrNiBxu6U8ZdqQPoffv2/eSlly5culzG3tLmdgtcvHR5ZGRk1+7dSS5EAF3eZyEt7zcBAmj51leV1RgIb8+/l6BBquJclAbjqihJ85jEGWcpIMvmkWPey7gqSrKvnAmg1e3mJwLlFejDAPq1N97afuDI/b+8dvfbS3e/vXT/L69tP3AkLoN+4/Cbh35++NLcFZU+XZq7cujnh+My6DIenCRVK9cxqQPo5557bmRkZH6hUa5+0trOCMwvNEZGRp577rkklyOALu+zkJb3mwABtHzrq8pqDIS3599L0CBVcS5Kg3FVlKR5TOKMsxSQZfPIMe9lXBUl2VfOBNDqdvMTgfIK9GEAvXPPmE6fdQa9c89YZL60e8+oTp/VAZfmruzeM1qZgyM7UuqNqQPo8xcvnr94sdR9Ttr4Qy/86PnXkx7caHJkWgEC6PI+C2l5vwkQQMu3vqqsxkB4e/69BA1SFeeiNBhXRUmaxyTOOEsBWTaPHPNexlVRkn3lTACtbjc/ESivQB8G0C/u3KVyZ/nzxZ27IrOmyO2RG+uNZuT2yI29c3Bkr0u9MXUA3Wu9fe35Hz1/qFlvvDv+5I/CX/au2L3u8S+8puLjQy+4W2L+6+bR7kWt0Hl635NP7ns3zPLa8zGVeJvd69pXn973pGjtk+PToUR7euLJJyemRdItmxFuQO9vIYAu77OQlvebAAG0fOurymoMhLfn30vQIFVxLkqDcVWUpHlM4oyzFJBl88gx72VcFSXZV84E0Op28xOB8goQQKsYusdj4sjmRW5MG233fqaXtoWpA+jdu/fs3r0n7WXad7wbwr47/qQT2rpbmrqQ8erxM6BFzd51469iheORIbU8pXUAHWqPaEYorRY5tbxKB8oj9leSCxFAl/dZSMv7TYAAWr71VWU1BsLb8+8laJCqOBelwbgqStI8JnHGWQrIsnnkmPcyroqS7CtnAmh1u/mJQHkF+jCAZgmOJElaeY9JHUCP2F890eHpCW/S85MvPF9EAG2atixmH3vJr2yDntosjlRTs730eXriSXcatWPozmuODqDdvfWGlad79dj5steM7sXN4ZGQfIQQQJf3WUjL+01ABtBxff/A/mrH3hs3bszOzrajZnObua40N1vl2YszzlJAlhlXyTX4PUpuxbhKbsW4Sm7Va+NqaWmJAFrePsoIlFGgDwNoPoQwnLBVaUvqALrX1oB2Q1hvJrK7pT0zoGXi/OTEuLMASNwE5Nef/5FaIUQccOiFH8mE2o2YowJoebp/jRE7xdY9LemIJIAu41OQNvenAAF0+L7neatpPpc3/FLbbJVnL844SwFZZlwl1+D3KLkV4yq5FeMquVXcuCKAloaUESipQB8G0NbMyzfe2rln7MWdu17cuWvnnrHX3njLkHe9cfjN3XtG1cG794y+cfjNih1s6E4Zd6UOoHutk24IawigrRi31deT49P+hDf6BP8qH2JNDBEf66zZfF13AWgRQDvXdGZzv/78j8RK0O5hlr97XWe+dmBKdS/NhjaPFgLokj4IaXYfCsgAWv7fYGVZscgtspxnL//X46IkzXcBZ5ylgCybR455L+OqKEmcpSTjSmqYx0aevTiX2pkZ0Grw8xOB8gr0ZwBtDpHYW2qB1AF0D64BbeW2VmgbkRm7H+vnhMIiJn53/Ek3Ag4kttYcZ3/y+6P4tS/cLNiu2UmcAwtlOOPDPdJ5qdficJNlf9t+9KMf+ZpnZ83OFn2kCt/tXaLBge50/OWI/ZXkt4IAurzPQlrebwIE0PItqCqrMRDenn8vb/ilKs5FaTCuipI0j0mccZYCsmweOea9jKuiJPvKmQBa3W5+IlBeAQLoJLESx5RIIHUAPWJ/9UQP3dUw7JTZmwGt2+ZOjtZTkuWiHNEB9PS+UIwtl8tww1xv6vGhF0TsbQXE0/ueTBRAu1XVowPoQKBszYZ+0lvk2tnrddCi8AXWGqHzheQjhAC6vM9CWt5vAgTQ8q2vKqsxEN6efy9Bg1TFuSgNxlVRkuYxiTPOUkCWzSPHvJdxVZRkXzkTQKvbzU8EyitAAN35OIsrtlUgdQDd+2tAG7xee14Hu9EBtHOuHW17ObKVMrsnytRbpc/2Chh6VnJbAmg1XVrNoXYDa/WxhIEp3oa+9+AuAujyPgtpeb8JEEDLt76qrMZAeHv+vQQNUhXnojQYV0VJmsckzjhLAVk2jxzzXsZVUZJ95UwArW43PxEorwABdA+mWDQpj0DqADrPxdpxrjsLOGIGdCiiff15b5qwDKCt1Z/dadRiQnOoqCNp96LecsxWAL1vwp4+HYyqQ9U4G5za3EBZR9j1huxLsPyk01RrWrfXDD2fulQFAujyPgtpeb8JEEDLt76qrMZAeHv+vQQNUhXnojQYV0VJmsckzjhLAVk2jxzzXsZVUZJ95UwArW43PxEorwABdDsiROrsokDqALoH14B2s2M3+fVCWJneWnGtTpDtkFevWeE7zPqIP2fZjdeftwvhnNfb4q7sLOLjmFU43CODN9sXQNurSD8/Me6utuFvp1WzXBvaa4bXZW+9keCFOnXMiP2V5OoE0OV9FtLyfhMggJZvfVVZjYHw9vx7CRqkKs5FaTCuipI0j0mccZYCsmweOea9jKuiJPvKmQBa3W5+IlBeAQLoJLESx5RIIHUAPWJ/9U4PdQirC6JtesqzCnZfF7tE6GytqqHCa2sqtLfaRkMF0O9OT6vtOrAWU48jYmVRs8x8I460w2J3TQ97XrS6hKxBd8FqgxWgB5YHkZfojXLyEUIAXd5nIS3vNwECaPnWV5XVGAhvz7+XoEGq4lyUBuOqKEnzmMQZZykgy+aRY97LuCpKsq+cCaDV7eYnAuUVIIAWCV73p1rSmPwCqQPoHloD2olu3YnPvs8DFMtc2IeF10r2fd6gvY6zN0Vah8L2dqVsHf/86yr/9YXU4SU2rHnTduQd3uXf8vxfStBCAAAgAElEQVRP7FU7xFW8a7lH2rO2rQ8hHJ/2fuV8jXeO9B2Qf2R0oAYC6PI+C2l5vwkQQMu3vqqsxkB4e/69BA1SFeeiNBhXRUmaxyTOOEsBWTaPHPNexlVRkn3lTACtbjc/ESivAAF0B1IpLtFJgdQBdCcbx7XKKHD+4sWEzSaALu+zkJb3m4AMoOP6/oH91Y69N27cmJ2dbUfN5jZzXWlutsqzF2ecpYAsM66Sa/B7lNyKcZXcinGV3KrXxtXS0hIBtLx9lBEoowABdMJkicPKIpA6gH75lVdGRkbeO3+hLD2knZ0UeO/8hZGRkV27dye5KAF0GZ+CtLk/BQigw/c9z1tN87m84ZfaZqs8e3HGWQrIMuMquQa/R8mtGFfJrRhXya3ixhUBtDSkjEBJBaamT/CNQJUEUgfQBw4eHBkZmTo2nSRh5Jh+Ezg7+97u3XsOHDyYpOME0CV9ENLsPhSQAbT8v8HKsmKRW2Q5z17+r8dFSZrvAs44SwFZNo8c817GVVGSOEtJxpXUMI+NPHtxLrUzM6DV4OcnAuUVYAZ0kliJY0okkDqAPjv7Xom6R1O7IjA3X09yXQLo8j4LaXm/CRBAy7egqqzGQHh7/r284ZeqOBelwbgqStI8JnHGWQrIsnnkmPcyroqS7CtnAmh1u/mJQHkFCKCTxEocUyKB1AG06tv5ixdnjh8vUT9pagcEpo5Nv/WLXyS/EAF0eZ+FtLzfBAig5VtfVVZjILw9/16CBqmKc1EajKuiJM1jEmecpYAsm0eOeS/jqijJvnImgFa3m58IlFeAADp5uMSRpRDIEkCfnX1vxP6amjpWik7SyA4InLtwUY2K6Zl3E16OALq8z0Ja3m8CBNDyra8qqzEQ3p5/L0GDVMW5KA3GVVGS5jGJM85SQJbNI8e8l3FVlGRfORNAq9vNTwTKK0AAnTBZ4rCyCGQJoOuN5uuHDv34xz8uSydpZ7sFLly6XG803/rFL14/dCj5tQigy/sspOX9JkAALd/6qrIaA+Ht+fcSNEhVnIvSYFwVJWkekzjjLAVk2TxyzHsZV0VJ9pUzAbS63fxEoLwCBNDJwyWOLIVAxgBa9+3VV1/bt+8n752/UG805xcaejuFyguo233h0uV9+36ye/eeDP0lgC7vs5CW95sAAbR866vKagyEt+ffS9AgVXEuSoNxVZSkeUzijLMUkGXzyDHvZVwVJdlXzgTQ6nbzE4HyChBAZ0iZOKWXBXIF0Bcvz+3avXtkZOT8xYv1RnP37j2U+8qh3miev2itvLFr9+4Mn05JAF3eZyEt7zcBAmj51leV1RgIb8+/l6BBquJclAbjqihJ85jEGWcpIMvmkWPey7gqSrKvnAmg1e3mJwLlFSCAzpOlXpqbP3V6dmrm5NT0ibJ+z5w8dXr20tx82KGbvYtvVbidgS25AmhV17vHT6jCnj0E0H0UxD/33HMXLl6qN5onT58JjKqELwmgy/sspOX9JkAALd/6qrIaA+Ht+fcSNEhVnIvSYFwVJWkekzjjLAVk2TxyzHsZV0VJ9pUzAbS63fxEoLwCBNAJk6XwYZfm5qdmTs7Onrt8+fJcab8uX748O3tuauZkIIPubu/iWhW+C+EtBQTQ4UrZgkASAQLo8j4LaXm/CRBAy7e+qqzGQHh7/r0EDVIV56I0GFdFSZrHJM44SwFZNo8c817GVVGSfeVMAK1uNz8RKK8AAXSSWCnymFOnZ2dnz5U2efY1fHb23KnTs7KbvdC7cKtkC+PKBNDNOBq2t1uAALq8z0Ja3m8CMoA+F/M1a3/F7DyXZ++5c+emp6fbUbO5VVxXmput8uzFGWcpIMuMq+Qa/B4lt2JcJbdiXCW36rVxtbS0RADdb/9znf5WT4AAOnMkNTVzstRzn2UCffny5amZk5KiF3oXbpVsYVyZAJoAumsCBNDVe0bSo6oKyABazkKSZdV3uUWW8+xl5ldRkua7gDPOUkCWzSPHvJdxVZQkzlKScSU1zGMjz16cS+1MAK0GPz8RKK9AqgD6kf3XPvmtpdodsd+f/NbSI/uvxSWDFds+NX1CZrhlLwdGguxdrYivbD6BViUZQgTQXYtfk9yeah9DAF3eZyEt7zcBAmj5FlSV1RgIb8+/lzf8UhXnojQYV0VJmsckzjhLAVk2jxzzXsZVUZJ95UwArW43PxEor0CqgM+cPqtg+pPfWqp2xKR7JyPabOlqT50VGAmyd7VaTT4iM5RrtVqSzr7zzjuBwwKt0viGAgE0AXTXBAigy/sspOX9JkAAHX6WqzEQ3q625NlL0CBV80iaz8UZZykgy+aRY97LuCpKEmcpybiSGuaxkWdvxZwJoNVg4CcC5RVIFfAZ5j7vm15a8ZQzMzoyHJx6es3g4IP7GzoaOvjA4OCap2ciD65PP7NmcHDwoYPRe71KdG1dKMiIVsame+6s1f7sB5NyU7j8yx8M1O7aE97evS2BkSB719YAWofOBw4c+MIXvrB582ZpEGhVkvFAAN2FX4YkN6YfjiGALu+zkJb3mwABtHzrq8pqDIS3599bsTfAS0tLZiv6K0eR2SrPXpxxlgKyzLhKrsHvUXIrxlVyqzaNKwJoNQj5iUB5BVIFfHEB9L5p61+j43NJAmgrd474eujg/ociNvs29VgeLSNaLzP95Q8G/uyuu/5s4Ae/9LZFlAigXZTNmzffc889Bw4c+NrXvvbOO+98+ctf1pH03NxcqvGpEk4CaALorgkQQJf3WUjL+02AAFq+jVRlNQbC2/PvbdMbUYLg8M06d+5ceGP+O2geG9xfaW62yrMXZ5ylgCwzrpJr8HuU3KoHxxUBtLop/ESgvAKpAr7IAHr9qPPP2B9tShJA62godga0PVfamf68/6H4WdLdngcdGUBPbh4Y2Dw5uXmgdqc7v1lmzaN32ZOj99zlrKpsT4K2DlBfbZkT/Y1vfOPNN990817rv2+++ebf/M3fyC3hqFf2rt0zoL9sf83NzX3ta187cOCAbFiq8UkArX+7KHRHgAC6vM9CWt5vAgTQ8i2oKqsxEN6efy9v+KUqzkVpMK6KkjSPSZxxlgKybB455r2Mq6Ik+8qZAFrdbn4iUF6BVAFfOID+o03Ov516/Y3aHRFrQIvZzQ8+ba3FEfha8/S0kxc56fOaZ6asfNmZLv3Awe6kSeY1A2RE62amkz9w5j7vuUuvsBERQM/NeRutMHpgs7ViR6K1O9wrJfzvN77xjVqtdvPNN+sM+s033/zDP/zDWq0WyKADI0H2rn0B9DvvvPO1r33t2Wef3bx58xe+8IVA+hyOxc13hAC6F39PktyzyhxDAF3eZyEt7zcBAmj51leV1RgIb3f3fnTjo4/i91pnx+0laJAyrZxNkuZzccZZCsiyeeSY9zKuipLEWUoyrqSGeWzk2VsxZwJoNRj4iUB5BQKxozkIUgH0iqes1Tb+xb3Wt/r64evO3Gd1QGQleg1oXXAOO/igtRa0FUDPuNG0l0c7i0EPDvZgBi0jWicOttbfcFZ/3nNn7a5Re7OXNc/NOTOgRQAt91rlVmt3JAye3cPefPPNm2++WWfQOn2++eab3UOc/wZGguxdmwJolT6r0PnZZ5/98pe/fM8995hbFTm0AhtZgoMYumsCBNDlfRbS8n4TIICWb31VWY2B8PalpaWPl5Yuf3Dj0gc3Fj+O3M+ayEEWlsLQIoZx1XIRFfO5FQtWWmrQXz2oWlqZR455L844SwFZNo8c817GVSGSBNBqmPETgfIKBGLHQJYXeKny5eNz1r8fx+eW1NLP+6Z96XPkDOh6o6lzZ2eOs28OtJM4R+3Sx4lUutuLbygWGdGq2NRaeUN+qVU4ZMQcDqBH76rpudJze+4qOoBWC27oDFrNfQ6nz+G5xrJ37QigZfp84MCBL3/5y3Nzc5s3bw5Mgk41PtV9IYDuWvwa+PeiD18SQJf3WUjL+01ABtBxff/A/mrH3hs3bszOzrajZnObM1/3/Ws3Ji9fnbx8df7DG9ej2t2m6964ccNcs3lv5v5y3cBNxjkAUq7fX8Zz4PYxngMgjGcNYh4befbyPNLImf9FWlpaIoCWjJQRKKNAqoBPL8GhMmj5wYN6V7IA+sH9OkT2ZkA7uZkdQ1txsy5Y86DXPLjfXaajR3ItGdHaAbS1mIYz69l67abJIoC2Emo1RVpv1IU5NS264BnQKhnX86DVVGi1MfAzMBJk7woPoCPT50B71MtAq5LcegJoAuiuCRBAl/EpSJv7U4AAOnzf495af/TRRycb11UAPV2/3rwWPrVFTMwbb0kW56yOybMXZ5ylgCwzrpJr8HuU3IpxldyKcZXcKm5cEUBLQ8oIlFQgVcAnU2aVQesPHpS7IlNCO022cueoac5ydrO9EIe9BrQXQOu0upcKMqK10lLfXOa5ubnJH/yZvbizFTGrYNraEgygrZy6jWtA61RXZdCRc58jo17Zu8IDaP1hg3rus25noJBqfKqBV5uaPsE3At0SKOmTgGYj0G8CMoCW/7dQWVYmcoss59lbov8r7uLHSxc//Ph4c3G6fn26fv14c/HU+4sfhRbiMGuUqL/6Fpt7ZN5LfzUjSyVIipwajCuJaf4dzLMXZ5ylgCwzrpJrtOn3iBnQahDyE4HyCqQK+GTKXLtjSX7woNwVH0APDg6qDyGMnwFtTYgeXPP0jLtqh8qmrVRabYysvCsbZUTrfISgWnPDzVDtFTnu2jM35y7NMfCDzXc5AbSdOzuLb9gJtb10h3Vw+7705xBGXiIwEmTvig2gDxw4oNZ6bpk+hxcGSXKjmQHdtfm/SW5PtY9hBnR5n4W0vN8ECKDl20hVVmNAbl/8+OOFG1b6LAPo483F2auL8rCWsVqb3ohy3cBdwFmChMdzUXtxLkrSfI9wxlkKyLJ55Jj3Mq6KkuyKMwG0YucnAuUVCMSO5nTok98KLvcsc2dV/uS3liIrUROf16xZMxj5ZU95rtvp86AqO3OlVQB98IHBwcGHDkbW3K2NMqKNjHTLtTEwEmTvCg+g1ecNqnWfzUqBViW51wTQBNBdEyCALu+zkJb3mwABtHwLqspqDMjtNz5eUulzIIA+3ly8+OHH8gMJw+fKenjDLzXMVnn24oyzFJBlxlVyDX6PklsxrpJbMa6SWxnGFQG0wuEnAuUVSBXwPbL/mjmD/uS3lh7Zfy2cEu5/SE5qthNob5EN++VDB/c/ZBV805ynnxFxtVymo2v5kuyajGjNKWop9gZGguxdsQH0O++8c8D+SsISaJX0jysTQPfEr0fc7an2dgLo8j4LaXm/CRBAy7eCqqzGgNw++4E19zk8A1ptqV/3MujwubIe3nhLDbNVnr044ywFZJlxlVyD36PkVoyr5FaMq+RWhnFFAK1w+IlAeQUyBHzVTpCS905GtEmy1B4/JjASZO/s5UHy/sjW/UCrktwdAmgC6K4JEECX91lIy/tNgABavhVUZTUGVHnx46XL15zFN+IC6OPNxasfLal50PLccM288ZYmZqs8e3HGWQrIMuMquQa/R8mtGFfJrRhXya0M44oAWuHwE4HyCmQI+JKEgP1wzNTMycuXL2fLVXvtrMuXL0/NnJR3rRd6F26VbGFcmQC6a/Fr3C3pn+0E0OV9FtLyfhMggJZvBVVZjQFV/uAjX/ocXoJDpdInmovX7OWg5bnhmnnjLU3MVnn24oyzFJBlxlVyDX6PklsxrpJbMa6SWxnGFQG0wuEnAuUVIIDOHI6dOj07O3uu16LkbO2ZnT136vSspOiF3oVbJVsYVyaAJoDumgABdHmfhbS83wQIoOVbQVVWY2BpaenjpaX56x9fueZ8h2dA611Xrn28cP3jjz/+WJ8brlZtOXfuXNwu87l59vKGX5rnkTSfizPOUkCWzSPHvJdxVZQkzlKScSU1zGMjz942ORNAq5vCTwTKK0AAHZdjttx+aW5+aubk7Oy5Us+Dvnz58uzsuamZk5fm5mWXu9u7uFbJFsaVCaC7Fr/G3ZL+2U4AXd5nIS3vNwECaPkWVJXVGAhvv2KvxTFdvz5dv368uXjl2sfhY+LO1UcSQGsKs1WevW16w7+0tGRuFdfVN7ellVnSvBdnnKWALJtHjnkv46ooSZylZJvGFQG0Gmb8RKC8AgTQecKxS3Pzp07PTs2cnJo+UdbvmZOnTs8G0mdl0s3exbeq5f0igCaA7poAAXR5n4W0vN8EZAAd1/cP7K927L1x48bs7Gw7aja3Odt1L129MV2/Pnn56uTlq9P165euRjS8HddVlzHXbN6brb9cN3yDcQ6YlOj3l/EcuHc3btxgPAdMGM8axDw28uzleaSRW/4OxjkvLS0RQEtGygiUUYAAumWgyQHlEiCA7lr8Wq6B0o7WEkCX8SlIm/tTgAA6fN/j3vJVOIA+ceXqI1MfNj68nlxDHRlnpesh0NEUZqs8ewl0NHLmQIfxLA11md9fTZHnN9R8Lr+/GpnfX0lh0CCADkDxEoEyChBAtyOGos4uChBAE0B3TYAAuoxPQdrcnwIygA78n0b1SyWjXwYKefa26f+a2vL//p/tuhVeguP0wrX/8FJzzVsfXP0ouK5I/9xfNbDpr/wFN2tk+z3CWQon0cBZipnHZJ69OOMsBWS5B8cVM6DVTeEnAuUVIIDuYlTKpdshQADdtfi1HbezXHUSQJf3WUjL+02AAFq+yVRlNQbC26saQP9i7vp9Rz/4k580/7fxxpq3Pvhg0df1OA2zla6CNa81RR5J87kEZxq55R+fzJLmvTjjLAVk2TxyzHsZV0VJ9pUzAbS63fxEoLwCBNDlCrhobUuBnAH0xFBt3VijWW/M/P/svX9wHNWZ99tbARxX+U/4B2/JKWfvvjiu+/6RbHBeo6nasBXs/LyFw6+68mJUOF5CYgH3Ba+slx8priEX2F27DDIiyIIkmApBDiRe2RsIjo0sQcAEFqM3IGuwxzLjIciSRjORkUejuTvzSEePuqef6enT8+PMfLtUzZl++sfTn/OM2/3h+KjzaivPcnXXYDaajB+8N090fhOdBC64vghAQJv7LETm9UYAApq/+lKbasC5vSYF9GPHP/324cSK/YkV+ydW7J9Y9dLEPccm+b270ZBZqTNAQCsUOiTlYyGwFGQIaI5CkwbqisOUv4M6UXAGZ06At4W6goAmOFiDgLkEIKALCk3sYBYBTQGdM8vKMr/fdU9XmO7/5bsta9ZNzwnou1+ZQxPuvPo7ne8r2aosttqCRl0QgIA291mIzOuNAAQ0f9mjNtWAc3vtCehnTk595eXkV15OrOtNfufV5Ir9E1cdSr49Nv3O2PR78WmZhpcoxAqvIre68kJSPhacwZkT4G25cuQo6iookuDMSaKuOA25NoQoBDTBwRoEzCUAAT2nEOvCj9XDzWoL6ETy5butew7mCuL9V+6ZGwc9u4WGP9MIaAhoRQONHAEIaHOfhci83ghAQPNXQWpTDTi315iAPjY+/Z3erH1+IXJueGJqze+TX/t94t3x6YnzM984nFhzKPmniexkHG40ZFaKHkZAKxQ6JOVjIXQUZM2KBWdOEnXFaci1oRMFZ3DmBHhbqCsIaIKDNQiYS6AoAT304Yn29vYt7kt7e/vQhyfqwXLiHquWQAACmu4tN+R5fk6Nudbc3BqYggPS2UEAAtrcZyEyrzcCEND8ZY/aVAPO7TUmoJ85eX5FT/x7b0ymUqmT8anr+v9ybHx21PMN/X+5/KWJx49/qqnzIFZ4FbnVlVx1XqLgDM6cAG/rVB3qKiiSci+AMzhzArwtVA4ENMHBGgTMJVCUgG5vb+/v7+d/Ptja/f397e3tVasmkVg9EMgjoJ9wWZw4ZqVzbgqO+XHQB++1Zgc7s7k15jfShNGYggP/iCAJAW3usxCZ1xsBCGjbX+AE5VpjAnrTG5Mr9k90fThFNX+e/e7B7lNTTa/9BSOgvdeG2hMjvhUKqiv10dbQiULYcZg6JOVjwRmcOQHelitHjqKuAiEJAU1lhjUImEugKAG9ZcsW/kdH3vaWLVucWm+wu7W1m6bSDXe37uhdOHCwd2fzXHReYeXd6DwztoCAjUAeAR1PJJ0K2nbY/Mf3u749J6DnRj3z/7IR0JiCY+E3eZ5hvW6HgDb3WYjM640ABLTz73BUA87tNSag/5+3z3EBze/39x+fb3rtL4c/SQk6nvZ3Y6XOBiGrUMisdKIQOgqyZsXKvQDO4MwJ8LZcOXIUdRUUybriDAFN3Y01CJhLoDwCOp5I9u5s7R5KxhN921v3Dub0VO/OZlrIPg92t85+dvvPzj4ILhAoSCC/gLY5aOksTEDPzvs8P9h54Qho7qXt7TlPXa8qViJcu0wgoM19FiLzeiPABbTbvZ/LLaWIplKpaDRaijPLOfu77shkaih+/v2zk++fnRyKnx/Jzl1hX0pxXbqGfGY5mvd+H/3g3Iqe+O1//Ivz2Ov7kyt6Eu3vZ+/QGeX3LEfzXlcdLh+rE8V1FWTNHpR7AZzBmRPgbbly5CjqKiiS4MxJ1lJdZTIZCGhb5+IjCBhHoGwCOp5ILlTMO7bvbN7eNz/kmQkrNUp63lazaN5DsBEEZgm4CmjloAsUExPQdquc/Txrlge7vvPtLhrVjyk4UHyzBCCgjXsEIuG6JQAB7ex6t5f2GhPQ75yd+s6riVUvJToHk+fOnVMcTiam1h1JXnUocWw0OzuHGw3aX47W0gs/7ldVCG8Y9D+QvPQg6pl3Lr6/nIZcGzpRcAZnToC33eoKAppTQhsEDCVQTgHNxkFndU1vHgFN6nmhgO7b0Yyxz7U7ZrSADS7+xiUB7eliTEALI6AHu74zG82mGO68GnNAQ0NjDmhDn4NIux4JcAHN/xksbxMXvoW3daJm/dPjc9MzY1MzI5OpkcnU2NTMuekZzoHaMo1qu9/Hjn/6lZcTX3k50fx68tz0zPOnzv9fRxJfP5x8fjh1dmr27uQ7kqPVdr9e+ki+IzmK++XfCJmVThScwZkT4G3UlXca+B55Z1WFdYUR0NQpWIOAuQTKIqDD2Smgh5Lxob2tO/vifTtozg01BUdzc3Nzdl6OcHcrjYleKKATyXjfjtwOEFwgUJiAtoA+eK81Nwc0E9BdnVfnxkPPzvtsM862j2ymjuINuidLjtNWJQGMgDb3WYjM640ABDR/BaU21YBzu360Cl/4Hzs+9X9nJ9yY+N4bk+tf+8vlL01cfSQ58un8byTUoVGF94s5gm2Fjf7lQGQaqGfvrGSSchScwZkT4G25cuRojdUVBDR1N9YgYC6Bsgjo7AjRrIPu3pF1zbS07u2mWaHnfTRNEu1iGOd2g50DAZmAnoA+eK9lfefbV1vW/C8YzFeRc6Ok51KBgM5HqSod8VyXlSRhCGhzn4XIvN4IQEDzl1tqUw04t+tHq/MF+D/PTv34vcnDn6QO//l8x9DUnybm7bOmrq3O+623/sX98u+yDg3Uc1Ak5V4AZ3DmBHhbrhw5WmN1BQFN3Y01CJhLoKwCOvtLCLPDmedGQOeM89xHmpRjzk8v+C/tX1JxhJPXDAEtAf3y3bMzabx8d775n2nb3a8snH9jfgqOwa7vzB4m++v6M7M1U17yjUBAm/ssROb1RqDiAjqRSPDXS96mvuBbeFsnqvMims4tPBPelrPSua58ZjmayWSM4yzfkRytIOdYLMbrgbflnHWiuF9w5gR4G3XlnQa+R95Zoa68sypRXUFAUxFiDQLmEiiXgJ7/dYKzM2+07thO83IwAZ1zO3PzdZCjG9rb2ryjF74OBDwT0BLQsl5EFARkAhDQ5j4LkXm9EaiUgE6mZgbi053hqc7wpwPx6WSq6PmUqaf4SyBvy1F/L4Qs5yl/Ofu7Lt2XfEduUZazMZx17lfVAESwQuFWG+CsEKmGzKr831+VGOpZoZD7SCeK/lWQNf/ti9wL4BwIZwhoKjOsQcBcAmUS0LnZn0k9b99JI6DnlLRdQNN8HdnJoAe7WzH1s+y7EHUSgIAuyeQSTtDY4iQAAW3usxCZ1xuBigjoqXTm1qOTK/ZPqJ9bj05OLZj4IfuCRn3BX9V4Wyfq4wU4kJx9XFfdso/7DSRnH9dVOZf5fnFdTkC1dXpQPhb9qyBX259XKjG5B+Uo+ldhRP9yFJo0UFccpvwdFKIQ0AQHaxAwl0BRArq9vb2/v5//6WFr9/f3t7e3O7WMmnYjGyLjrLyzaqghrn1sqmgMf1ZY0PBGAAIaArpiBCCgzX0WIvN6I1B+AZ1MzdjsM2noW49O2sZBU1/Y/oKlPupEi30BDirnYq+rbtbHC39QOZeTs8798mPLyRnXtRFQH3UqRz4W/asg+/iTwfux4OydlVyxchScwZkT4G2hciCgCQ7WIGAugaIE9NCHJ9rb27e4L+3t7UMfnnAK6MHu1u19c1Ioa5z7ulvnJtaYE9CzU3M0Nzfv7GNn6NuupoNesH3ubN6kJDshDqxxAhDQNd7B1fxlhoA291mIzOuNQPkF9EB8Wg18tjUG4tMeX700tUuxL/xB5VzsdXVoBJUzfSN4JrwtR8t5vzwrXJfTkPtIJwrO4MwJ8DbqyjsNfI+8s0JdKVYQ0FQMWIOAuQSKEtDVbH6QGwgQAQhoCOiKEYCANvdZiMzrjUD5BXRneMrmndXHzvCUernSVMzUj/xstnZRc6oGlXM5RUNQOcsk5Wg571enf/mx8h3JUdxvUCTBmZNEXXEacm3oRMEZnDkB3q7CuoKApk7BGgTMJQABDW9bYwQgoCumX2usknzcDgS0uc9CZF5vBLiAjrks0dziEowVFU0kEp3hT5VxtjWeGJxsa2uzrrnP+kUm+3PNfRYtFd3S9uzvnhhyleYm5twZ/jSRSKgOLaoH1VHUkI+NxWJDQ0O2Q9RH+VidKK6rIMdixX1D+YEFjwVnjkunYuVjwRmcOQHelitHjqKugiJZfs6ZTAYCut7+uo77rT0CEGxs95MAACAASURBVNA+LBMOqWYCENAQ0BUjAAFde89I3FGtEuACmo/34W26d76Ft4uNep8agl+lsu3azrnYHuR9IR+LEYXeWckk5Sg4gzMnwNty5chR1FVQJMGZk0RdcRpybQhRCGiCgzUImEsAArqaXSpy80EAArpi+tVHb9XYIRDQ5j4LkXm9ESi/gPb+y/H4S1pl27WdM9W8G2GdKEQDp6pDUj4WnMGZE+BtuXLkKOoqKJLgzEmirjgNuTaEKAQ0wcEaBMwlAAFdYwYMtwMBDQFdMQIQ0OY+C5F5vREov4DOZDJT6cytRyf5/Bu3Hp2cSvOXsqpr13DOVPNuxHWiEA2cqg5J+VhwBmdOgLflypGjqKugSIIzJ4m64jTk2hCiENAEB2sQMJcABDSMbY0RgICumH6tsUrycTsQ0OY+C5F5vRGoiIDOZDLJ1MxAfLozPPXE8XMD8elkaoa/klVnW+XcGZ4yLucnBifdcqaad2OuE4Vo4FR1SMrHgjM4cwK8LVeOHEVdBUUSnDlJ1BWnIdeGEIWAJjhYg4C5BCCgfVgmHFLNBCCgIaArRgAC2txnITKvNwKVEtDqBaytrU210SgdAYEz1bzbpXWiEA2cqg5J+VhwBmdOgLflypGjqKugSIIzJ4m64jTk2hCiENAEB2sQMJcABHQ1u1Tk5oOA9REWEKgQAQhoc5+FyLzeCFRcQFuWxV/G0C4RAeua+9zOTDVfiihEA6cKzkHRQF0FRVKuSXAGZ06At+XKkaOoq0BIQkBTmWENAuYSgID2oThxSDUTwAjoio3/reayKE9uENDmPguReb0RqLyAdhej/CUNbU0C1i9cT0A17xbWiUI0cKo6JOVjwRmcOQHelitHjqKugiIJzpwk6orTkGtDiEJAExysQcBcAhDQ5RFTuErZCEBAQ0BXjAAEtLnPQmRebwQqL6DdxSh/SUNbkwAEtAJI33H10dbQiUKscJg6JOVjwRmcOQHelitHjqKugiIJzpxkieoKAprKDGsQMJcABHTZxCguVB4CENAV06/l6eBqvgoEtLnPQmRebwS4gHa793O5pRTRVColiFHbKxw+6hCwrrmvFD0o10YqlYpGo7guEZBZ6UTBmdeYDkn5WHAGZ06At+XKkaOoq6BI1g/nTCYDAc3LBm0QMJEABHQ16yzk5oMABDQEdMUIQECb+BREzvVJoPICGlNw6Hhlz8daluVW4fJLu04UYoUz1yEpHwvO4MwJ8LZcOXIUdRUUSXDmJFFXnIZcG25RCGjOEG0QMJQABLQPxYlDqpkABHTF9Gs1l0V5coOANvRBiLTrkAAX0G4yk7CUIprJZPBLCN3ABrtd4FzS/o3FYm43gutyMjo0SvRPvDOZjJwVrhtUD4IzJ4m64jTk2tCJgrPRnDECmoofaxAwl8Dg0En8gEAtEYCAhoCuGAEIaHOfhci83ghAQPNX0BpuW+4jzanm3e5dJwrBwanqkJSPBWdw5gR4W64cOYq6CookOHOSqCtOQ64NIQoBTXCwBgFzCWAEdHlGRuIqZSMAAV0x/Vq2Pq7aC0FAm/ssROb1RqDyAtpdjPKXNLQ1CQhzbVPNu51fJwrRwKnqkJSPBWdw5gR4W64cOYq6CookOHOSqCtOQ64NIQoBTXCwBgFzCUBAV63LQmL+CEBAQ0BXjAAEtLnPQmRebwQqL6B/wd/F0C4VAQhoRZa+4+qjraEThVjhMHVIyseCMzhzArwtV44cRV0FRRKcOckS1RUENJUZ1iBgLgEIaH+WE0dVLQEI6Irp16qtibIlBgFt7rMQmdcbAQho24tirX7EFByqZ+k7rj7aGjrREokGzMVs6yNw5kB0KlY+FpzBmRPgbbly5CjqKhCSENBUZliDgLkEIKDL5qZwofIQgICGgK4YAQhoc5+FyLzeCFReQGMKDv4yWrI2fgmhQkvfcfXR1tCJQqxwmDok5WPBGZw5Ad6WK0eOoq6CIgnOnGSJ6goCmsoMaxAwlwAEdHmsKK5SNgIQ0BXTr2Xr46q9EAS0uc9CZF5vBHQE9EzuHYuI2V631Ec5mslkBDGqToKGPgGBs9xHFJ2ZyaTzJSEfW6IXb4wIdnZFLBZzbqQtch/pRNG/nLkOSflYcAZnToC35cqRo6iroEhWhDMENGHHGgTMJQABXbUuC4n5IwABDQFdMQIQ0OY+C5F5vRHwJ6DTM5lz0zPj57MKmojxFznelqMQ0JxVSduaU3CMnZ9JpGbS9P8cWKIF+xdiVNGSWelEIZIUZM0/keReAGdw5gR4W64cOYq6CopkXXGGgKbuxhoEzCUAAe3PctbDUSOj46eGo4PhyODQyXL/hCOnhqMjo+M+OENAV0y/+uitGjsEAtrcZyEyrzcCXEC73fu53KKi09PTf55MDcXPj0xmt9miajdqCNHp6el0Ot327O/4yyfaJSLQ9m5menra1jsF+4j699NPPx3J9Xg0mZpKTU+xswj9S3tFo1G2+4KmfKxONJVK4bqKtQ5J+VhwVpB1/iQseCw4gzMnwNvyN1SOoq6CIll+zplMBgKadx/aIGAiAQjoGjNgQd3OyOj4YDgSjcbOnj07Wvbl7Nmz0WhsMBzx4aAhoOtRQPe/9vpju3a13Hbbuu9+96tXXnlFY+NXr7xy3Xe/23LbbY/t2tX/2utBfTHk80BAm/gURM71SaAoAT11/vynqenh5PmhePbHt4Cenp5OpGYG4tOd4aknhqYG4tPJlGNsbYlEbJ2dNrmQcyI149TQ8svzuXPnlIAeip8Px8+Pf5o6n5p12fKxEBz8TxWZlU4UnMGZE+Bt1JV3GvgeeWeFuvLOqhR1BQHN+aMNAoYSgICWhVLdRk8NR6PRWNnN84ILRqOxU8PRYrsAArqOBPTBQ4du+f73L1261LKsiy++ePXq1dddf/0/3XLL5paWf7rlluuuv3716tUXX3yxZVmXLl16y/e/f/DQoWLrqaj9IaANfRAi7TokwAW0m5slLOmZzERq5kQyrX7GpnxOwTGVztx6dHLF/gn1c+vRyam8cwy75YTtHgh45Ez963Y+io5NLej6j8/NTOdmhZaPxT8t51RlVjpRcAZnToC3UVfeaeB75J0V6so7qxLVFUZAUxFiDQKmEIjH48O5JR6PU84Q0EX5pfrZeTAcqcjYZ26gz549OxiOFMvcq4Du3N1Vup+8Sb/19jtdTz0t/+zueqrgD6X9x3f+M+9Vyrzx5a6uwcQrnV1h+3UPdnU+19X5fqls+MFDh77+jW9alrVq1aptDzz4+htv2hNIzF/69Tfe3PbAg6tWrbIs6xvf+GbpNDQEtCnPQuQJAh4F9PT09CefLlCQpKHHpmZGJlMjk6mxqZm8PxQ9Nz0/wDmZmrHZZ9LQtx6dxDho/k6r2fbI+dy0px5U/9dBNU4m04nUDA2FFlLFHNAKDv1poz7aGjrREgmOgvMp47q8E3V6UD4WnMGZE+BtuXLkKOoqKJIV4QwBTdixBgFTCAwPD0dyy/DwMOVclIDe1Tt1yY8y1l2uP5f8KLOrd0oQQQiZQmBw6KRywVYQizpbUY2i6pPYehXQm1talpRm2dzS4uzmL3/5csuyArygZVlf/vLlzguVecvLd2er49td3ffc/crLXdufOxh+uWv7v97d9XLXvVkBfair82C4s+vRbPTue19mUlgnz61tbZZlrV379f3/8duizrP/P367du3XLcva2tZW1IEed4aANuVZiDxBoKCAnslk/jKViiTOK/Noa9B0HLaN6iNFaaw0vewNxKfVwGdbYyA+zV8I0dYh4JHz2NSMlx5UHWpr0KzQwuB1CGjVifSnjfpoa+hEIZI4TB2S8rHgDM6cAG/LlSNHUVdBkawrzhDQ1N1Yg4ApBCJsoZyLEnyyfSYxfcmPMh5dDXarZgIVEdAffPCBTU8XVZ/EswgB3RgKBd4HjaGQU0C/8OKv/8sX9+w/EODlevYfsCzrVy+8GOA5fZxqbgR09z13d3Xe/b/+teuVzru7nuuyCejnO+++956rgxHQ199ww6JFi9off9xHtnRI++OPL1q06PobbvB9BrcDIaBNeRYiTxCQBfTMTGb8vJagdArozvCUzTurj53hKf4iirYOAY+cNQU0zQqdSM2k58e4L8gaAlrhoD9t1EdbQycKgcVh6pCUjwVncOYEeFuuHDmKugqKZF1xhoCm7sYaBEwhEGEL5VyU4BPGPv9+KHPTc7Mjo13kTN/25ubWbvqX+uHu1ubmnX29O5ubW/cOLhwWmd3Y3Ly9b/4f0LucEDuUkEDZBLSSzkeOHFmzZs2TTz7JHXRR9Ul1Uo0CenNLyxVXXBF4HV9xxRW33XZ74KctwQnDnVdb1tVdtq+6jwtt2HDTJZdc8ruDB30cyw/53cGDl1xyyYYNN/GN+m0IaFOehcgTBAoI6ExmDAKavxyb0y6bgB6Knx+bmnHxzxkIaFUy9KeN+mhr6EQhsDhMHZLyseAMzpwAb8uVI0dRV0GRrCvOENDU3ViDgCkEImyhnIsSfG4C+vdD2T9BT4xKAnowq5yVVp4V0PFE1ko37+xT5od2yxrohcucuS6hclU5oBFPJMsmoJ988skHHnjgyJEjd9xxxwcffNDU1KSU9OjoaFH1SR1XpQK6RKOtW267rX7qtf3xxy3L2vfvPYHc8r5/77EsS2cktTMNCGhTnoXIEwRkAZ3JZNIzmfFPU0NxTMHB35ENaJdnCo4TE+eT56cxBYcqCAh3hYL+dFUfbQ2dKIQdh6lDUj4WnMGZE+BtuXLkKOoqEJIQ0FRmWIOAKQQibKGcixJ8eQX0fS/N/nHy9x2CgLaJ5pyAZoqZxjvT2Ofs5jklPeujHaOkneYHW4IlUDYBTdK5qalpdHT0jjvuOHLkSG2OgK4KAT02cur0R7mfkWDLpTxnW758+W23Bzni+/bbb1++fHmAyUNAm/IsRJ4gUFBAZzKZ86lUcip16i9p2/y/J5Jp/BJC/iZZVe1S/xLCE8n0x+fwSwjtfQ4BrYjQn67qo62hE4XA4jB1SMrHgjM4cwK8LVeOHEVdBUISAprKDGsQMIVAhC2Us6aA/vuO2T9L1Pwb1l155oDOeeTW7iGbd97RyybfUEOk5zV0zlBj7HOAfsz7qcojoD/44IM77rjjhRdeePLJJ9esWWOzzxgBXWDAf2MoVNwI6KyA3nvn/9x76vRIfGzkVCx7/o/n1vsebX93rMAVHQWU+PgTxyGOk3z8yUg8MTK/5xhrJ5LxT0Y+Zn8QOC4xe/4Xf/0by7L+95/ed9vBx/b//af3Lct68de/8XFs3kMgoE15FiJPEPAioInS9EwmOrnAQdOvFqQof6Hi7bzRqXTm1qOTaurnFfsnbj06OSUMo+VnRNszAY+c8/aRughFx6ZmbP/7gabdkI+FaFAYM5mMzEonCs7gzAnwNurKOw18j7yzQl15Z1WiuoKApiLEGgRMIRBhC+XsQ0Df9Fx2to3PPZj9oeWpN2fHPtMQaaeZYU65tXsoK5SyW/KNa57fc+fe3KQdWQkNB+1EWuotZRDQZJ9JOr/wwgtNTU0PPPAAH/4MAe1wuwtFbdECOnv4K/fc/Ur8k1c6H+97t6/rmcMjvY8/+Pzef3u0L+lLQE+8+1b/yz956cAf+555tPtnj7bvGwj37d/7xkt7n3yx592Xeh59tOfNP7zy7LPPPP+fv3juobcODrx3qu/Z5w4devfdt55/fM/PHm3f+8tnH33u0LsL7ytvcd97331f+MIX8oZ0Nn7hC1+49777dM7Aj4WANuVZiDxBgAtoNxrncksqlZqeno79JTsdB/2MTGaPUNG8h+eNTk9PJ1IzA/HpzvDUE4OTA/HpZMptDuHZv2DhP/4IJBdyTqRmpqenbT2Vt4/UPufOnfv0009HJuf7nabdmMrtIR+bSqWi0ag6la0hH6sTxXU5ah2S8rHgDM6cAG/LlSNHUVdBkQRnTrKW6iqTyUBA2zoXH0GgyglE2EKp+hDQJ0azbwMnRjM09fPvhxbY57wjoLOKZmhvdhLoubk15kVzc27Z2Tc3+/OCYdHzB0JDe3B0XIVptkstoLl9PnLkCE3B8eSTT9oGQRdVn3TL1TgHdMttt1XFFBxKQB++99p/bn/08fZ/2fte/PTezbftPZVIvtwVwC8JjCdGssOrFw5q/vhMbsaPsWScBkfPD5Ee+fjMgtHQubHS+bX75paWEjHc3NKi+W1Rh0NAV/kjEOmBgCJQlIBOpVLnU9Oj52ZdpG8BTVefnp5Op9NtbW3+1CqOKopA27O/c6pn6ghZUtgEdDSZrQFVP/KxtfTC74UV7lcVhr//NaUOR10pFNTA/8hRQOTa0Ini+6sg4/vLUWjSKEVdQUDbOggfQaD6CUTYQtkWJfjUHNDkoPkvHlQhNwGdM847evt2NM8vOdc8tLd1zkorjRNP0GQdDhldXgnL8snvxGp4h5IK6Lz22Tb2mT4WVZ/UHfUloIuXpzQCuu/RHz+7r+vBfzkcfv7HXe8OdG375Ue9j2x5/mSxhR7v7fltz09eOvDr13757J6f/bjr5z2v9+UGNR8c6Dn40nvxP+z9t93dz+/vOfDLlw6+svf5vb997uDbfa/0HNjb1Tvw3r4fP/PsoUPvDiTjA3vbdz2495evPP9W2O1LhRHQ1f+AQYYgYBABLqDdhCbdjoqmZzKT05mTuQmgNScWyGQy1jX3qTOjUToC1i9cz23rX9t+FKUpOGjaDb6DfGyJ/ulxwarDdb33kdyDchScwZkT4G25cuQo6iookuDMSdZYXWEENJU31iBgCoEIWyjnogQft8zkoNUvHuShPAZp3jvPTsERz23Z3p0bFt2c20hDpOf1tL1Fv6gwz8lhpUtAoKQCWv2yQTX2Oa99rp0pOEo3Arp4AV2sYg5k/wXDnLMTTw+9N+icPFqsY8wBbcpjBnmCgBEEfAjoTCaTnslMpTMT57PzZtBt2l7z1Ec5mhXQ7mJUnQQNfQICZ7mPKBo/P3MunXFO0y0fW2Mv/AWrHffLC1WuDZ0oOIMzJ8DbqCvvNPA98s6qCusKApo6BWsQMIVAhC2Us28Bbd2V4b94UBbQs9Nr8EmflW5u3du9k83y3LcjNzf03Ajo3G5Qz+XX7qUT0EeOHKG5ngvaZwjoAvK3MRSqvIDms23Mz62Ry/yTkY95VPllNRHHJyMfq19ISHvm3X/uwOXLl99++x0Bfhluv/2O5cuXB3hCTMFhyrMQeYKAPwFNr20zMxDQ/AW2qtvCSHP6FrhlT9F0rq+d+8jHQnBwYjIrnSg4gzMnwNuoK+808D3yzgp15Z1VieoKApqKEGsQMIVAhC2Uc1EC+pIf2ad75t6Z2pf8KCP5nPmh0DTAubV7KOeac7NwzE4M3bqjlzY2ZxuDdEieaToK2DkpjTmjhX3cCJRUQNPvG6R5n93GPmMKjsL1XQUCOt7btefnP3nrzcPPPnq452DXe319u37+4N5H39y3b89vnvvlW4MDv+388TMvPr730Zf2Pf/avn2//O3BgXDfKz1vvvjKc4d/+/IvX+p+oevXL/W8+9J7+1469O5Abu3+5Wx//HHLsvb9e49b1Ra1fd+/91iW1f7440UdJe8MAW3KsxB5goCOgKYXMGLIX8Z4W45iCg7OqqRty7Lczi/3kU60RC/eGIns7MpYLObcSFt0elA+Fv3LmcusdKLgDM6cAG+jrrzTqLHvEQQ0FT/WIGAKgQhbKOeiBPSu3inZQV/yo8yu3imnopn/lYM7+3JtmoiDhjk3Nzdn53qenSQ6kZz7bYRsWHSibzv7BYbO82NL4ARKJ6A/+OCDI7lFVs81JaBvu+32K664IvBOuuKKKyo9Ajrx8SdJ268cjCdyE25kxzKzmTdchjZnf+ugbdy0u4COJ5Ibbrrpkksu+d3Bg5owf3fw4CWXXLJhw02a57EdDgFtyrMQeYJA5QW0uxjlL5ZoaxKAgFYA6VuvPtoaOtEaExwQ/bbaQP9yIDrfFPlYcAZnToC35cqRozVWVxDQ1N1Yg4ApBCJsoZyLEtA22YKPNUygdALai3dW+/ioz2r8JYS/euFFy7J69h8IsGJ69h+wLOuFF38d4DmLP9VE33P/9vyLfc/+8pnnDxw60PPgvtf6nnm0++DAe7mR0S/9xws9s9vfem/fo+37Xsz9TsJ9h/a9uPvRg+HBg//25L5fvfivfdnfWPjsvz3/h8KDvuOJ5PU33LBo0SKdkcvtjz++aNGi62+4ofj7LZAhBLQpz0LkCQIQ0PzltobbmlNwuJGhb5BbtMZe+CFknR2NkdeKifxd0Inie6QgF/wOgrN3Vqgr76yqsK4goKlTsAYBUwhE2EI5+xB8gUsbnLAKCQyGI2fPnlUiuCKNs2fPDoYjxcIpQkAvKc2Sd1Tyl798uWVZAV7wv4z2l798ebF0Kr//6ffePb1Q47oMjhZS3dr2vyzLWrv26/v/47fCbs7Q/v/47dq1X7csq3VrmzOqvwUC2pRnIfIEgcoL6Gvu4y+BaJeIgOYvIXTLir5BblEIDk5GZqUTBWdw5gR4G3XlnQa+R95Zoa68sypRXUFAUxFiDQKmEIiwhXKGgNaXTjV5hlPD0Wg0VhHvrC4ajcZODUeLxetVQHfu7irdT96k//jOf9IVd3c9VfCn66mn5Z+33n4n71XqZOPBQ4e+8Y1vWpa1atVXtj3w4OtvvCnc+OtvvLntgQdXrVplWdY3vvHNg4cOCTvrhCCgTXkWIk8QqLyA/gV/j0O7VAQgoBVZ+tarj7aGTrREoqHgqE9cl3eiTg/Kx4IzOHMCvC1XjhxFXQVFsq44Q0BTd2MNAqYQiLCFcoaA1tFNNXzsyOj4YDgSjcYqMg767Nmz0WhsMBwZGR0vFrJXAV3sebF/FRI4eOjQLd///qVLl1qWdfHFF69evfq666//p1tu2dzS8k+33HLd9devXr364osvtizr0qVLb/n+90unngkOBLQpz0LkCQIQ0PzVt4bbmIJDdS5969VHW0MnCpHEYeqQlI8FZ3DmBHhbrhw5iroKiiQ4c5IlqisIaCozrEHAFAIRtlDOENBVaNWqJKWR0fFTw9HBcGRw6GS5f8KRU8NRH/Y5nkhCQC+c4EL8nX5VUmr6afS/9vpju3a13Hbbuu9e89Urr7yisfGrX71y3Xe/23LbbY/t2tX/2uv6l/ByBghoU56FyBMEuICOuSzR3OISjOlEY7GYIEZtr3D4qEPAsqxS9KDc+7FYbGhoCNclAjIrnSg48xrTISkfC87gzAnwtlw5chR1FRTJ+uGcyWQgoPEXeBAwiwDzzxHKHALai1bCPgYRgICuRwFdJQUKAW3WExHZ1jMBLqDd/CbxKUU0k8lYluV2ZmwPkIDAuaT9i19SpzoRnBWKgpOKyKxKNKKwYFa4blA9iP7lJFFXnIZcGzrRGuMMAU3FgDUImEIgwhbKGQK6SswV0giKAAQ0BHTFCEBAm/IsRJ4gAAHNX31ruC2MNKdvgdu960Rr7IUfgtJZJPgfDIqJzjdFPhbfIwW54HdQJilHwRmcOQHelitHjpaoriCgCTvWIGAKgQhbKGcI6KC8J85TJQQgoCumX6ukAiqYBgS0Kc9C5AkClRfQ19zHX/PQLhEB/BJCBZa+9eqjraETLZFoKCjdcF3eiTo9KB8LzuDMCfC2XDlyFHUVFMm64gwBTd2NNQiYQiDCFsoZArqCtgqXLgUBCGgI6IoRgIA25VmIPEGg4gK67V3+7ol2qQgInOlb4HZhnSjECqeqQ1I+FpzBmRPgbbly5CjqKiiS4MxJoq44Dbk2hCgENMHBGgRMIRBhC+UMAV0KB4pzVpAABHTF9GsFe71KLg0BbcqzEHmCQKUEdDI1MxCf7gxPPTE0NRCfTqZm+CtZdbZVzp1h83J+4vg5N870LXBjrhOFaOBUdUjKx4IzOHMCvC1XjhxFXQVFEpw5SdQVpyHXhhCFgCY4WIOAKQQibKGcIaCrxFwhjaAIQEBDQFeMAAS0Kc9C5AkCFRHQU+nMrUcnV+yfUD+3Hp2cSvOXsqpr13DO9C1wI64ThWjgVHVIyseCMzhzArwtV44cRV0FRRKcOUnUFach14YQhYAmOFiDgCkEImyhnIMS0COj46eGo4PhyODQSfxUhkA4cmo4OjI67jS5I6Pjw6fPHK+O3jkejgyfPqPyHI7G8iaW3S0ac95LwS0Q0BXTrwX7puZ3gIA25VmIPEGg/AI6mZqx2WfS0LcenazacdC1nTN9C/grMW/rRCEagiIp9wI4gzMnwNty5chR1FVQJMGZk0RdcRpybQhRCGiCgzUImEIgwhbKORABPTI6PhiORKOxs2fPjmKpEIGzZ89Go7HBcES5XdJ9I6Pjx8OR8fGJdLoqhlml0+nx8YnjuTyHo7Hhj2Jj8QmnmRyLTwx/FPPhoCGgIaArRgAC2pRnIfIEgfIL6IH4tBr4bGsMxKf5i1n1tGs7Z/oWuNHWiUI0cKo6JOVjwRmcOQHelitHjqKugiIJzpwk6orTkGtDiEJAExysQcAUAhG2UM6BCOhTw9FoNFYh74rLLiAQjcZODUe5zx0+fWZ8fIL/mV8N7fHxCRqUndc+U/5j8ayn5vfipQ0BXTH9KnfPG0ffkneogSgEtCnPQuQJAlxAu9E4l1sCiabT6c7wlM07q4+d4alqeDA7c6i9nNPptOrQAPtXnVM1otGoatsauC4HokMjlUqBs4KpQ1I+FpwV5FQqJbPSiYIzOHMCvI26IhqZTAYCmhcG2iBQ/QQibKFsAxHQg+EIxj4v0MCV+3D27NnBhdL2eDhSJWOf+bttOp2mmTdk6+ijPosQ0I2hUCl+5FvKGz3S1//Qw49s2HDT1666qjEU+tpVV23YcNNDDz9ypK8/7/7GbXzj6Fuf+9znat5BQ0BX/1MQGYIAEagqAf3E4GTbs7+zfpHJ/lxzn0XLNfdVdkvbu5knhlylyyUaewAAIABJREFUuYk5d4anIKDd/gSA4OBkZBoQhd5ZySTlKDiDMyfA23LlyFHUVVAky88ZApr3HdogYAQB5p8jlLAPwed0X4NDJytnXHFlOwFbnw4OneTmt3raNFM2L6dNuYVvsd0LD7m1ixPQm1tagv1pDIXcMsu7/aGHH1m5cqVlWZcuXbp27dqbN27c3NJy88aNa9euvXTpUsuyVq5c+dDDj+Q91pSNZJ+v/Id/qHkHDQFtxIMQSYJAKpXiAtrtuUiggop6n84i2Ova8o/FYrYt6qPzukHlXM5/ehxUzk4aClQmk5Gj5bxfnhWuy2nIfaQTBWdw5gR4G3XlnQa+R95Zoa4UK4yApmLAGgRMIRBhC+XsQ/A5rRcEtN0BV/SzrU9NEdCbNm0ayC2bNm1SNWa7F7VdaBQtoIVzFRva3NLiXUD/7OfPLF++fPHixZtbWl7tPZL3Wq/2Htnc0rJ48eLly5f/7OfP5N2nyjcq+zwyOlbzDhoC2pRnIfIEgfILaO+/0I96R71u2Ro60WJf+IPKudjr8lsu9n6DyrnY6/Kcy3m/uK6NgPqo04PysehfBbng/4yRScpRcAZnToC35cqRo6iroEhWhDMENGHHGgRMIRBhC+XsQ/A5fRcEdEWFs/3itj4ttYA+8+w66/5+/ixzbQ/vWWdtU7vyEdDKPtsctO1enLXn3GKGgL799jssy7p548YPTxae5frDk5GbN260LOv22+9w3nA1b+H2OZ5I1ryDhoA25VmIPEGg/AI6k8lMpTO3Hp1UUz+v2D9x69HJKcfvB6becXuU6kR9vHgHkrOP66rb93G/geTs47oq5zLfL67LCai2Tg/Kx6J/FWQIaI5CkwbqisOUv4M6UXA2mjMENBU/1iBgCoEIWyhnH4LP6bsgoO0OuKKfbX1aUgGdtc+WpSmgaeYN5zqeSNruxVl7zi0GCOgNG26yLOvJzt3O7IUtT3butixrw4abhH2qKmSzz5RbbTtoCGhTnoXIEwQqIqAzmUwyNTMQn+4MT3WGPx2ITydTM/xVkNrUO87t+lF/L94s5yl/Ofu7rs79spyN4axzv6paippiRR0FccZRFKRR/npW6aF/FYpq+3OSEtPJCnWlOrfgdxCcvbOqsbqCgKbixxoETCEQYQvl7EPwOR0XBHQ5hfPhw4edl3vnnXfURluflk5A999vWdfu6c87Ajo32HkP6Wlr3Z7hTCbTv232Fytto4cmHwHtLCraYrsXt9349moX0DT2+VcvvMiT9tj+1QsvmjIOOq99ptusYQcNAW3KsxB5gkClBLR6aUwkEqpta1Dv2DaqjzpRnRfRdG5RadgaclY615XPLEczmYxxnOU7kqMV5Awxqr4Rch/pRNG/CjIEJUehSQN1xWHqfEPlY8E5EM4Q0FRmWIOAKQQibKGcfQg+pyuDgFbyt9SNEydOPPbYY7/5zW/4hQ4fPvzYY4+pLbY+LZ2ApudI/ik4sgJ6dmR0dodr95zJZDLuU3A4i4q22O7FbTe+vaoF9M9+/oyPsc/89mgctDAfdOfurtL98EyEtmCf6Sh9Bx3sPQr3UlQIAtqUZyHyBIGKC2gIO/UuStWoPtoaOlG88HOYOiTlY8EZnDkB3pYrR46iroIiCc6cJOqK05BrQydaIs4Q0NQpWIOAKQQibKGcfQg+p5CBgFbytwwNm4O22efR0VFbn1ZOQNPAZxr7nGvnE9A0DlpYO+tN3lLVAnr58uU3b9wo30DB6M0bNy5fvtxtt80tLUtyy0W5hdq+1/wkm1ta3C7Ktxe0z7SzpoNesWKF75uyHXjnXVt4/jptCGhTnoXIEwQgoPkrKLWpKpzb9aMlehEtOO4P1+W9if4NigbqKiiSck2CMzhzArwtV44cRV0FRbIinCGgCTvWIGAKgQhbKGebrPTnXgoK6A1YiiQgi2zloJ32uZoEtPp9g/3baBaOfAJaLjkf9Vm9Avqhhx9ZvHixl986KEP58GRk8eLFDz38SN7dNre0NIZC8USyqWl9U9P6vPt436hO0hgKeRHQHu0zJeDbQR9+tdeyrEOHX/V+I3n3DOo86uQQ0KY8C5EnCEBA81dQalNVOLefm54Zm5oZmUyNTKbGpmbOTRc9bzVe+DlVN85yL3iJgjM4cwK8rVN1qKugSMq9AM7gzAnwtlw5crTG6goCmrobaxAwhUCELZSzD8GnZItqFBTQsk5F1AcBctB85g11ElufVn4EdNY7u46AVlWUt2G7l7z72DZWr4BeuXKlF4dru5+8Hze3tKxcudItVCkBXZR9puT9Oeg779py2WWX5b39ojYGdR51UQhoU56FyBMEuIB2o3Eut5QimkqlotFoKc4s5+zvuiOTqaH4+ffPTr5/dnIofn5kMk/ipbguXUY+sxz1d7+4rrODwdnGxKDvL+rZ1nepVAr1bGOCelZA5NrQieJ5pCAX/A66cc5kMhDQHCPaIFD9BJh/jlC2PgSfki2qAQGt5G85GydOnMh7OVufVk5AW+uezc78jDmgk/FE8khfv2VZr/YeUV8bncarvUcsyzrS1+88SaVGQPuwz5S8Dwd92WWXBTJvRlDnUb0AAV39T0FkCAJEAALaWQlur3wQ0N5ZqT0hdBQKt7qiHXSiEDoKsm+h46UXwBmcOQHexvfXOw18j7yzcqsrCGjOEG0QMIIABHReY1tjG6tGQG/bdr+VW/hcHJZlbcvkFpr3OZ5IbnJZ4omk7V6U6BMaVToC+qGHH7l06VIh72JDly5dmncWjooIaN/2me66KAcd1LwZdJ7Dr/YWS17YHwLaiAchkgSBVCrFBTQ9k5xrAuXcTlt0omb9k9ixqZkTyfRQ/PxQ/PyJZHpsClNwZOTeN6t/662ecb/OP9NQzzYm+CWxCohcGzpR/DmpIBf8fQbgrFhhBDQVA9YgYAqBCFsoZx+Cz6lfMAK6qhS2rU9LPQJaPREWNBZO97wgNPdBCWhy0ANs2bRpE5WZ7V6ctefcUqUCesOGm9auXetM1/eWtWvXbthwk/Pw8gtoTftMt+DdQQc1b0ZQ5+FdAAFtyrMQeYIABPTcs3j+v1QV85/nWhDQcyTm/+vGSu0BgaVQyKx0ohBYCjIEFkehSQN1xWHqfEPlY8EZnDkB3hYqBwKa4GANAqYQiLCFcvYh+LhvoTYENAQ0f2pk20UKaO6glX2uqRHQX7vqqps3bnR+eXxvuXnjxq9ddZXz8DIL6EDsM92FRwcd1LwZQZ2HdwEEtCnPQuQJAhDQ9sd2xnVULwS0d1ZqTwhohYL+tFEfbQ2dKAQWh6lDUj4WnMGZE+BtuXLkKOoqKJJ1xRkCmrobaxAwhUCELZQzBHRVueNAkrH1aWVGQPNnqkubj4AmiUdTcdiEHv/opV2lI6AbQ6GgfgMhUVCi2QZFbW9qWt/UtN4WLfajOkne/AO0z5RYQQcd1LwZQZ3HxhMC2pRnIfIEAQho56OZqsK5HQLaycSNldoTAlqhkFnpRCGwFGTNMb9yL4AzOHMCvC1XjhxFXQVFsq44Q0BTd2MNAqYQiLCFcrbJSptO8fhxMBw5e/ZsIPIUJ9EkcPbs2cFwhHfc8XAknU7zZ1w1tNPp9PFw5Hg4Mhaf4Nny9lh84vjCe+FRt3aVCmiMgHbrMLW9oH2OJ5JBzZsR1HlU8tSAgDblWYg8QQAC2vlXAaoK53YIaCcTN1ZqTwhohUJmpROFwFKQIaA5Ck0aqCsOU+cbKh8LzuDMCfC2UDkQ0AQHaxAwhUCELZRzIAL61HA0Go1pmlMcHgiBaDR2ajjKtdjw6TPj4xP8T/VqaI+PTwyfPjMcjQ1/FMvroMfiE8MfxYajMX4vXtpVKqAxB7TceV7sczyRDGrejKDOY7spCGhTnoXIEwQgoJ1/FaCqcG6HgHYycWOl9oSAVihkVjpRCCwFWVO5yr0AzuDMCfC2XDlyFHUVFMm64gwBTd2NNQiYQiDCFso5EAE9Mjo+GI5EozGMgw5EIvs7ydmzZ6PR2GA4MjI6zrXYyOj48XBkfHyiSsZBp9Pp8fHs0GbKczgaOx6O0HQcfH08HPFhn+OJZJUK6IcefuTSpUt5x2i2L1269KGHH3GepJxTcKira87F4dE+BzVvxqHDr1qWdfjVXpV/UA0IaFOehcgTBCCg+asvtakqnNshoJ1M3FipPSGgFQqZlU4UAktBhoDmKDRpoK44TJ1vqHwsOIMzJ8DbQuVAQBMcrEHAFAIRtlDOgQjoeCI5Mjp+ajg6mM8kcquIdgkJhCOnhqM2+0xibWR0fPj0mbyet4T5DJ3Me/KsWT59Jm+egWjAKhXQR/r6Lct6tfdIIDf5au8Ry7KO9PU7z1YRAR1PJH07aI/2ufrn36BfmmnKwwB5gkCdE4CA5i971KaScG6HgHYycWOl9oSAVihkVjpRCCwFWVO5yr0AzuDMCfC2XDlyFHUVFMm64gwBTd2NNQiYQiDCFso5KAHt9GDYAgIVIVClAjqeSK5cuTKo30O4uaVl5cqVeflWSkD7c9De7XP1z78BAW3KgxB5gkAqleIC2g3IudxSimgqlYpGo6U4s5yzv+uOTKaG4uffPzv5/tnJofj5kck8iZfiunQZ+cxy1N/94rrODgZnGxODvr+oZ1vfpVIp1LONCepZAZFrQyeK55GCXPA76MY5k8lAQHOMaINA9RNg/jlC2UJA55V42GgugeoV0A89/MjixYs/PLngd0T6AP3hycjixYvzzr8RTyQrKKCLddBF2eeg5s0I6jx5Ow5TcFT/UxAZggARgIB2VoLbKx8EtHdWak8IHYXCra5oB50ohI6C7FvoeOkFcAZnToC38f31TgPfI++s3OoKApozRBsEjCAAAZ3XGmFjLRGoXgEdTySXL19+88aNmrhv3rhx+fLlbifZ3NKyJLdclFuo7XvNT+Jx+LbHuTiKss80/4bvu7AduGLFCjd6mtshoI14ECJJELCNgM64LATKJZjRiVb5Pz2emcmMnZ8Zm5r9OZFMn0imh+Lnh+Lnqa1CY1Mz8fMz6ZkZmUaV32/eLpbvSI7ifjlSmZVOFJzBmRPgbdSVdxr4HnlnhbryzqpEdYUR0FSEWIOAKQQibKGcMQJa0zjh8GojUNUC+mc/f8ayrCc7d/um9mTnbsuyfvbzZ9zO0Lm7q3Q/bhe1bS/ooIu1z/FEMtibsiUc1EcIaFOehcgTBPgIaP5CxdtEiW/hbZ1oiV7MCs4D6/G66UwmkZoh16zWXECrjSeS6XPpLBWZhsfrcryqLZ9ZjuK6CmPBPpJJylFwBmdOgLflypGjqKugSIIzJ4m64jTk2tCJlogzBDR1CtYgYAqBCFsoZwjooNQTzlMlBKpaQMcTydtvv8OyrF+98KIPXr964UXLsm6//Q4fx5b5EMFB+7DPZU7e9+UgoE15FiJPEICA5q+g1KaqoHZ6JvPxuQUOOq+AHpuayflnCGg7TvwSQkWE15XaqBo60RIJjoKyHtdV3VeQFfrXOyvUlXdWqCvvrGqsriCgqfixBgFTCETYQjlDQPt2TTiwOglUu4COJ5IbNtzkYxw0jX3esOGm6uTuzCqvg65h+4xfQmjKgxB5ggCm4ODvrqpNhaE+Ts9kTuYm36Dxzk4B/fG5mZm5vW3Hzm2e/y+ErGIhs9KJ1phoKCg3cb+qqAqyQl15Z4W68s4KdeWdFerKOyuhriCgCQ7WIGAKgQhbKGcIaKc3q70tI6Pjw6fPHA9HBodOVvzneDgyfPrMyOg4cR6OxvImlt0tGvPRFwYIaDUO+uaNG738TsIPT0Zu3rjRlLHPvM9sDrq27TMEtCkPQuQJAhDQ/D1Qtakw1EfbRBw2AX3qL+m00s+YgkNRm2tAuM+RKDA63lZ16ihqyFEIHY5LZqUTBWdw5gR4G3XlnQa+R95ZCXUFAU1wsAYBUwhE2EI5Q0BzXVaT7ZHR8ePhyPj4RDpN/1CW//FfgXY6nR4fnzgejmS1eDQ2/FFsLD7hJD8Wnxj+KObDQZshoP/rFxL+7OfPLF++fPHixZtbWl7tPeJEEE8kX+09srmlZfHixcuXLxfmfc57bJVs5A76yn/4h8997nNvHH2rSnILPA1MwWHKsxB5ggCm4HA+/6kq+HY+EYdNQNPUz2pn57EqRA0IWQVEZqUTheBQkDEimKPQpIG64jB1vqHyseAMzpwAb8uVI0drrK4goKm7sQYBUwhE2EI5Q0AH7qCq7YTDp8+Mj0/wp1g1tMfHJ2hQdl77TAzH4llPXSzPogX05paWAH8aQ6GiMn7o4UdWrlxpWdalS5euXbv25o0bN7e03Lxx49q1ay9dutSyrJUrVz708CNFnbPadlYOurbtM0ZAm/IgRJ4ggBHQef8eQIVhC6mJOLiAVlM/q53zHquiNfYCXFDn4X5518u1oRMFZ3DmBHgbdeWdBr5H3lmhrryzKlFdQUBTEWINAqYQiLCFcoaArjZZF3g+x8ORKhn7zJ9Z6XSaZt6Q79dHfRYnoBtDocB/5FvKGz3S1//Qw49s2HDT1666qjEU+tpVV23YcNNDDz9ypK8/7/7GbSQHXcNjn6lHMALalGch8gQBjIDmj2RqU1XYtquJOJSA5lM/q53zHquiJXoRhQjmhKmNkeaKiVyTOlHUs4Jc8DsIzt5Zoa68s0JdeWdVY3UFAU3FjzUImEIgwhbK2YfgM8591XnCg0Mn+UOqeto0GzXvnU25hW/xUZ9FCGh+JbRLTaDm7TNGQJvyIESeIIAR0Hn/KkCF4QzRRBwkoG1TP6ud3Y5VO0CMKhQyK51ojYmGgnIT96uKqiAr1JV3Vqgr76xQV95Zoa68sxLqCgKa4GANAqYQiLCFcvYh+ErtqXD+YAmYIqA3bdo0kFs2bdqkCPioTwjopMKHRpkJYAS0Kc9C5AkCfAR0zGWJ5haXYEwnGovFhoaGSnFmOSt/1/34449jf/7kzROxN07Ehj/+5M9//rMz81Jcl64in1mO+rtfXBf9i7qy1YBBf17h+2vru1iswNMKf05yYvJ3XycKzvqcM5kMBDT+Ag8CZhFg/jlCmfsQfL6UTri7tdl9ae0empVmvTubt/ctFGh9O5p39vm66MLzJOr0YykFdP82K7dcu+cM/7+abu3hPeusbf1zUT4CWtlnm4P2UZ8Q0HVa6NXwZwQEtFlPRGRbzwS4gJ57Ktn/S3zsW+c+60SNGwmVzmTGP02NTKbcfpmxTMO4+9UcT4r7nfuWZP8r14ZOFJzBmRPgbdSVdxr4HnlnhbryzqpEdQUBTUWINQiYQiDCFsrZh+Dz5XnC3a3zljk+tLeVOeXenfMhm4Du3dnc3Lyjdyg8WK/62BftBQayZAL6zJ5rrXXPZs1z//2Wdb8Sy/zRtLDtIqBp5g3nmqY0KJYABPSC7i8WH/bXIQABbcqzEHmCAAT0wudz9hNVhXM7bTmfmk5NT7tF5WNL9CJaMGdcl/eX3Ec6UXAGZ06At1FX3mnge+SdFerKO6saqysIaCp+rEHAFAIRtlDO5RXQznHQWfWcX0D37Whubm7tDuvoIBxLDpc/pIJr92+z1u0Zzp3vtW0WG9qc3ZRzzXueXZcbIE27zQ2XtrZRDnwEtFtP+ajPahfQnbu73O4W200nAAFtyrMQeYIABLTzbwNUFc7ttEUnWmMvwBDfziLBHN+Kic43RT4W3yMFueB3UCYpR8EZnDkB3pYrR46irgIhCQFNZYY1CJhCIMIWytmH4PPliIoaAZ3z1GyItK8rYhjoLIFSjYDmw5mz7TkZTU+X7JbZYdFnnl1n0Rwd/JBMpn4F9Jo1a4/+8e2KlPWp0x91PfX0Aw/+eHNLyzXXXtsYCl1zzbU/3Lz5/932QOfuro/OxCqSVc1cFALalGch8gQBCGj+Kkhtqgrndv0oXrw5VXAOigbqKiiSck2CMzhzArwtV44cRV0FRbKuOENAU3djDQKmEIiwhXIuq4Duzg5qti+te7vdp+CoGTFVwRsplYDmo57zC2ilpOfGSucT0KShhXWx6AwYAb1kyZILLrjgoYcfKfbedPZ/4idPfutb37Ysa9GiRZ///OcbGxu/e801P9y8OauhGxv/5m/+5sILL7Qs61vf+vbjHU/oXKiej4WANuVZiDxBAAKav/pSm6rCuV0/CtHAqYJzUDRQV0GRlGsSnMGZE+BtuXLkKOoqKJJ1xRkCmrobaxAwhUCELZRzWQX03G8atBkqmoIjN92z3U7zz/ZfTohZob0RKJWA5jY5v4BWv29QEtC2YrB99FGfZgjoe+6917Ks8gyF/sObR1evXn3hhRdevW7dU0//dGR0zEaZPn78ycjurqeuXrfuoosuWr36ij+8eTTvbtgoEICANuVZiDxBAAKav/pSm6rCuV0/CtHAqYJzUDRQV0GRlGsSnMGZE+BtuXLkKOoqKJJ1xRkCmrobaxAwhUCELZSzD8En6Bf30NwUHLmZnee1cuvewUT+OaAHu1thnN15FjHBSKkEdGZOK2cyGT4amp6mXEmrNnfW9TwFx5IlS+KJ5O8PHf4fq1eXeih011NPL168+KtXXvnOu8c81tM77x77+69+9bOLFz/19E89HoLdiAAEtCnPQuQJAhDQ/NWX2lQVzu36UYgGThWcg6KBugqKpFyT4AzOnABvy5UjR1FXQZGsK84Q0NTdWIOAKQQibKGcyyigd/QmkvG+Hc1qcuehva3uAjqe6NvenDvE2zhfGDA3AiUT0Gf2XGute/ZMJpPpv392uuf5J2nWNc9GzZgD+sYbNzSGQv5+brxxgxt95/bO3V0koClU0qHQn5wdvXTp0h/88IfONApu+eHmzZcuXeo2XLrg4YHvsKujw1/vFDxqV0dHUNlCQJvyLESeIAABPf/AnmtRVcx9sv9XJwrRwGnqkJSPBWdw5gR4W64cOYq6CookOHOSqCtOQ64NnWiNcYaApmLAGgRMIRBhC+VcLgHdtz3nmrMCmi+SgE7Gh/a2wkFr+/eSCeised5m5Rb6HYP8OZob7LztfgrzuTgsy9pGO6pfQrjJZYknkj7q088UHH9486hlWZtbWvz9WJblfcIKm4DmQ6EffuRfgjKhdJ5f/2afZVknTw37OO3JU8OWZf36N/t8HFuKQ7a2tTU0LNva1hbsD50zqIQhoE15FiJPEOAC2o3GudxSimgqlYpGo6U4s5wzrsuZy6x0ouAMzpwAb6OuvNPA98g7K9SVd1aoK++sqq2uMpkMBDTvPrRBoPoJMP8coWx9CD4frmawu7W1O5w9kI+AnlOrNAc0nbZ3Z/P2vuRgd2vzrHru297cPD9oeu4QHznU7SGlFNBcOS9sL5xtY2Fs9pMS0PFEctOmTQNs2bRpE/WXj/r0I6BvvHHDF7/0Jd8l8sUvfekf//FGj4c7BTQdePc99wQ+K/T/99DDlmX17D/gMTe+27GBAcuydH5T4q6Ojqam9Q0NyxoaljWGQk1N63d1dBwbGOBX8d7e2tbWGAp539/jno2h0Na2No87F9wNArr6n4LIEASIAAS0sxJ0XjXlY/HCz2nLrHSi4AzOnABvo66808D3yDsr1JV3Vqgr76zc6goCmjNEGwSMIBBhCyXsQ/AVlDDOHbhino9mBzjnFhocnZXL4ax5bm6etdVKN+fGTWNK6Hl0ioyHhhECmjtoZZ/LNAKahj93PfW0P77xRLLrqae9D4J2E9ClGArdubvrM5/5TFPTeh+31hgKfeYzn9nd9ZSPY48NDDSGQpZlkXSmMcuNoRCZaBLiuzo6dnV0bG1r69l/wIuVhoA24hmDJEHAFAJcQOf9f6SZTIbupRTRGvsnsQVZ4X55FaGugqKBugqKpFyT4AzOnABvy5UjR1FXQZGsK84YAU3djTUImEIgwhbKuTwC2ofCwiFBETgejqTTaf6Mq4Z2Op0+Ho7Yyo+m4uA3btuBh9zaRY+A1hz+THl4HwQtCGg61exQ6LVrj/7xbbeb9Lh9d9dTixcvtiyroWGZF8lLpyV93NCwbPHixf4ENLlm5xWPDQzQmGiamoUSo/bWtjbn/vw2IaBNecwgTxAwggAEtPOvAtRxzu20RScK0cCp6pCUjwVncOYEeFuuHDmKugqKJDhzkqgrTkOuDZ1ojXGGgKZiwBoETCEQYQvl7EPwcSmEdvUTGD59Znx8gj/jqqE9Pj4xfPrM8XBkLD7hxnAsPnE8HHGLum0vTkDrD3+mPGgQ9OtvvOmWltpeUEAHOBR6d9dTS5YsOTYwQPNg0HhklYmz0bP/wNa2NiWslyxZ4l1A9+w/oCbckOf96Nl/gM/FwQ8UHDQEtCmPGeQJAkYQgIB2/lWAOs65nbboRGvsBRgjvp1FEovFnBv1K0euOtQVZy6z0omCMzhzAryNuvJOA98j76yEuoKAJjhYg4ApBCJsoZwhoJ0Wrsa2jIyOHw9HxscnqmQcdDqdHh/PmuWR0fHhaGz4o1heBz0Wnxj+KDYcjRXbHcUJ6Ozw5y/6n/2ZJ/fFL3qaCdqLgKbTqqHQb739Dr+Q9zYJ6HgieWxggGZkJrmsJmVualrf1LSeBizTSGQ+J7J3Ab2ro4MOb2paT7NqeE+S9iRLLkzHDAFtymMGeYKAEQQgoPmrILWp45zb9aN48eZUwTkoGqiroEjKNQnO4MwJ8LZcOXIUdRUUybriDAFN3Y01CJhCIMIWyhkCulhRZuL+WdWbG25Mv/evsuvj4cjw6TMjo+NEcjgao7k4bFlldyvePscTySIE9OtvvPlfQlZn9mdeDR4HQXsX0DQUevXqKy644IKHH/kXfi2PbSWg1f5koklGk3omZby1rW1XR4fajRoeBTT9ukL93xBIg69tOaiPENCmPGaQJwgYQQACmr/6Ups6zrldPwrRwKmCc1A0UFdBkZRrEpzBmRPgbbly5CjqKiiSdcUZApq6G2sQMIVAhC2UMwS0Elxo1AaBIgT0P/7jjUENfyZ2XgZBFyWg6bS+h0I7BXRRfexNMiBAAAAgAElEQVRRQG9ta2toWFbUmfPuvKujQzgPBLQpjxnkCQJGEICA5q++1KaOc27Xj0I0cKrgHBQN1FVQJOWaBGdw5gR4W64cOYq6CopkXXGGgKbuxhoETCEQYQvlDAGdV4Vho7kEvAroYIc/Ey8vg6B9CGjfQ6HLI6Bp6mdh+maPxdQYCgnDqCGgTXnMIE8QMIIABDR/9aU2dZxzu34UooFTBeegaKCugiIp1yQ4gzMnwNty5chR1FVQJOuKMwQ0dTfWIGAKgQhbKGcIaI9yDLuZQsCrgM7O/vylYGZ/5mi++KUv3XjjBr7F1vYnoOkks0Oh16w9+se3bafN+7E8Apqmb24MhfivFsybj7CR5t/AHNCmPEuQJwiYTgACmr/6Upv61LldPwrRwKmCc1A0UFdBkZRrEpzBmRPgbbly5CjqKiiSdcUZApq6G2sQMIVAhC2UMwS04MQQMpGAVwGNEdAFe9fjFBzxRLJn/wH1Owx9D4XOTeXR4OagMQLalMcM8gQBIwhwAe2W8LncUopoKpWKRqOlOLOcM67LmcusdKLgDM6cAG+jrrzTwPfIOyvUlXdWqCvvrKqtrjKZDAQ07z60QaD6CTD/HKFsIaALWjjsYBYBrwI6nkhiDmi5a70LaBq/3LP/gHzCgtFdHR2WZeVV2BDQ1f+AQYYgYBABCGhnZ+m8asrH4oWf05ZZ6UTBGZw5Ad5GXXmnge+Rd1aoK++sUFfeWbnVFQQ0Z4g2CBhBIK+AHhw6iR8QqBkCRQjoYAdBe5kAOp5IFjUFx+8PHV69+ooLLrjg4Uf+paC9de5Qnik44olkYyjU1LTemYCPLQ0Ny/KKbAhoI54xSBIETCHABXTGZaF7cQlmdKL4p8ecqg5J+VhwBmdOgLflypGjqKugSIIzJ4m64jTk2tCJgrPRnDECmoofaxAwhUCELZQzRkD7UGQ4pJoJFCGggx0E/cUvFpj9mah5F9D33HuvZVlr1q596+13/BEvm4CmEdB5Ry4XlXngI6CPDQzs6uigX5NoWVZDw7LGUGhrW5ty3PSxqCSFnQeHTpryMECeIFDnBCCg+SsotakknNv1o3jh51TBOSgaqKugSMo1Cc7gzAnwtlw5chR1FRTJuuIMAU3djTUImEIgwhbKGQJasEkImUigOAEd1CBoGv78hzePFkTmRUD//tDh/7F6te+BzyqHsgnoeCLZ0LCsoWHZro4Ouvqujg4leVU+eRvKETeGQpZlNYZCeXfzMQK6qWk9zUzd1LR+a1vbro4OOkljKEQmumf/AQhoU55eyBMEgiUAAc1ffalNhJ3b9aMQDZwqOAdFA3UVFEm5JsEZnDkB3pYrR46iroIiWVecIaCpu7EGAVMIRNhCOUNA55Vd2GgugeIE9Owg6C99SfOGv/glT8OfvUzBoQY+H/3j25pZlVNAHxsYaGhYRqOMSftalqV8tNuN8N9e2NS0Xti/KAFNI7LdZvOg35qo9LTbrz10y1nYjhHQpjwLkScIQEDzV19qU1U4t+tHIRo4VXAOigbqKiiSck2CMzhzArwtV44cRV0FRbKuOENAU3djDQKmEIiwhXKGgBZsEkImEihaQP/hzaP/pU27nnra9916H/4sC+igBj6rG9EX0J27u9TZvDR69h/Y1dGxq6Pj2MAAGd6tbW1uU3OQJnYb8my73K6ODhq27HY22p8m8fDivklDYwS0KU8v5AkCwRKAgOavvtQmws7t+lGIBk4VnIOigboKiqRck+AMzpwAb8uVI0dRV0GRrCvOENDU3ViDgCkEImyhnCGgbZoLH00nULSA1h8E7X34syCgZwc+r1mrP/BZdWH5BbS6NDW2trWpYdGkepua1tMMGDRKuqjRxzRjBk3T0bP/wLGBASWjyXrTtYo6ZzyRVCexJe/jI0ZAm/IsRJ4gAAHNX32pTVXh3K4fhWjgVME5KBqoq6BIyjUJzuDMCfC2XDlyFHUVFMm64gwBTd2NNQiYQiDCFsoZAtqHZcIh1UzAj4CmQdCbW1r8/ViW5WX2Z6LmnAM68IHPqnt+s+/fLcs6eWpYbfHeOHlq2LKsX/9mn/dD3Pbs2X9ATb7cGAo1Na2XZ9twOw9tJw1Nrtk240dT0/oAbbKcRt4oBLQpz0LkCQIQ0PzVl9pUFc7t+lGIBk4VnIOigboKiqRck+AMzpwAb8uVI0dRV0GRrCvOENDU3ViDgCkEImyhnCGg83qkGts4Mjo+fPrM8XBkcOhkxX+OhyPDp8+MjI4T5OFoLG9i2d2iMR8d4UdAxxPJG2/c0BgK+fu58cYN3hO1CehSDHxWyYyMjl166aU/+OEP1RbvjR/88IeXLl36ydlR74eUec+e/Qf4jB9lvnrey0FAm/IsRJ4gAAHNX32pTVXh3K4fhWjgVME5KBqoq6BIyjUJzuDMCfC2XDlyFHUVFMm64gwBTd2NNQiYQiDCFsoZAjqvR6qljSOj48fDkfHxiXQ6zZ90lWqn0+nx8Ynj4UhWi0djwx/FxuITTuBj8Ynhj2I+HLRPAe3MoERblIBWA58feviREl0rnkh2PfX0okWLvnrllf957JjHq7zz7rGvXnnl4sWLdebF9nitGtsNAtqUZyHyBAEuoN1onMstpYimUqloNFqKM8s547qcucxKJwrO4MwJ8DbqyjsNfI+8s0JdeWeFuvLOqtrqKpPJQEDz7kMbBKqfAPPPEcoWArrGDJjzdoZPnxkfn6iUbna77vj4BA3Kzmuf6S7G4llP7bwjeYsZArqkA59tgF5/483Vq1dfeOGFV69b99TTPx0ZHbPtQB9HRseeevqnV69bd+GFF65evdr7pCJ5z1afGyGgq/8piAxBgAhAQDsrQedVUz4WL/yctsxKJwrO4MwJ8DbqyjsNfI+8s0JdeWeFuvLOyq2uIKA5Q7RBwAgCENB1qMWOhyNVMvaZy+h0Ok0zb8g94uN/kJghoC+44IKSDnx2Yn2844lvfvNblmUtWrTo85//fGNj6Jprr/3h5s3fveaaxsbQ5z//+UWLFlmW9a1vffuJnzzpPBxbvBCAgDbiQYgkQSCVSnEBzR9OvE2g+Bbe1oninx4HRVLuBXAGZ06At+XKkaOoq6BIgjMnibriNOTa0ImCs9GcMQKaih9rEDCFQIQtlLMPwefFw2Cf6iEwOHSSP2iqp02zUXNQm3IL3+KjPg0Q0GvWrD36x7f5fZatPfxRdHfXU9seeHBzS8s1117bGMpq6M0tLQ88+OOup54+dfqjsmVSkxeCgDblWYg8QQAC2vm3AaoK53baohPFCz+nqkNSPhacwZkT4G25cuQo6iookuDMSaKuOA25NnSiNcYZApqKAWsQMIVAhC2Uc3GCr29Hs7i0dofjib7tza3dQ8lcw7F3697BRDLOz9O6d3Bob+vCHbf3JW16arA7u0vu/PaQbU98tBEwRUBv2rRpILds2rRJ3UJx9ZnI1oYBAlrdHho1RgAC2pRnIfIEAQho/upLbaoK53b9aI29AGcyGZkV7pdXkcxKJwrO4MwJ8DbqyjsNfI+8s0JdeWdVorqCgKYixBoETCEQYQvl7EPwzSmjvu1Za0yumUnhWbm8ozdnA7M7Z7cs3C23z/a+ZO/O5uY5AT0rnedC+f0199Q7++YyYVdXF0VjjoA/AX3m2XXW/f3zT5nhPeus3MI29t9Pm9btGZ7fcbb12rZcbD7Uf7+17bUFu/ER0Mo+2xy0j/qsdgGNqq1hAhDQpjwLkScIQEAveCDnPlBVOLfTFp1oiV5EIYKdnRWLxZwb9XtQ7n30L2cus9KJgjM4cwK8jbryTgPfI++sqrCuIKCpU7AGAVMIRNhCOfsQfKSPaEhyVh/Pic55rdS3o3nn3sHu/MOls6J5zjIXFNBzQ6rnxz7nrsvstvPq2LKQgA8BnbXPlsUEdP82i/TxmT3XWuuePZPJZLL7XLsn28q65m3MVWeDe67NqefXts2eZHjPOtqZPfOUgKaZN5zreCLpoz4hoPE/ZCpGAALalGch8gQBCGj2OJ5tUlU4t9MWnShe+DlVHZLyseAMzpwAb8uVI0dRV0GRBGdOEnXFaci1oROtMc4Q0FQMWIOAKQQibKGcfQi+nGim4c/zXnjePnP7mZtbY/vO7Ajo7Ttb5211PgHNBzfnRkNnL9HaapucY34vTMeRnznnn2sXK6Cz45qv3dPPR0Bnhz/PKmblnfvvnzXRmYzS0+pB2r+N9p/zzs7hz5lMRglo4UZ81CcEdMX0q9CRdRKCgDblWYg8QQACWj2xVYOqQn20NXSiNfYCjJHXttpA/3IgOt8U+VhwBmdOgLflypGjqKugSIIzJ1miuoKApjLDGgRMIRBhC+XsQ/DFE+HchMw5F9y6d7Bvx7xZTuRm1cjOzLFjO03aPMSm4KC5nnf25Z0DOu8UHBgBrS/uihXQ9OxYMAXHa9tmBzvPj3fODoWem1Jjflj03HNn4Qjo4T3r2MQdc/tAQDv+X4F+Z+MMlSUAAW3KsxB5ggAEtHoYqwZVhfpoa+hES/QiChFs6yNw5kB0KlY+FpzBmRPgbbly5CjqKiiS4MxJ1lhdQUBTeWMNAqYQiLCFci5eQM/a59buvnkNnXXR87M8z06skUjOTtOhRi2r+TryjYCWBbQ6R66BKTiKGOSqL6DVqOfs42x2wg0+6tkpoGk3Kzc1B8no7D4Lp/WYFdA0DlpYF2sUixgB3RgKOX8uX7Xq8lWrnNu9byk2Y+xfMwQgoE15FiJPEICAtr2gFpS5VDPOo2iLHK2xF+CCrHC/vE7k2tCJgjM4cwK8jbryTgPfI++sUFfeWZWoriCgqQixBgFTCETYQjkXKaBn7XNOFufaOac8L5pzvxhQCeg4DYjOblSDpnPu2Cagcx+5Yp6fgqM7XDNuqlI3oi+gs9JZzeA8K6DlEdDs6UTTQM9OBj03MjoXr/wUHI2h0OaWFtvPRRddtGbNGttG7x8bQ6FK9TSuW3ECENCmPAuRJwhAQLMH9WyTqsK5nbboREv0IgoR7Ows/BJCxUSnYuVjUc8KcsHvoExSjoIzOHMCvC1XjhxFXQVFsiKcIaAJO9YgYAqBCFso56IEdNYsz490nhfQWe2TnV5jdmDyvIDOmuX5kdHz+ywU0L3ZodRzg5rnQrmdm7d3780/CXTOdFdcNxmRQAACuug5oNWTbdY4n3l2Hf3qQj4ZdLUIaFsvLlmypHN3l22jx4+bW1ogoD2yKuduuzo6tra1NTWt39rW1rP/wLGBgRJdHQLalGch8gQBLqBjLks0t7gEYzrRWCw2NDRUijPLWeG6nLnMSicKzuDMCfA26so7DXyPvLNCXXlnhbryzqra6iqTyUBA4y/wIGAWAeafI5R5UQJ6obRZKKDZfLYkoHNaec4+0+zPzc3NJI75kGeaLdoxO0dunmg6nEZPk6Hm7SKmoViYeX0dGICAnv81g/OzbczPyzE7JlpJZ9aYHficm5EjOw10VY6AthUHBLQNiNEfe/YfaGhYZllWYyjU1LS+MRSij1vb2kqhoSGgzXoiItt6JsAFNHtqLWgSnwWb2AedKEZgMZAZHZLyseAMzpwAb8uVI0dRV0GRBGdOEnXFaci1oRMFZ6M5Q0BT8WMNAqYQiLCFcg5eQM/J5dzvD3RRvWqYc4J+RWGz2jk3m0dr95BNNPdtb1bLnNRmyttoRVbq5IMQ0JlMdhC0fRLn/vtp07o9w/xRptr92ywVmp0DmsZB0x5qBPQmlyWeSPqoz+LmgN7c0mLrgFII6M0tLf/nf//v3meRFvbc+L3v2RK2fSTNKpzBe2hrW5vt5GZ93NrWZllWU9N6m2ve1dHR0LCsMRSybde/OwhoU56FyBMEIKDVs1o1qCrUR1tDJ4oXfg5Th6R8LDiDMyfA23LlyFHUVVAkwZmTRF1xGnJt6ERrjDMENBUD1iBgCoEIWyhnH4JvztLkHwHdu7NZzeCsnPGCxsLZMwaH+rpbs6Ob5yeSptHQQ3tbd+6Y885zE3TMCevsCReeZy4rF+Vdx7ban4Dmz8QStZWAjieSmzZtGmDLpk2bqEN91Gc1CugNN920aNGiv/u7v/unW27R/LEsS3bQuzo6yLpubWvT+WlqWm9ZVuCK1vcXtdhMGkMhy7J69h/Ie8VjAwMNDcsaGpYVe9q8Z1MbIaBNeRYiTxCAgHY+2qkqnNtpi060xl6AC857i/vlVaRTOfKx4AzOnABvy5UjR1FXQZEEZ04SdcVpyLUhRCGgCQ7WIGAKgQhbKGcfgk/JFjSMIGCEgOYOWtnnmhoBvWLFir/+67/+n3fe+dGZmM7PUz/9aUEH3dCwbOvWAAYvZ89TzCDozt1dOj/y14mmb5b3UVHZPqvdAnfQENCmPAuRJwhAQPNXQWpTVTi360fx4s2pgnNQNFBXQZGUaxKcwZkT4G25cuQo6iooknXFGQKauhtrEDCFQIQtlDMEtJJRtdo4Ho6k02n+jKuGdjqdPh6O2MqPpuLgHWHbgYfc2kWMgL581aqLLrpoycLlr/7qrz772c8u3Ob100UXXXT5qlXOzDa3tKxatepnP3+mPA6aBkHrj+0t9jwrVqzwSsqx34oVK5zc+BaaT8PLTdHYbbexz/yc8USyWMluO9z2EQLalGch8gQBCGjnXwWoKpzbaYtOFKKBU9UhKR8LzuDMCfC2XDlyFHUVFElw5iRRV5yGXBs60RrjDAFNxYA1CJhCIMIWytmH4LMpF3yscgLDp8+Mj0/wZ1w1tMfHJ4ZPnzkejozFJ9wAjsUnjocjblG37cUJ6DVr1tgG7X72s5/93qZNto0eP65Zs0YQ0O8PHi+bgy7/IOjDr/ZalnXo8KtuHSNsP3T4VcuyDr/aK+xDArrgrCBF2ed4ItkYChU1ylvIkEbsm/IwQJ4gUOcEIKCdfxWgknBupy060Rp7AcYUHM4iicVizo36lSNXHeqKM5dZ6UTBGZw5Ad5GXXmnge+Rd1ZCXUFAExysQcAUAhG2UM4Q0LJQqoHoyOj48XBkfHyiSsZBp9Pp8fGsWR4ZHR+OxoY/iuV10GPxieGPYsPRWLFdUISAbgyFyvZLCFetWvX+4HHloOnXN+qv/7l1a15AxQ5eznuSeCLp/Tx33rXlsssucztPwe0rVqy4864twm5b29oaQyHyy7s6OvLu6XHmDX4sBLQpTy/kCQLBEoCA5q+C1CbCzu36Ubx4c6rgHBQN1FVQJOWaBGdw5gR4W64cOYq6CopkXXGGgKbuxhoETCEQYQvlDAHNZVSttrOqNzfcmH7vX2XXx8OR4dNnRkbHifZwNEZzcdiyyu5WvH2OJ5LVLqDfHzy+atVXmprW7+ro0Pz5P/72b50CXRVxmQdBX3bZZbJBVonlbRT01ySg44nk1ra2hoZljaHQro6OYwMDxwYGevYfIDHd0LDM48wbKgcIaFOeXsgTBIIlAAHNX32pTYSd2/WjEA2cKjgHRQN1FRRJuSbBGZw5Ad6WK0eOoq6CIllXnCGgqbuxBgFTCETYQjlDQCsThUZtEDBDQAcy7UPeEdyqF70PXlaH5G14OY/O/Bt0UTqDMAuHEtDxRJKMc0PDMjWEvKFhmduw6Lw3pTZCQJvy9EKeIBAsAS6g3c58LreUIppKpaLRaCnOLOeM63LmMiudKDiDMyfA26gr7zTwPfLOCnXlnRXqyjuraqurTCYDAc27D20QqH4CzD9HKFsIaGWi0KgNAhDQSdWRZRsEXXD8skpJaMhjqLmAVifp2X+gZ/8BL7+ZUB1ia0BAV/9zCxmCQCkIQEA7qeq8asrH4oWf05ZZ6UTBGZw5Ad5GXXmnge+Rd1aoK++sUFfeWbnVFQQ0Z4g2CBhBAALaZp/wsfYIQEDPC2gvg5e9VEDB88ju2Msl4omkbLHzCmiPZxZ2g4A24tGFJEEgcAJcQGdcFrqoSzCjE8U/PeZUdUjKx4IzOHMCvC1XjhxFXQVFEpw5SdQVpyHXhk4UnI3mjBHQVPxYg4ApBCJsoZwxAlpwUwiZSAACel5AZ6fEtix/c1PY+l44T8HZM2yncvsonwcC2pTHDPIEASMIQEDzV1BqU8c5t+tH8cLPqYJzUDRQV0GRlGsSnMGZE+BtuXLkKOoqKJJ1xRkCmrobaxAwhUCELZQzBLSbDcN2QwlAQM8L6J79ByzL0pmhgopAPo88crmoMhJGUkNAm/KYQZ4gYAQBCGj+6ktt6jjndv0oRAOnCs5B0UBdBUVSrklwBmdOgLflypGjqKugSNYVZwho6m6sQcAUAhG2UM4Q0EX5Mexc/QQgoOcFdHYO6LY2/T6TzyNY42IvLbhsfQFNs0XbdDym4DDl6YU8QSBYAhDQ/NWX2kTYuV0/CtHAqYJzUDRQV0GRlGsSnMGZE+BtuXLkKOoqKJJ1xRkCmrobaxAwhUCELZQzBHSxigz7VzkBCOhZAS0PW/bei/J55HkzvF+F9hTO5ltA7+roaGhYZrGlqWm90tAQ0KY8vZAnCARLAAKav/pSmwg7t+tHIRo4VXAOigbqKiiSck2CMzhzArwtV44cRV0FRbKuOENAU3djDQKmEIiwhXIeHDqJHxCoJQIQ0LMCWh627F0Ny+cRxix7vwTf0208tQ8B3bP/QGMoZFkWGedjAwM9+w8oH01TY0NAm/L0Qp4gECwBCGj+6kttIuzcrh+FaOBUwTkoGqiroEjKNQnO4MwJ8LZcOXIUdRUUybriDAFN3Y01CJhCIMIWyhkjoLn7QrsGCFSjgP7n1q2WZT3+xBPvDx5/f/D4qlVfCWRmjMZQaHNLS94+k4ct5z0k78aC53HzxXnP5mWjm9EuVkBT5o2hUN6Lbm1ry4r1rbl1ELOU0FUGh06a8jBAniBQ5wQgoPmrL7WpJJzb9aMQDZwqOAdFA3UVFEm5JsEZnDkB3pYrR46iroIiWVecIaCpu7EGAVMIRNhCOUNA59VT2GgugWoU0PFEcuP3vqccdBkEtDxs2Xvvyuc5dPhVy7IOv9rr/YQF96RZOA4dftW2Z1ECmuxzU9N620n4x579B2hqjkD+ZwCdGQLalGch8gQBCGj+6kttqgrndv0oRAOnCs5B0UBdBUVSrklwBmdOgLflypGjqKugSNYVZwho6m6sQcAUAhG2UM4Q0FxJoV0DBKpUQHMHXWoBXXDYssduLnieO+/asqQ0y513bbElSWOW1dzNtij/6MU+0/7koCGgTXmAIU8QCJAAF9Bupz2XW0oRTaVS0Wi0FGeWc8Z1OXOZlU4UnMGZE+Bt1JV3GvgeeWeFuvLOCnXlnVW11VUmk4GA5t2HNghUPwHmnyOULQQ0N1do1wCB6hXQykH/7X/7b4FIT7cpOORhy977uOB5Ond3le7HluexgYGGhmX89wfadqCPZJ/dZt5wHrK1rY0mg3aGfGzBCOjqfwoiQxAgAhDQzkrQedWUj8ULP6cts9KJgjM4cwK8jbryTgPfI++sUFfeWaGuvLNyqysIaM4QbRAwggAEtA+nhEPMIlDVAlo56FWrVm1uadH8ySug1fjfrW1tmj+WZXkZcVy2+iAH3RgKuWVVrH2mzN3O5uO+IKCNeBAiSRBIpVJcQGdcFgLlEszoRPFPjzlVHZLyseAMzpwAb8uVI0dRV0GRBGdOEnXFaci1oRMFZ6M5YwQ0FT/WIGAKgQhbKGeMgPZhmXBINROodgEdTySvv+GGv/vylxtDIf0f5y8hbGpar39aOkOAQ4ODqhhy0A0Ny3Z1dHBxfGxgoKlpvWVZgQwt950tBLQpz0LkCQIQ0PwVlNpUFc7t+lG88HOq4BwUDdRVUCTlmgRncOYEeFuuHDmKugqKZF1xhoCm7sYaBEwhEGEL5QwB7ds14cDqJGCAgK5OcAZl1dS0nn5/YGMoxNs9+w9U9i4goE15FiJPEICA5q++1KaqcG7Xj0I0cKrgHBQN1FVQJOWaBGdw5gR4W64cOYq6CopkXXGGgKbuxhoETCEQYQvlDAFdWWGFqwdOAAI6GTjT6jxhz/4DW9vamprWb21rq7h6JkQQ0KY8C5EnCEBA81dfalNVOLfrRyEaOFVwDooG6iooknJNgjM4cwK8LVeOHEVdBUWyrjhDQFN3Yw0CphCIsIVyhoCuTreGrHwTKFpA2yZivuiii9asWWPb6P2j919/5/sOcWDVEoCANuVZiDxBAAKav/pSm6rCuV0/CtHAqYJzUDRQV0GRlGsSnMGZE+BtuXLkKOoqKJJ1xRkCmrobaxAwhUCELZQzBHTVuiwk5o9AcQLaOV3y5atWXb5qlXO79y3+8sZRNUAAAtqUZyHyBAEIaP7qS22qCud2/ShEA6cKzkHRQF0FRVKuSXAGZ06At+XKkaOoq6BI1hVnCGjqbqxBwBQCEbZQzhDQNWC9cAucQBECmh+GNgjoE4CANuVZiDxBAAKav/pSm6rCuV0/CtHAqYJzUDRQV0GRlGsSnMGZE+BtuXLkKOoqKJJ1xRkCmrobaxAwhUCELZQzBLS+dMIZqooABHS9zAFdVWVHyUBAm/IsRJ4gAAHNX32pTVXh3K4fhWjgVME5KBqoq6BIyjUJzuDMCfC2XDlyFHUVFMm64gwBTd2NNQiYQiDCFsrZh4Ae+vBEe3v7Fvelvb196MMTVWiHqiclMCxdX0BAQ0BXjAAEtCnPQuQJAlxAu9E4l1tKEU2lUtFotBRnlnPGdTlzmZVOFJzBmRPgbdSVdxr4Hnlnhbryzgp15Z1VtdVVJpOBgObdhzYIVD8B5p8jlK0PAd3e3t7f38//p52t3d/f397enscw9u1oFpftfUoc9W3P7rmjN6G21FTDP8M5IIPdrc3Nrd1DWSy8ncNO9NxZ7+zL0ztzZzY9BAFdU18Vs8oRArr6n4LIEASIAAS0sxLO5RbndtqiE8ULP6eqQ1I+FpzBmRPgbbly5CjqKiiS4MxJoq44Dbk2dKK1xBkCmtcM2iBgBIFABPSWLVtsxtn5ccuWLXnEUVZAz62mnmEAACAASURBVDpTe3Rob2tz85yAzutPXQ40U5vqMWwWlx29iRzAnGXO76YhoO31Z2YZ4S6qjQAEtBEPQiQJAqlUigto519iaAuBKkUU//SYUwXnoGigroIiKdckOIMzJ8DbcuXIUdRVUCTBmZOssbrCCGgqb6xBwBQCEbZQzj5GQOvJ06xH7t250KDu7IsrAZ1rZMNKktKW1r2DNSQJ/TOcg8DNMm/njNycgHYMOW/t3psdWq7Yzp2t2jyeTj5+RkBfe911Hn9u/cEPdJITjr31Bz/wmMO1110nnKcKQ28cfevOu7Zcd/31d9615Y2jb+lnuLWtrTEUagyFmprW08+ujo5dHR09+w/on1znDBDQpjwLkScIQEDbXlAzmQxVhXM7bdGJ1tgLcEFWuF9eRTqVIx8LzuDMCfC2XDlyFHUVFElw5iRRV5yGXBtCFAKa4GANAqYQiLCFcq6UgG7tDpPnycpTJqDtbnqhqW6uFQ2tJaAdWplBoklL1BDy1tZW0s3h7Iwd2eHnc266FtUzVZQfAb1kyRIv8nflypWWZW383vd0HGXeYzd+73uWZXnJ4drrrluyZEnek1Tnxid+8qRlWStXrvzuNdcQwCd+8qRmqscGBqzc0tS0nkx0YyhEWyzLamhY1tS0viIyGgLalGch8gQBCGj+Kkhtqgrndv0oXrw5VXAOigbqKiiSck2CMzhzArwtV44cRV0FRbKuOENAU3djDQKmEIiwhXKugIDuy862sXBp7c5tnJ2CIydYqZ3z0SRVcwoVAjqRjDM+3OMxVvOWmQv9HNL5ED+2lto+BXTn7q6CFLa2tV188cWBO2iyz7/45S8LJhBPJDt3dxkkoP/0weAFF1xw513zM/LcedeWCy644E8fDHq5WWGfXR0dDQ3LbJb52MBAz/4DND6aTPTWtrZjAwPCeYINQUCb8ixEniAAAc1ffalNVeHcrh+FaPj/2Xvb2Eiu8863PhgKEMiAN3EUw16T0LWBwC+LZD/4JfEwduIbZ6OE1hUQ+eaGg+so2exLcHezQEbSkJR0E2OTTZzsWtBqxvSMMpvd2EJsS4ClCYeXMzuT2MoolqKXsam2GV7SVs9o2jQ0ZMSQgD7wQ99b/bCLD7u6n67iOf1y+vwKg9LhebqrTv/qT5XqpzOnNVU4+6JBrnyRtDMJZzhrArptJ8eukitfJKPijICWy80eAqEQqKpNxjwgAZ0uxJHOfT7++Eq6wkYbAX3QUDd/QkA3BXSTSMs/W2ZAp1Wl8psvZgmOFu148803FxTQb3/72//bf//vHh10KfscnID+9B//yVve8pYW2m95y1s+/cd/0tJ5iB+PTEyMjY13euNSpTI9MzM2Nj42Nj49M9PpZX77EdCh3AsZJwQQ0PrRV9qSiny/exXRoKnC2RcNcuWLpJ1JOMNZE9BtOzl2lVz5IhkVZwS0XG72EAiFQFVtMubBCWhZFOLBpzoIaKVNmQG9c8CSHWoGdHPNE2ZAt1t8pJSAvv69dV8Ouqx9LiKgT87NZatS+G2cnJs7EMR2JFte8DvH7n7/+z/Q0vn+93/gd47d3dJ5iB9lIY6WSdAtxxENLbOh+zAVGgEdyr2QcUIAAa0ffaUtqcj3u1cRDZoqnH3RIFe+SNqZhDOcNQHdtpNjV8mVL5JRcUZAy+VmD4FQCFTVJmMegIBe3dna3tOgjW/Puyt1o41vGhTpLJ3NyboH/8kM6OIzoNU0572FONIeBHQ7bVpWQHtx0Iewz0UEtEz7nZ6Z8fvncPOI5z536qabbqpeeyXzwtVrr9x0001znzuV9bg0pqaOGpOgsyMvVSoyFbrXDhoBHcq9kHFCAAGtH32lLanI97tXEQ2aKpx90SBXvkjamYQznDUB3baTY1fJlS+SUXFGQMvlZg+BUAhU1SZjHoCAfuzBbF2IhiBKp0Iff+jB43uLRTRnRjc8oVrXmDWgD86DbvBpyPp0PZNMtTUae5Y5WwC6Of15X/0ffH3L28P+sbdrQL/97W+//r11+eMyD/pw9rmggD4yMeH9Ah+ZmDjcQhbvfOc7b/vFX3qp8q2t7Z2XKt+67Rd/6Z3vfKev4RWZBC3nWqpU7CU7vAwJAR3KvZBxQgABrR99pS2pyPe7VxENmiqcfdEgV75I2pmEM5w1Ad22k2NXyZUvklFxRkDL5WYPgVAIVNUmY+67gD44o/ngT+kM6Mb6Enc1Z+8qAT1SU3fvuecefdNp277nnv1vbsvkmDU9fA/m8cdWW1k1TXSbUnbkkWn0T0Afeh70oe1ziAL6a0/9zXve+94kSX74h384SZL3vPe9X3vqbzymTZYZKXJAsdWH0+hFjr+1vYOADuVeyDghgIDO/5eHpCLfLz0uVUSDpupC0n4vnOGsCei2nRy7Sq58kYSzJkmuNA07Gy7VEeOMgJYwsIdAKASqapMxH0JAnzhx4umnn9b/zmxpP/300ydOnGhjbFK5nJ+u25hv21yCY2V17amH9l8jAvqxx46LXFUzecOepXt4hgcXkLBmQB+U+wd+avr9Ntfo4PFDfEFvBXSSJL9z7Jj+87/dcUeSJP/7r/xKQVgu9jlEAS1YTn52LkmSk58tvYp0V6rz5xaKrMKxN4y5ubGxcXvZ6K5nNF6AgA7lXsg4IaAF9HqHrdbYOhTXXarr6+urq6u9OLI9Ks6rmdusXKpwhrMmoNvkqjgNfo+KsyJXxVmRq+Kshi1X9XodAc1/wEMgLALKP1dl5IcQ0Kvf+e6JEyfu6bydOHFi9TvfNSwNJRj2LgM9FNCdvt/vx37sx37wB3+w4EcquN50p6M98qdnbr755k7Vre2d6ZmZgS/BsVSpTE0dbfmTJElLz9TUUfdFmYuvwrG1vdPrSdAI6LDuiIw2ZgJaQLf8X/TsR+GT/djScKmO2Iyker1u0+Dz6vDYrFyqcIazJqDb5Ko4DX6PirMiV8VZkavirIxcIaAFDnsIhEKgqjYZ8yEEtOG+KEFg4AR6KKA7fbauUli/MU4BfWRiIkmSIxMTLQ7aXUBvbe/IYTVko13wewuNIxglBHQo90LGCQEEtH4UlLakIt/vXuXBW1OFsy8a5MoXSTuTcIazJqDbdnLsKrnyRTIqzghoudzsIRAKgaraZMwIaMMmUQqRAAJ68DOg87mRqcdedHP+4KUmfc+fW0iSw4Qkf958DwI6lHsh44QAAlo/+kpbUpHvd68iGjRVOPuiQa58kbQzCWc4awK6bSfHrpIrXySj4oyAlsvNHgKhEKiqTcaMgM5LJHqCJnAYt9jrWckaaK/PVcrG6oHZ7SMTEy5f39drAV18GeiejgQBHcq9kHFCAAGtH32lLanI97tXEQ2aKpx90SBXvkjamYQznDUB3baTY1fJlS+SUXFGQMvlZg+BUAhU1SZjRkDb2o1qcAQQ0NHNgD7Z+GrBgkkVAd2j7yFEQIdyL2ScEEBA60dfaUsq8v3uVUSDpgpnXzTIlS+SdibhDGdNQLft5NhVcuWLZFScEdByudlDIBQCVbXJmBHQBbUVLwuFAAI6OgFddlWNJElOzs31ItAI6FDuhYwTAgho/egrbUlFvt+9imjQVOHsiwa58kXSziSc4awJ6LadHLtKrnyRjIozAlouN3sIhEKgqjYZMwK6FxqKYw6QAAI6OgF9cm6u1LLOSZIwAzqUmxbjhECPCCCg9aOvtAV1vt+9imjQVOHsiwa58kXSziSc4awJ6LadHLtKrnyRjIozAlouN3sIhEKgqjYZMwJ6gKqUU/eCAAJ6Zmxs/MjERME/2RcDLlUqxluSJBnaNaAPsQRH9qn9RpAZ0KHcCxknBBDQ+tFX2pKKfL97FdGgqcLZFw1y5YuknUk4w1kT0G07OXaVXPkiGRVnBLRcbvYQCIVAVW0yZgS0XwHF0QZOIHYBPX9uYXpmpsifqamjSZJkKla0tfFGl1nDPf3qv6mpo0cmJgomr+x06YKHlZchoEO5FzJOCGgB3YnG642tF9Xd3d1ardaLI9tj5ryauc3KpQpnOGsCuk2uitPg96g4K3JVnBW5Ks5q2HJVr9cR0Pry0YbA8BNQ/rkqo0VAl/JLvHj4CcQuoItfIS2Fp2fSedPF31v2lfpcZd/b9fVHJiampo52fZm8oJStLnjM7GUI6OG/CzJCCAgBBHQ+CS6PmvZ7eeDXtG1WLlU4w1kT0G1yVZwGv0fFWZGr4qzIVXFWnXKFgNYMaUMgCAII6MwU0RhVAgjonYKXNpPC0nCZ4Nz1jEcmJhwX8TBOUepLBcfGxnv0DYRb2zsI6CBuhAwSAru7u1pA1ztsAqpDse5S5a8ea6ouJO33whnOmoBu28mxq+TKF0k4a5LkStOws+FShXPQnJkBLeFnD4FQCFTVJmNmBrThtSiFSAABXVpAy+IbvbvY0zMz4ojHxsZdFpJuO8JSS2rIi7NVR9oe0KUTAR3KvZBxQgABrR9BpS2pyPe7V3ng11Th7IsGufJF0s4knOGsCei2nRy7Sq58kYyKMwJaLjd7CIRCoKo2GfMhBPTqd7574sSJezpvJ06cWP3Od100zsi/F4a9u8QI6HICemrqaB8W3xDvLCbar/8tvv6GTPT2bsB1lBHQodwLGScEEND60Vfakop8v3sV0aCpwtkXDXLli6SdSTjDWRPQbTs5dpVc+SIZFWcEtFxu9hAIhUBVbTLmQwjoEydOPP300/rfmS3tp59++sSJE1rLSPuph+5qbscfW92zZCuPHb/rrgef2u4szVYfP37XXXc9dDl/wHB7Ds1wa/vyZ5oQ77rr+GOXG3D2ewSUfo3UMuBrjx2/6/hja+Gi6zpyBHTn36WDv2YiZJMk6d3iG0uVSsv06iMTE2Nj474c9Py5hYLjX6pUjkxMFP+uwq45a/sCBHQo90LGCQEEdMt/utXrTouKSKLyx8x61tfXs3ZLw36vSxXBoVG7kLTfC2c4awK6bSfHrpIrXyThrEmSK03DzoZLtUecEdByUdhDIBQCVbXJmA8hoO+55x79L6627Xvuuae9n2nq5oZ31t600X7ospLUD35mX1irV46EiXZgmMrl44+t7Yn7hp1vCuWGd075pI3PXG56yPQ1DQF9+cGU4/HHn1pFQB9UsTfffPMjf3qmbWSLdD7yp2duvvnmIq/c2t7p57nsIYmA7qmTFd3cMgyPC3EU/EZB8eBjY+O9U+3yGRHQodwLGScEEND5/3qTVOT7pcel2qMH0a7SnPPqq+lyBe33whnOmoBu28mxq+TKF0k4a5LkStOws+FS7RFnBLRcFPYQCIVAVW0y5oEK6NSKNmdA73nVre2d1EEff3xlu1E6/uBnjjfl6UMPHvCqBxVii+Ma8h+dBfTl1OQ/dHmrs4BWzj61zp956HgqrpsTz4ecj8vwmAHd/D8P3X5DRMu6sLbfKwtu5J2vnNd9KQwR6F2/UVCG0VPPnnFAQIdyL2ScEEBA60dQaUsq8v3u1R49iCKg8xeLmeYZE/Kcoej6m2Kz4vfXF0k4a5LkStOws+FSHTHOCGgJA3sIhEKgqjYZ89AI6H1pdlBAP74iS3Cky3QcnNjbTa9lUmgIG84C+vE9F78HR9lmYwa0ELv84F3HHx9CJr6GhIDe/12ymS5VKnk7bL+leNVecNnLYtD2khpLlYqcxeOE664fHwEdyr2QcUIAAa0ffaUtqcj3u1dH7AG4q87j8+oUkStfNMiVL5J2JuEMZ01At+3k2FVy5YUkAlpixh4CoRCoqk3G3E8BrZfXeCydwdu6yaoRBwR0+hJmQGuj2Jgqfjyll+IqPAN6b+5zYxWO4w8hoA/+74t+LovRz3N1FaY9ekF+6ef8iRwXgz45N5df/VmU+vTMzNjYeJIk/VTP8gER0KHcCxknBBDQ+lFQ2pKKfL97lQdvTRXOvmiQK18k7UzCGc6agG7bybGr5MoXyag4I6DlcrOHQCgEqmqTMfdTQG/JqhrylYOpCX3wsceO761fnP6YrcjRENPHH3+qs6TO66ywepxnQK/tafr2AnpPWGcqX+DI/wDYXxv6oIMNC6Ax2kPOgL7zE59w+VNqDWiXE935iU8UP5eBqaelqamjY2PjXU8xNjbedQGNtgeR6dVjY+OyBrRMhU6am3jn3k3ubjsk6URAh3IvZJwQ0AK6E43XG1svqru7u7VarRdHtsfMeTVzm5VLFc5w1gR0m1wVp8HvUXFW5Ko4K3JVnNWw5aperyOg9eWjDYHhJ6D8c1VGOygBLUs/p18z2FjuWatS3W5YndFZeSMzV+4CekuU/eXHW2eSP3S5Ubqr3fbgUyMqnTOwW9s7hxHQjkZY3q4HYbT7eS5jGL0uFfG/S5XK4YYxPTMj0nlq6ujU1NHpmZnpmZmTc3NFTnq4MxZ8FwJ6+O+CjBACQgABnU+Cy6Om/V4e+DVtm5VLFc5w1gR0m1wVp8HvUXFW5Ko4K3JVnFWnXCGgNUPaEAiCwPAI6KZlbsjlx1KLujcVev9LCNfaTYBufPNe+BbVm4B+bG/meMOPpTDTbyYUho1G2t+YbJ6p51T9swZ0QZ/IyyBQigACOogbIYOEwO7urhbQ9Q6bgOpQrLtU+avHmqoLSfu9cIazJqDbdnLsKrnyRRLOmiS50jTsbLhU4Rw0Z2ZAS/jZQyAUAlW1yZgHMQP6rr0tU6Xpz/uTc8VNP3X58c8cv+v4Y5dTX/pY+p17dz30eKqkM68asoZ2FNAZwJTVPrqDArqJufHPPbyN1991fCQYdhKDh5kB3elY9EOgFAEEdCj3QsYJAQS0fgSVtqQi3+9e5YFfU4WzLxrkyhdJO5NwhrMmoNt2cuwqufJFMirOCGi53OwhEAqBqtpkzP0U0Jktbay/kX6HXtOHPtg6Azr96sEHUwG99217ajb0SMhTRwGtFs7WRr5FQKdLbN+1t5T2g09tN6ryjY4hu/uuPhABrb+zknZfCSCgQ7kXMk4IIKD1o6+0JRX5fvcqokFThbMvGuTKF0k7k3CGsyag23Zy7Cq58kUyKs4IaLnc7CEQCoGq2mTMhxDQJ06cePrpp/W/M1vaTz/99IkTJzqLQrHJD6YLQO/70D15Kkq6Mc05fZmY1qceOv5Yc7Hj0fgOPQeGKSjBsrL6+Gf2pj+LXE7nOqd8Lj/Y9M5qie0U9uMrI62eJXII6L4q186/5zEOAwEdyr2QcUIAAd3yn271utOiIpKo/DGznvX19azd0rDf61JFcGjULiTt98IZzpqAbtvJsavkyhdJOGuS5ErTsLPhUu0RZwS0XBT2EAiFQFVtMuZDCOjV73z3xIkT93TeTpw4sfqd7yKmDAIwNOA4lhDQMZpfx9D4ejsCOpR7IeOEAAJaP4JKW1KR73ev9uhBtKs057z6anJ9fdEgV75I2pmEM5w1Ad22k2NXyZUvkgPhjIAW7OwhEAqBqtpkzIcQ0L5cDceBQC8IHEZAP/KnZ376wx/+F79w2y/feecnP/lr//a3fuv+Bx74H3/++ae//syrG5u9GGWvj/n8i1c8/nn6688YA16qVPz+KXKuxfPnvZzUONchSgjoUO6FjBMCCGj9CCptSUW+373KA7+mCmdfNMiVL5J2JuEMZ01At+3k2FVy5YtkVJwR0HK52UMgFAJVtcmYEdCHsEy8ZZgJHFJA33zzzZ/8tbvu/MQnbrvtFz/8kY+8613vesMb3pA0tne/+92//dv/Yf7cwjB/bD22pUplYmJCBu9lPzExsVSp6FNk7aVKxcsp9EGKnGt8fFy/5dDtTufKPmCpBgI6lHsh44QAAlo/+kpbUpHvd68iGjRVOPuiQa58kbQzCWc4awK6bSfHrpIrXySj4oyAlsvNHgKhEKiqTcaMgC7ll3jx8BM4vIDOf7YXrnzji1/+8t333PvjP/ETSZK8+c1vPnb3Pdeu1/KvLNszNXX0yMSElz/5U4sUPjt/zssk6LPz55Ik6SRq5Vzz5xYOzEd+9N/feWfyGw+fPHHsdx9++N//r//XyROXvvr4wyf/6FO/+xufOnbfz9/5O5/69G+lL2gzdbrIuZ44ezZJkvmFgyctPxHbOFeeapEeBHQo90LGCQEEtH70lbakIt/vXkU0aKpw9kWDXPkiaWcSznDWBHTbTo5dJVe+SEbFGQEtl5s9BEIhUFWbjBkBXUQr8ZqACPgU0PpjX/nm0h/+0aff+ta3vvGNb7zv/vt1qWx7aupokiTTMzMuf4405ji3nZctUriTMi47WvtoUn3i7Nlnn3ve/Y+Y5U4jz0by7HPPJ0ny4je+Wfaz6NdnR9Odjm0EdCj3QsYJAS2gO9F4vbH1orq7u1ur1XpxZHvMnFczt1m5VOEMZ01At8lVcRr8HhVnRa6KsyJXxVkNW67q9ToCWl8+2hAYfgLKP1dltAhoR+PE24eNQK8EtHzO1/5x+/c+9ak3velNH/v5n7/6yvVDfPjpmZl09q7bgh7z5xaSJDk5N9d2AH7Vqn20xfPnfa2GIctojI+PL54/b38uBPTw32wYIQSGnAACOn+BXB417ffywK9p26xcqnCGsyag2+SqOA1+j4qzIlfFWZGr4qw65QoBrRnShkAQBBDQbb0WnaNEoLcCWkj97TPPvqexff3ZvyvFTsSxo30WIzw1dbTTqW1l3Oldnfrto0l1fmHhxW980/3P/EIq1pkBHcTthEFCIGgCWkDXO2zyATsU6y5V/uqxpupC0n4vnOGsCei2nRy7Sq58kYSzJkmuNA07Gy5VOAfNmRnQEn72EAiFQFVtMmZmQHfSbvQHSqAfAnpre6d67ZWf+9jHfupDHyqFaWxs3BDHBQ8lK0cbL7aVsfHGtiX7aHa17QGNTvtoUv2rSxVmQIdyy2GcEBhaAgho/QgqbblY+X73Kg/8miqcfdEgV75I2pmEM5w1Ad22k2NXyZUvklFxRkDL5WYPgVAIVNUmY0ZAGzaMUogE+iSgt7Z3nn/xyk033TQzO1sQ09TU0bGx8YIv7vSyk3NzXVfwsDVupyN36rePZlc7HbNTv300qX7+j7+wwBrQodxzGCcEhpUAAlo/+kpbrlW+372KaNBU4eyLBrnyRdLOJJzhrAnotp0cu0qufJGMijMCWi43ewiEQqCqNhkzArqTCqM/UAL9E9Bb2zv/+b98JkmSb317uSssL4tvbG3vyLcX2qezNa793nzVPppdzR/N7rGPJlVmQIdyv2GcEBhmAgho/egrbble+X73KqJBU4WzLxrkyhdJO5NwhrMmoNt2cuwqufJFMirOCGi53OwhEAqBqtpkzAhoW4hRDY5AXwX01vbOLbfc8gf/6Q+7YvI4/bnTEsnZGGyNm72sYMM+ml0teIrsZfbRpMoM6FDuN4wTAsNMAAGtH32lLdcr3+9eRTRoqnD2RYNc+SJpZxLOcNYEdNtOjl0lV75IRsUZAS2Xmz0EQiFQVZuMGQGduS8ao0Gg3wL6X/7mb37gAx/oym5sbPzk3FzXl9kvODIxUWQJaVvj2qfIV+2j2dX80ewe+2hS/atHv8oSHKHcchgnBIaWAAJaP/pKWy5Wvt+9imjQVOHsiwa58kXSziSc4awJ6LadHLtKrnyRjIozAlouN3sIhEKgqjYZ88rqy/yBwCgR6LeA/sv5c0mSvFL7nqFWZeHmrjOXjSNIKUmSIhbb1rhdz9LyAvtodrXlUF1/tI8mVZbgCOV+wzghMMwEEND60Vfacr3y/e5VRIOmCmdfNMiVL5J2JuEMZ01At+3k2FVy5YtkVJwR0HK52UMgFAJVtcmYmQHd1YnxgrAI9FtA/93zLyRJ8twLLxqYREAbLyhSklWki1hsW+MWOZd+jX00u6qPU6RtH02qzIAO5X7DOCEwzAQQ0PrRV9pyvfL97lVEg6YKZ180yJUvknYm4QxnTUC37eTYVXLli2RUnBHQcrnZQyAUAlW1yZgR0EW0GK8JiEC/BfQrte8lSfKX8+cMRlNTR49MTBgvKFIqbrFtjVvkXPo19tHsqj5OkbZ9NKn+1aNf+NPnnk+S5MVvfLPIMTu9xj5Xp3fZ/SurL4dyM2CcEIicAAJaP/pKWyKR73evIho0VTj7okGufJG0MwlnOGsCum0nx66SK18ko+KMgJbLzR4CoRCoqk3GjIC2hRLV4Aj0W0Bvbe/cfPPNZ/7bnxmkvAjo6ZmZsbFx4yxZya9atY9mV7MhFWzYR5MqX0IYyv2GcUJgmAloAb3eYas1tg7FdZfq+vr66upqL45sj4rzauY2K5cqnOGsCeg2uSpOg9+j4qzIVXFW5Ko4q2HLVb1eR0AP839aMzYI5Ako/1yVKgK6oBnjZaEQ6LeAlhnQ8+cWDEDTMzPuM6Dnzy0goJMkYQmO/L/Z6YEABMoS0AJaz0LSbTmm7tFtlyozv3yRtK8CnOGsCei2nRy7Sq58kYSzJkmuNA07Gy5VOAfNGQEt4WcPgVAIVNUmY0ZAG9qQUogE+i2gi6wBXXzyskGcNaBlBjRfQhjK/YZxQmCYCSCg9SOotOV65fvdqzzwa6pw9kWDXPkiaWcSznDWBHTbTo5dJVe+SEbFGQEtl5s9BEIhUFWbjBkBbRg/SiES6LeA/sv5c0mSvFL7ngFL3LE9S9p4u5REvxY5iL2QRdcTtbzAPppdbTlU1x/to0mVGdCh3G8YJwSGmQACWj/6SluuV77fvYpo0FTh7IsGufJF0s4knOGsCei2nRy7Sq58kYyKMwJaLjd7CIRCoKo2GTMCuqsT4wVhEei3gP6Xv/mbH/zgB21GYk6nZ2bsl3WtHpmYKLKUh61xu56l5QX20exqy6G6/mgfTap/9O8+vcCXEIZyz2GcEBhWAgho/egrbblW+X73KqJBU4WzLxrkyhdJO5NwhrMmoNt2cuwqufJFMirOCGi53OwhEAqBqtpkzAjork6MF4RFoN8C+pZbbvmD//SHXRl5WYXj5NxckWWgbY3bdagtL7CPZldbDtX1R/toUmUJjlDuN4wTAsNMAAGtH32lzCqL2gAAIABJREFULdcr3+9eRTRoqnD2RYNc+SJpZxLOcNYEdNtOjl0lV75IRsUZAS2Xmz0EQiFQVZuMuayAvrH52tVrtZW16srqy/yBQK8IrFWvXqvd2Hytq7HMv6CvAvo//5fPJElS+da38+No6RF5enJurqW/1I9LlcrY2PjU1FH7XbbGtd+br9pHs6v5o9k99tGkyhIcodxvGCcEhpkAAlo/+kpbrle+372KaNBU4eyLBrnyRdLOJJzhrAnotp0cu0qufJGMijMCWi43ewiEQqCqNhlzKQF9Y/O1lbVqrba+sbGxyQaBnhHY2Nio1dZX1qqHcND9E9DPv3jlpptumpmdtaVqVvU4CdpeCdrWuNl4Cjbso9nVgqfIXmYfTarMgA7lfsM4ITDMBBDQ+tFX2nK98v3uVUSDpgpnXzTIlS+SdibhDGdNQLft5NhVcuWLZFScEdByudlDIBQCVbXJmEsJ6KvXarXaes+sIweGwAECtdr61Wu1TE4WbPRJQFevvfJzH/vYT33oQwWHtbW9U3D+ctcDHpmYsBfisDVu1+O3vMA+ml1tOVTXH+2jZdVnWQM6lHsO44TAsBJAQOtHX2nLtcr3u1cRDZoqnH3RIFe+SNqZhDOcNQHdtpNjV8mVL5JRcUZAy+VmD4FQCFTVJmMuJaBX1qrMfT6gSPmhlwQ2NjZW1qpdpWXLC/ohoP/2mWff8573vOe9733m755rOb3948m5uSRJHL+NUDyscZBM1NqDKVi1j2ZXC54ie5l9tKyKgA7llsM4ITC0BLSA7jTI1xtbL6q7u7u1Wq0XR7bHzHk1c5uVSxXOcNYEdJtcFafB71FxVuSqOCtyVZzVsOWqXq8joPXlow2B4Seg/HNVRltOQK++3EvfyLEh0EqgVD5FY/ZWQL/2j9u/96lPvelNb/q5j33s6ivXM3NavNFYiGPMXkOj69Hmzy0YIjsTtV2PU+QF9tHsapHj69fYR8uqCOjhv9kwQggMOQEEdP4CuTxq2u/lgV/Ttlm5VOEMZ01At8lVcRr8HhVnRa6KsyJXxVl1yhUCWjOkDYEgCCCgWwXnYX5enE1mF/ffuDibTJ56af9naS1OS+fyqduTg5t+b+u7+LmFwBAJ6G8sLf3hH336rW996xvf+Mb7H3hAa9OybVkMemrq6PTMzKH/HJmY6OSgM1FbdmBtX28fza62PaDRaR8tqyKgg7jfMEgIDDMBLaDrHTYZf4di3aXKXz3WVF1I2u+FM5w1Ad22k2NXyZUvknDWJMmVpmFnw6UK56A5MwNaws8eAqEQqKpNxlxK8K0wA3pzc/P87OTp5c3NxdmDXll+mj2/559nbz+1nDaXT92u9fTyqdsR0C2S2fqxVD5FbPqcAf3ClW988ctfvvuee3/8J34iSZIf+ZEfOXb3Pa/Uvmco1CKlpUplembmyMSE+5+pqaP5M2aidqlScf8js62XKpX8iWRh6yRJ3M8iRyh4rifOnk2SZH5hweW89rnaftiunSurL4dyM2CcEIicAAJaP4JKWyKR73ev8sCvqcLZFw1y5YuknUk4w1kT0G07OXaVXPkiGRVnBLRcbvYQCIVAVW0y5lKCDwGdCuVpMcst86BTi7o4ncyeT/f72+2zs8yAtgxzl1qpfIoePLyA/uSv3XXnJz5x222/+OGPfORd73rXG97wBrmQ73rXu377t/+D46IZXd2lxxeIgN5PoY+WLaB9nGH/GEXONT4+vv8Gh1ancx3uciCgQ7kXMk4IIKD1o6+0JRX5fvcqokFThbMvGuTKF0k7k3CGsyag23Zy7Cq58kUyKs4IaLnc7CEQCoGq2mTMpQQfAnrz/Gw6x/n8bDI9a8yAbq6/0cWuxly+9957r1y5oglcuXLl4Ycf1j2bm5ul8ukkoH/6wx/+F79w2y/feecnP/lr//a3fuv+Bx74H3/++ae//syrG5uHc5GDfZfL1OC27zU+TtvXu3QWOdfi+fMup8jea5zrECUEdCj3QsYJAQS0fvSVtqQi3+9eRTRoqnD2RYNc+SJpZxLOcNYEdNtOjl0lV75IRsUZAS2Xmz0EQiFQVZuMuZTgQ0DvzW5Ol9doMwN6T56+dGpyenH59GS6Usf5dpp6b3WOFtca0Y/33ntvkiRjY2OZg75y5cqRI0eSJGlx0KXyKcLwMDOgD6EaeQsE8gQQ0KHcCxknBBDQ+tFX2pKKfL97FdGgqcLZFw1y5YuknUk4w1kT0G07OXaVXPkiGRVnBLRcbvYQCIVAVW0y5lKCDwHdWNNZFnFOv3twsnV5jWTy9PLy6cn9FQFuP3WqsS5H0y6zBnRK4sqVK2NjY5mDzuzz2NhYE9TeP0vlU3wgAnonL0bp6Q8BBHQo90LGCQEEtH70lbakIt/vXkU0aKpw9kWDXPkiaWcSznDWBHTbTo5dJVe+SEbFGQEtl5s9BEIhUFWbjLmU4ENAZ3J5cnp2Ml3feXZxc3F2elG+mXBv1nPDnWbtA0tCp2aaLyFsddAy9zlvn/u3BEd/7CRnGXkCCOhQ7oWMEwIIaP3oK21JRb7fvYpo0FTh7IsGufJF0s4knOGsCei2nRy7Sq58kYyKMwJaLjd7CIRCoKo2GTMCumXKbdEf02WgT51qNwNajpAt1sEM6E5Is3nQMhW67ctK5VP0JjOgmQE9MAII6FDuhYwTAgho/egrbUlFvt+9imjQVOHsiwa58kXSziSc4awJ6LadHLtKrnyRjIozAlouN3sIhEKgqjYZcynBxwzoVJI2l3WePL14qs0M6L8RKz15e2MN6M1NZkC3NcvSKQ667dxneUGpfCKgvYnXpUpl5Gcr9+IDIqBDuRcyTghoAd2JxuuNrRfV3d3dWq3WiyPbY+a8mrnNyqUKZzhrArpNrorT4PeoOCtyVZwVuSrOathyVa/XEdD68tGGwPATUP65KqMtJfgQ0KlNnl7cTL+BcPLUS7Kgc/clOGbPpzZ130RH/yWEWkln30OoO7N2qXwioL0J6OmZmSMTE/PnFnphafPHXKpUliqV+XML0zMz0zMzJ+fm8q9x7Gk5xdTU0SMTE0cmJpLE55R5BPTw3wUZIQSEAAI6nwSXR037vTzwa9o2K5cqnOGsCeg2uSpOg9+j4qzIVXFW5Ko4q065QkBrhrQhEAQBBHRmNp0a52cnTy+rLyRM9fJs45sHxTVvbm7KGtD70jlJGiW+hLAc+B4K6F9tKkgRkX73jrZ0GN7+oz/6o0mSvO997+udhp6emdn/vs5Ga2xsPEmS6ZkZRwIn5+bEoYti1mcZGxsfGxs/MjGROWjHc+m3I6CDuBEySAjs7u5qAV3vsAmoDsW6S5W/eqypupC03wtnOGsCum0nx66SK18k4axJkitNw86GSxXOQXNmBrSEnz0EQiFQVZuMuZTgYwZ0OXva5tUI6DZQjK5S+RQTWHRCq1hImXJr7Y/PTB9Pp+UW/HNkYmJsbFxLySFvL1UqWteKn9XGNkmSIxMTvfgUS5WKCGI95XlsbFz/eLjzLlUq4rKnpo5Oz8zMn1toq9Gnpo5OTR093CnavgsBHcq9kHFCAAGtH0GlLanI97tXeeDXVOHsiwa58kXSziSc4awJ6LadHLtKrnyRjIozAlouN3sIhEKgqjYZcynBh4A2VCmlXhAolU9RgiUEdIGZtmsXLq1tPfO3X7l8ceGRR599tfsaF9MzM0EI6KVKJZuA3OLiT87NnZybe9M/+SeioaemjvZuSWhx0GNj49kpkiRxF9Bb2zvioPWR88oYAR3KrYtxQsA7AQS0fvSVtkDO97tXEQ2aKpx90SBXvkjamYQznDUB3baTY1fJlS+SUXFGQMvlZg+BUAhU1SZjLiX4VtaqGxsbvfCMHBMCeQIbGxsra9W8NrR7fAvoJ56/urDwxa+e+YtHL39ze0QEtKjnsbHxTgpeXtBT9SxXcf7cQpIkMg1ZHHSSJJmMtq9012pXB20Q6Hrwti9gBnQo90LGCQEEtH70lbakIt/vXkU0aKpw9kWDXPkiaWcSznDWBHTbTo5dJVe+SEbFGQEtl5s9BEIhUFWbjLmUgL56rVarredFIT0Q6AWBWm396rVaW9FndPoV0N2Nc8tQhn8GtCwS0nZJiuyzTM/M+LLA2THzDW2fp6aOyuIbHgV013nQXpb70J8LAR3KvZBxQgABrR99pS2pyPe7VxENmiqcfdEgV75I2pmEM5w1Ad22k2NXyZUvklFxRkDL5WYPgVAIVNUmYy4loG9svrayVq3V1pkH3QvfyjEzAhsbG7Xa+spa9cbma9rvFWkjoLtI8///qwVt+1yEsvtrWuxzkiSyanOSFL2CRcawVKkYa1j7Wu4jGwkCOpR7IeOEAAJaP/pKW1KR73evIho0VTj7okGufJG0MwlnOGsCum0nx66SK18ko+KMgJbLzR4CoRCoqk3GXEpAb23v3Nh87eq12spadWX1Zf5AoFcE1qpXr9UOYZ+3tneK6su3ve2f/uxHP/off/8P/P752Y9+9G1v+6eZkRy2hqytMfBR5e3z/LmF7DsJfQ3Pts9pVvwt9yFjRkCHci9knBBAQOtHX2lLKvL97lVEg6YKZ180yJUvknYm4QxnTUC37eTYVXLli2RUnBHQcrnZQyAUAlW1yZjLCmhfaojjQKBHBIoK6J/8yZ9885vf/E7f25vf/Oaf/ehHe/TZ3A87f25h4N+R2NY+y0eTr0Z0/5iy+Ebbuc/Z0iIyjOxHLydFQIdyL2ScEEBA60dfaUsq8v3uVUSDpgpnXzTIlS+SdibhDGdNQLft5NhVcuWLZFScEdByudlDIBQCVbXJmBHQXrwTBxkeAkUFtPcvoBMEQ74GtEwKHuASHIZ99pihTnOfZf1rkc4n5+b8Lvextb2DgA7lXsg4IaAFdCcarze2XlR3d3drtVovjmyPmfNq5jYrlyqc4awJ6Da5Kk6D36PirMhVcVbkqjirYctVvV5HQOvLRxsCw09A+eeqjLasgGYJjl4tOsGSJppAH5bgSAX0sWOXvvTowtcuXjy7cPbSxQvPrF2dP1H5Xpc1lG1POuQCemt758jExJGJCftT9Kg6DPZ5bGx8bGx8qVJBQA//HYsRQqB3BBDQebYuj5r2e3ng17RtVi5VOMNZE9BtclWcBr9HxVmRq+KsyFVxVp1yhYDWDGlDIAgCjgKaLyHMviWPRk8J9OtLCI8de+7yk1+5dHnhiwsXltcuXLq4tXxxedQFtMwOPjk31yPL3Omww2CfZaVpcdBTU0e9i3hmQAdxI2SQENjd3dUCut5hE1AdinWXKn/1WFN1IWm/F85w1gR0206OXSVXvkjCWZMkV5qGnQ2XKpyD5swMaAk/ewiEQqCqNhlzqRnQV6/VarX1nppHDg6BjECttn71Wq2Tz+zUzxIc3WdwyzRtv8sfd7oe0j8k9lkGs1SpjI2NJ0kyNXXUHnbZKgI6lHsh44QAAlo/gkpbUpHvd6/ywK+pwtkXDXLli6SdSTjDWRPQbTs5dpVc+SIZFWcEtFxu9hAIhUBVbTLmUgJ6Za26sbGR+UEaEOgpgY2NjZW1alkHOMQC+psvPbW9s7V9Y2X5xtarN7a2d5595vn0460+/uWvXn/2mbWt7Rvf/4eGPn71xtY/3Ph++uKe/FmqVPRqyD06S3bYobLPMipx0AjoUG5djBMC3gkgoPWjr7QFcr7fvYpo0FTh7IsGufJF0s4knOGsCei2nRy7Sq58kYyKMwJaLjd7CIRCoKo2GXM5Ab36ck+FIweHQAuBUvkUtTjEAvrKlQupUF67cOns5z978dnlG2cfn08HvXzmkUsvnX3ib88++vizX5p/dnn+y5ce//yXLv/lhe9kDtd7I3PQ3o/ccsAhtM8yQlkGumW0jj8yAzqUeyHjhAACWj/6SltSke93ryIaNFU4+6JBrnyRtDMJZzhrArptJ8eukitfJKPijICWy80eAqEQqKpNxlxK8K0goFv8KD/2mECpfIo8dBPQr2295jbp2PoSwit/9Sfz88++vHbh0tef/erzn3/88lNPzKfTnFMBvXb2ib8++6X5Zy8/f3X54oXlixcurf3Pv+qhgN7a3pFZwN7XQdYOd2jtsx6kxzYCOpR7IeOEAAJaP/pKW1KR73evIho0VTj7okGufJG0MwlnOGsCum0nx66SK18ko+KMgJbLzR4CoRCoqk3GXErwRSugl09PJtOL3V3r+dnJ08sHX7Z86vbJUy9J3+JsMitHWT49uf/KNu9qHkNK52eT5hubhVj+WSqf5QX0sWOXvvTowtcuXjy7cPbSxQvPrF19+fLy/7vhYiQtAe2mtl1G1em98oWE3leikNPFZp+3tncQ0KHcCxknBBDQ+tFX2pKKfL97FdGgqcLZFw1y5YuknUk4w1kT0G07OXaVXPkiGRVnBLRcbvYQCIVAVW0y5lKCL1IB/dKpyaTz1hDTe0L5gEpenL391PJmewG9ubm5OJ3Mnt/cPD9rqe3sgPbLRldHl8qnaM8yM6CPHXvu8pNfuXR54YsLF5bXLlxaeGp+/nubTssuhyWgZR50kiTTMzOdJPXh+iO0zwjoUG6EjBMCu7u7CGj96CttCUa+372KaNBU4eyLBrnyRdLOJJzhrAnotp0cu0qufJGMijMCWi43ewiEQqCqNhlzKcEXpYBenL19cjJVybkts8Obi7Otgnp2cfOAgF6c3n/F7HTu5Ukyefov2vTuv6nRKjILOzfMoDtK5bO8gPZtXbe2d4IT0FvbOyfn5pIkmT+3cDjXnH9XnPYZAR3KjZBxQgABrZ97s7YEI/uxpeFSRTRomC4k7ffCGc6agG7bybGr5MoXSThrkuRK07Cz4VIdMc4IaAkDewiEQqCqNhlzKcEXoYBenJ489VLeL++JYVlGY/n0ZDqXeTOdzry/sMZBAZ1W05nUe0tw7EnhA6/f6zvwj5dOTcYnnTWBUvlEQB9+7vaRiQlfi0FHa58R0KHcCBknBBDQ+rk3a0swsh9bGi7VEXsArtfrNg0+rw6PzcqlCmc4awK6Ta6K0+D3qDgrclWcVY9yhYCWELKHQCgEqmqTMZcSfBEK6IYMlbnM2os22nv6ePnU7S0TldMfJ0+fal2CI7+UMwI6B7Wlo1Q+EdCHF9CyGPThJkFrcx2zfUZAh3IjZJwQaBHQ6x22WmPrUFx3qa6vr6+urvbiyPaoOK9mbrNyqcIZzpqAbpOr4jT4PSrOilwVZ0WuirMatlzV63UENP8ND4GwCCj/XJWRlxJ88QroNoZZLPPBlTkOCOUDS3DIos+Nw7SdUp1+UWH6VYcHtsYr267+0aJpR/fHUvn0IaD/cTu/oESpnhCX4JAPeGRi4nArQY+NjY+NjW9t70RunxHQYd0OGW3kBFgDWs9jkrZEIt/vXu3RTChmIucv1vr6er7T/Qra2eD6auY2K5cqnOGsCeg2uSpOg9+j4qyGMFcIaLko7CEQCoGq2mTMpQRfrAI6tcezSeqIO2z5SdCta0Cn62/cPtlYgmNxNluI44Cwzo6tJ1wvn7r94Kod2aviaJTKZ3kBfezYpS89uvC1ixfPLpy9dPHCM2tXV+dXrx5+HnGga0A7Cmj5vyZjY+NJkkxNHd3a3pmaOup3Uens/wHITG095zob/NjY+OFmcGcHd2+srL4cys2AcUIgcgIIaP0IKm2JRL7fvcoDv6YKZ180yJUvknYm4QxnTUC37eTYVXLli2RUnBHQcrnZQyAUAlW1yZhLCb5YBXSXNaA3N5uaeH9RjlYB3VgnWqln0cfdBfTm4nSyt8B0HMa55VOWyqf4w6SgRhwbG58+duy5y09+5dLlhS8uXFheu3Bp4ZvPXFxe+37BI7R9WbgzoFMg5b+VMVu7Y2xsPHL7zAzoUG6EjBMCLUtw6IdA3RZQuke3Xao8ePsiaV8FOMNZE9BtOzl2lVz5IglnTZJcaRp2NlyqcA6aMwJaws8eAqEQqKpNxlxK8MUooNOFm0UBL86q7wNcnE6S/R/bCmhRqcunbk+nTi+ePrWcTqNOpzOn781v+0tt6BnQ6Rcb7p0onUN96uCSHy22dgR/LJXP8gK6vG9tK511Z6ACWuYs6w9SsC3LbixVKkuVSk/nPm9t7yRJImt96LEdmZgYhrnPMiRmQIdyL2ScEGAGtH4ElbakIt/vXuWBX1OFsy8a5MoXSTuTcIazJqDbdnLsKrnyRTIqzghoudzsIRAKgaraZMylBF+EArohjptityGjRR0fnJWsBPT0bLqQ874p3hPQjUMUngGd6enUcTfW95heXD49OXk6Nv+8WSqf4gDLzIBGQDcWbpZFnA+3fsXJubkk2WO+VKlk60FrR+yrLbOt9TTtobLPzIAO5UbIOCHADGj93Ju1JRjZjy0NlyqiQcN0IWm/F85w1gR0206OXSVXvkjCWZMkV5qGnQ2X6ohxRkBLGNhDIBQCVbXJmEsJvggFdLp28wEdvCej92cx78+DTmcrK0fcXBh6X0bbArr5+myF6Kb3bqxAnSTWItT7Lx2xVql8lhbQ8rV70zMzHv+IEvWlXHtxHJmtLB9Zsp1fUrn4eU/OzWWzkpcqFZkQnfUUP07BV2oHPWz2GQEdyo2QcUIAAa2fe7O2BCP7saXhUh2xB2C+/LAlG1xfDcTlN8V+L5zhrAnotp0cu0qufJGEsybZo1whoCVm7CEQCoGq2mTMpQRfjAJ6xIRuaB+nVD7FYRadAX1kYqJHf2Qp5IJGtXcvE8U8NXVU/siHzf5vytjYuPh3xwHIkiPyDYQtB3c8cqe3i4N2mbXd6cju/SzBEcq9kHFCgCU4Wh4Uu0pVyUz+XdJjV3v0INp1zJxXXy/7GrlU4QxnTUC3yVVxGvweFWdFroqzGrFcIaAl/OwhEAqBqtpkzKUE38padWNjIzSHyXhDJbCxsbGyVi1rBYsK6LLHDe71mV7PHPT0zMzJubnDLbXR6eOfnJsT0z1/bmH+3IKsBN3pxb76Za0Pvx/Ey9gQ0KHcCxknBBDQ+vFV2pKKfL97dcQegBHf+ZCsr6/nO92TY2eSXGnmNiuXKpzhrAnoNrkqToPfo+KsjFwhoAUOewiEQqCqNhlzKQF99VqtVlsPVWcy7tAI1GrrV6/VyopBBPROWWS83hcBBHQo90LGCQEtoDvReL2x9aK6u7tbq9V6cWR7zJxXM7dZuVThDGdNQLfJVXEa/B4VZ0WuirMiV8VZDVuu6vU6AlpfPtoQGH4Cyj9XZbSlBPSNzddW1qq12jrzoENzuYGNd2Njo1ZbX1mr3th8rawbREAjoAdGAAE9/HdBRggBIYCAzifB5VHTfi8P/Jq2zcqlCmc4awK6Ta6K0+D3qDgrclWcFbkqzqpTrhDQmiFtCARB4Nq1a+Kgr127JgMuJaC3tndubL529VptZa26svoyfyDQKwJr1avXaoewz1vbOwjogenXsv+vYPRej4AO4kbIICHAlxDW220SjHaVtM+lyl891lRdSNrvhTOcNQHdtpNjV8mVL5Jw1iTJlaZhZ8OlOmKcmQEtYWAPgVAIbG1tXWtsW1tbMuayAnr0lBGfaMQIIKAR0AMjgIAO5V7IOCGgZ0Drh0DdFkq6R7ddqiP2QNhVT/N5fSXHTh2c4awJ6LadHLtKrnyRhLMmSa40DTsbLtUR44yAljCwh0C4BBDQI6Zf+TgI6IHpV8KHgA73XsjIYyOAgNaPvtKWDOT73asj9gCMcM+HhC8hzJjwe5Sh6PqbYrPi3xu+SMJZkyRXmoadDZdqjzgjoOWisIdAuATKCmiW4OjVohMsaaIJsATH8Mjcby///XMvvDg84xnmkSCgw70XMvLYCCCg9SOotCUD+X73ao8eRLvqLc6rrybX1xcNcuWLpJ1JOMNZE9BtOzl2lVz5IjkQzghowc4eAuESKCWg+RLCwL7LL9jhhvclhEuVysm5uaVKZZj16CHG9u3lv3/vP/tn73//Bw7x3gjfgoAO917IyGMjgIDWj6DSlgzk+92rPPBrqnD2RYNc+SJpZxLOcNYEdNtOjl0lV75IRsUZAS2Xmz0EwiVQSkBfvVar1daDtZoMPDACtdr61Wu1shpzMEtwnJybGxsbLzvWQ7x+qVLpm+b+9vLfv+e9733/+z9QvfbKIYYa4VsQ0OHeCxl5bAQQ0PrRV9qSgXy/exXRoKnC2RcNcuWLpJ1JOMNZE9BtOzl2lVz5IhkVZwS0XG72EAiXQCkBvbJW3djYCMxiMtxgCWxsbKysVctqzH4L6H4a4a3tnZNzc0cmJspCOcTr+2mflyqV6ZmZ/oh1OdfJublDMOn6FgR0uPdCRh4bAQS0fvSVtmQg3+9eRTRoqnD2RYNc+SJpZxLOcNYEdNtOjl0lV75IRsUZAS2Xmz0EwiVQTkCvvhyszGTgQRIolU/Rg/0W0FNTR/sz97mr/fT4gm99e7kPc5/FBb/vfe9LGpvH8ecPJeeSEyVJr0KCgA73XsjIYyOAgNaPvtKWDOT73auIBk0Vzr5okCtfJO1MwhnOmoBu28mxq+TKF8moOCOg5XKzh0C4BEoJvhUEdJAWN+BBl8qnWMdeucW809za3unb9Oe+nWhre6c/9nn+3MKRiYnMCE9NHW1L2Eun2Oe3vvWtcrrenQsBHe69kJHHRkAL6E6f/fXG1ovq7u5urVbrxZHtMXNezdxm5VKFM5w1Ad0mV8Vp8HtUnBW5Ks6KXBVnNWy5qtfrCGh9+WhDIEQCpQRf6AJ6cXp2cU/GLp+6PVNfSZJ06tevSZLbTy033r58ejKZliMtn7o9e6/yvC+dmjzw1slTL21ubqYvPnV6cvK0HGZzcVr6sze2PdribHN4y+q9m+dns+Nk799rSOn8rPpcrS8J5edS+eyrgF6qVI5MTEzPzHgxpF0P0reVN/pjn+Xzvrqx+cGf/Mkf+IEfSJKk1+tvfP/VGz/94Q//0A/9UJIkPVp/Y2t7BwEd4l2QMcdJAAGdv+4uj5q2Y9JsAAAgAElEQVT2e3ng17RtVi5VOMNZE9BtclWcBr9HxVmRq+KsyFVxVp1yhYDWDGlDIFACpQRf6AJ686VTk3sSefnU7Zn83Te84ogbajlzwVl1cbYpoFN7e3624aCzlx00ui+dmkwNtbwlO5e8OPtxM31BUy433t/2aAdeszidzJ7Pzn7wpNlPmZveG2RWCK9RKp99FdCyHHNXcRzWC/psnz/yMz9z6623/t+/+3u9WxND+It9fsc73vGX5xZ6ei4EdKA3QoYdIQEtoPVfg9VtwaJ7dNulyl899kXSvgpwhrMmoNt2cuwqufJFEs6aJLnSNOxsuFThHDRnZkBL+NlDIFwCpQRf8AJ6c3P59Gw6Gfn8bDad+aAFbpkZfWAas3pLZnLbKuPN1HQnSTI9O3v77Gw61Xp/BnRzCnbzCHuqWn484JpTPz29P4DZ6dn9H5qtydN/0aa3Wd37595k7eYZg/pnqXz2SUDL3Odez9iVD7NUqfRuum6LHB+IfX7uhReXKpXerYmxtb2T2ecXrnyj1//bAAEd7r2QkcdGAAGtH0GlLRnI97tXeeDXVOHsiwa58kXSziSc4awJ6LadHLtKrnyRjIozAlouN3sIhEuglOAbAQGd2tfWtSma0llPcG5Y2uXTk+l045YtfbuxNVxzbgb07PTBNTnaS+FWAZ2eOXXZB1f5yCY4twws+/GA1M56g2yUymdfBXSLve3RjyK7e3RwfVixzx/4wAeq117R/b1ov7qxKXOfn3vhxV4cXx+zxT7rUi/aCOhw74WMPDYCCGj96CttyUC+372KaNBU4eyLBrnyRdLOJJzhrAnotp0cu0qufJGMijMCWi43ewiES6CU4AtaQO/NJm5vfvfkbLq4s721vD1nh/eWdW6/BrT2y03rfeCAi7N7c6WVLG7V5alA77j6s7wPAd0LtyhfOXhybq4/c5979BHaHhb73BbLIToR0OHeCxl5bAQQ0PrRV9qSgXy/exXRoKnC2RcNcuWLpJ1JOMNZE9BtOzl2lVz5IhkVZwS0XG72EAiXQDwCOnWze2a2KX+Va1ZK9+Baz00VvLf4cvNH+af6NsK9DrW0dGOJ5wOzqhfTrwXUU6pb1mhuzK1WI0mP2VyFY/LUS+nbD27pbOucNG+88sB5Dw46qJ9K5VOEYXIIb1jwLSfn5sbGxgu+2OVl/V95g7nPLtcrey8COtx7ISOPjQACWj/6SlsykO93ryIaNFU4+6JBrnyRtDMJZzhrArptJ8eukitfJKPijICWy80eAuESKCX4gp4BnXrXbGpw1kh7Ux+tvHDe8+5ZX/Uakbh7b1ycTprWuLkkdOsyHY11OdKFpydnTy/vG+CDArrhuA/q7/RbEycbS3Co2dPtZ0DrNzaHsX+mUFul8ikasCcCeqlS6efEZ1beyJTu4Rp9XnkjGyQCOtx7ISOPjQACWj/6SlsykO93ryIaNFU4+6JBrnyRtDMJZzhrArptJ8eukitfJKPijICWy80eAuESKCX4RkRAn5+dPZ9OHBZrrPSxWFptcve9bX4GdDr1uDnRuDkVWmni9K0HDtU4wkE1LAI6tcynljf33ru3iEfjzI1FqFuO2WkJjvy59gcfbqtUPnsooKemjvZn7nOmMvvQGOGVNz78kY+84x3vkG8d7APJ7BQI6HDvhYw8NgIIaP3oK23JQL7fvYpo0FTh7IsGufJF0s4knOGsCei2nRy7Sq58kYyKMwJaLjd7CIRLoJTgGwUBnSRJc9llWbyiOXk5k7TFZkCnqzw35jVn75MZ1g0lnVsWI5k9vfddgpn4Tt+3N1E6/Y7BfQ++56PT+uJpLaYPLr8hPzUNeIvsTo8sH1MdTY80lHapfIoG9D8Dum/Tn/u98sZ73jOSK28Myj5vbe8goMO9FzLy2AggoPWjr7QlA/l+9yqiQVOFsy8a5MoXSTuTcIazJqDbdnLsKrnyRTIqzghoudzsIRAugVKCL3gBnS1esWd+J0+dbqyr3FTSDS17YCpxJmoPzIBO356zz5uN5Zj3jPDi7O2zs9OnllMRfOrU7aktbq7gsf9Ng815042FntUY0n5tlpPUUO9v2afY72rMts4EdXqoxjrX04sHfPeB14fxQ6l8+hfQshTG9MxMNsW1p42+rrzRsM9XX7ne00+0tb3z6sbmR37mZ2699dbnXnix1+f6/qs3BmifEdDh3ggZeYQEtIDu9PFfb2y9qO7u7tZqtV4c2R4z59XMbVYuVTjDWRPQbXJVnAa/R8VZkavirMhVcVbDlqt6vY6A1pePNgRCJFBK8AUvoFPpKt9A2Kp0U3k7/RdiijOR26Zxe8MpHzTCze8JTF8ullls9f5iGtl8ZLG+6WLQp7KloDMNrZWw6rSX4JCPk575gKROjyVTuduIcn2iIW+XyqfoTc8zoE/OzfVam/b5+OnKG9jn7Z1eYGcGdIh3QcYcJwEEdP66uzxq2u/lgV/Ttlm5VOEMZ01At8lVcRr8HhVnRa6KsyJXxVl1yhUCWjOkDYFACZQSfCMhoIfcuDK8AwRK5dOngJbJyP354sF+rrxR+da3sc+9UM9yTAR0oDdChh0hAS2g9V+D1W3Bont026XKXz32RdK+CnCGsyag23Zy7Cq58kUSzpokudI07Gy4VOEcNGdmQEv42UMgXAKlBN/KWnVjY+OAIOQHCPSMwMbGxspatawt9DMDum+rYWxt7yxVKlNTR8t+zkO8Hvt8CGil3oKADvdeyMhjI4CA1o+g0pYM5Pvdqzzwa6pw9kWDXPkiaWcSznDWBHTbTo5dJVe+SEbFGQEtl5s9BMIlUEpAX71Wq9XWe+YbOTAEDhCo1davXquVEoBb2zuuAlrmI/dn7nPZz+by+v7Y5/lzC7Gt+6wvCgI63HshI4+NAAJaP/pKWzKQ73evIho0VTj7okGufJG0MwlnOGsCum0nx66SK18ko+KMgJbLzR4C4RIoJaBvbL62slat1daZB31AlPKDbwIbGxu12vrKWvXG5mva7xVpuwrok3NzY2PjRc7k/pq+LTDdH/u8tb0zNjYe1bcOtmQAAR3uvZCRx0YAAa0ffaUtGcj3u1cRDZoqnH3RIFe+SNqZhDOcNQHdtpNjV8mVL5JRcUZAy+VmD4FwCZQS0FvbOzc2X7t6rbayVl1ZfZk/EOgVgbXq1Wu1Q9hnpxnQS5VKPyc+L1Uq0zMzLQazFz/2zT6fnJtLkuQn/vk/v/XWW5974cVefBZ9zO+/euPDH/nIO97xjheufEP3D7CNgA73XsjIYyOAgNaPvtKWDOT73auIBk0Vzr5okCtfJO1MwhnOmoBu28mxq+TKF8moOCOg5XKzh0C4BMoK6AG6HU4NgSIEDj8DemrqaN/mPhf5JF5e0zf7vLW9c2RiIkmSN7zhDf/qX/+bXqv8IbTPW9s7COhw74WMPDYCCGj96CttyUC+372KaNBU4eyLBrnyRdLOJJzhrAnotp0cu0qufJGMijMCWi43ewiESwAB7cXycZDhIXBIAd3P6c/9+crBre2dftrndPJ5c3vr2942PTPTOwc9nPYZAR3ujZCRR0gAAa0ffaUtMcj3u1cRDZoqnH3RIFe+SNqZhDOcNQHdtpNjV8mVL5JRcUZAy+VmD4FwCSCgh8ecMhIvBEoL6KVK5cjERH9Ww5BP2J9z9dk+y9rZPfXOWT6mZ2aGauWNbGDMgA73XsjIYyOAgNaPvtKWDOT73auIBk0Vzr5okCtfJO1MwhnOmoBu28mxq+TKF8moOCOg5XKzh0C4BBDQmTuiMRoESgvore2dvn0ZYN8Qi33+4Ac/ePWV6307aT9PNDzrPutPjYAO917IyGMjgIDWj77Slgzk+92riAZNFc6+aJArXyTtTMIZzpqAbtvJsavkyhfJqDgjoOVys4dAuAQQ0Fof0R4BAiUEtMx97t1KES00p6aO9udclW99+93vfvcI2+cWsMPzIwI63HshI4+NgBbQ6x22WmPrUFx3qa6vr6+urvbiyPaoOK9mbrNyqcIZzpqAbpOr4jT4PSrOilwVZ0WuirMatlzV63UEdGz/uc7nHT0CCOjhkVeMxAuB0gLay1mLHKQ/K29sbe+8cOUb2OciV8T7axDQo3eP5BONKgEtoPUsJN2Wz657dNulyswvXyTtqwBnOGsCum0nx66SK18k4axJkitNw86GSxXOQXNGQEv42UMgXAIIaO8OigMOlkAJAT3YgXL20SOAgA73XsjIYyOAgNaPoNKWDOT73as88GuqcPZFg1z5ImlnEs5w1gR0206OXSVXvkhGxRkBLZebPQTCJYCAHj0JFvknQkDvRJ6AAX58BHS490JGHhsBBLR+9JW2ZCDf715FNGiqcPZFg1z5ImlnEs5w1gR0206OXSVXvkhGxRkBLZebPQTCJYCAHqCt4tS9IICARkAPjAACOtx7ISOPjQACWj/6SlsykO93ryIaNFU4+6JBrnyRtDMJZzhrArptJ8eukitfJKPijICWy80eAuESQED3woFyzAESQEAPTL8O8KoPyakR0OHeCxl5bAQQ0PrRV9qSgXy/exXRoKnC2RcNcuWLpJ1JOMNZE9BtOzl2lVz5IhkVZwS0XG72EAiXwMrqy/yBwCgRQEAjoAdGAAEd7r2QkcdGAAGtH32lLRnI97tXEQ2aKpx90SBXvkjamYQznDUB3baTY1fJlS+SUXFGQMvlZg+BcAkwA3pIpk4yDF8EENAD06++LmG4x0FAh3svZOSxEUBA60dfaUsG8v3uVUSDpgpnXzTIlS+SdibhDGdNQLft5NhVcuWLZFScEdByudlDIFwCCOhwZRcjb0sAAY2AHhgBBHS490JGHhsBBLR+9JW2ZCDf715FNGiqcPZFg1z5ImlnEs5w1gR0206OXSVXvkhGxRkBLZebPQTCJZAJ6OtsvSQgqrSXZ+DY1wUyAnpg+rXt/xCIqhMBHe69kJHHRkAL6E6f/fXG1ovq7u5urVbrxZHtMXNezdxm5VKFM5w1Ad0mV8Vp8HtUnBW5Ks6KXBVnNWy5qtfrCGh9+WhDIEQCCOj+iFsEdB84I6BRzwMmgIAO8S7ImOMkgIDOX3eXR037vTzwa9o2K5cqnOGsCeg2uSpOg9+j4qzIVXFW5Ko4q065QkBrhrQhECgBBHQfxOj163uTc/tzrmjPgoAesH6NarJz2w+LgA70RsiwIySgBbT+a7C6LVh0j267VPmrx75I2lcBznDWBHTbTo5dJVe+SMJZkyRXmoadDZcqnIPmzAxoCT97CIRLAAHdH10rtqr9uc7emyS3Pfxc+yK9xQkgoBHQAyaAgA73XsjIYyOAgNaPoNKWDOT73as88GuqcPZFg1z5ImlnEs5w1gR0206OXSVXvkhGxRkBLZebPQTCJXAoAf3kvYmxNV3qcw/fliT3nt33hy+eSDue3O+IqHVQQFsAbzvxYkRcvH5UBPSA9atcgJj3COhw74WMPDYCCGj96CttyUC+372KaNBU4eyLBrnyRdLOJJzhrAnotp0cu0qufJGMijMCWi43ewiES+DwAvrudiZZT+bdF9Cpb73txIsI6D3dmlJSal5D8ypkYzsYAhoBPWACCOhw74WMPDYCCGj96CttyUC+372KaNBU4eyLBrnyRdLOJJzhrAnotp0cu0qufJGMijMCWi43ewiES+DwArrjHOh0BvSLJ2677e57b2u8Jmvod8Q2z1fcaMMIv/jwLyXJLz384vW286AjnSHuxZUjoAesX2Oe+yyfHQEd7r2QkcdGAAGtH32lLRnI97tXEQ2aKpx90SBXvkjamYQznDUB3baTY1fJlS+SUXFGQMvlZg+BcAl0EtCf+9znOjvBhjlVM6CfvFuM6v47nrw7uffE3hIc6cTn1LemVpolOK43JoYnKb29ieEZtZj5ZBBcGghoBPSACSCgw70XMvLYCCCg9aOvtCUD+X73KqJBU4WzLxrkyhdJO5NwhrMmoNt2cuwqufJFMirOCGi53OwhEC4BQ0B3dtB7AvrJu/Wc5mY7dc0vPvxLtz18VgR0Y8Jvw1bHLFjFjV6/fn0PWlNAN6ll/2QG9OEVNAJ6wPpVLkDMewR0uPdCRh4bAQS0fvSVtmQg3+9eRTRoqnD2RYNc+SJpZxLOcNYEdNtOjl0lV75IRsUZAS2Xmz0EwiVgC+gODloJ6IZZTqVqNse50Ugl4v4a0HtKEQF9PVXzDdfcFNB6KZKY+RzeOqt3IqAR0AMmgIAO917IyGMjgIDWj77Slgzk+92riAZNFc6+aJArXyTtTMIZzpqAbtvJsavkyhfJqDgjoOVys4dAuAS6Cuh2DloJ6GzmbtbIC2hZdCJ7QaOhxatSiCPbFDd6/fr1F597MnXQTQF9kEr63YTtvttxZLH4/WAI6AHr14HPfb6x+Q9t//RtYAjocO+FjDw2AlpAd/rsrze2XlR3d3drtVovjmyPmfNq5jYrlyqc4awJ6Da5Kk6D36PirMhVcVbkqjirYctVvV5HQOvLRxsCIRI4tIDWBvnJ5gzoAz6RGdAKRyag9yZBNwW0xsgMaAXsMM3RF9Dz5xZOzs0tVSp9M6phnegrTzyZ+186yfdfvaE/RU8ZIqBDvAsy5jgJIKDz193lUdN+Lw/8mrbNyqUKZzhrArpNrorT4PeoOCtyVZwVuSrOqlOuENCaIW0IBEqgq4BuIwLFLDe+YzBve9JJvGcbb0JAK3ZiwBod2aLYjYnkrQSZAa2olWwK5ETbRrt9ZGKiF386nfSlyre+8sSTnf789de+tvUPzSnMzcaVF5daXn/LLbfceuutXTT0P17/5uWXrm43j9a28Y87Wy1/2r1sembm5Nxcp0+U9ns4141vPvPS1eZH3nr1xvfbjUTGYDP83d/7lPxC/czP/ux73vveW265JUmSL335scMw7DwGgwYCOtAbIcOOkIAW0Pqvweq2YNE9uu1S5a8e+yJpXwU4w1kT0G07OXaVXPkiCWdNklxpGnY2XKpwDpozM6Al/OwhEC4BW0C3FYB7E3WVX35Svo2wOasXAZ3nJs6q0X9AQDMDOs/q0D0CuYSAbrX/nn7uJChfqnzLOMORiR+/cGnn+5XLZ7/6hTN/PP/s3z5/4Zmv/+r/+dud3mJ44SvfuPzN+ce+eOr8whN/vfDC8/OfPX3v6Sd/7a5f139Ozj38/Vd3trZvyH529nd1NWv/8p2fSJLkrW97W6fTuZ9r5r77ViqLX/7sF/6fr1x89M9P/tcv/vWn/+zPDsdQWD33wgtjY+NHJibaTojWPDt9qE5n79qPgA73XsjIYyOAgNaPoNKWDOT73as88GuqcPZFg1z5ImlnEs5w1gR0206OXSVXvkhGxRkBLZebPQTCJWAI6E4e8Mm7k1SbioC++97U56Tq+XpDTKc/HRTQza/d094n2fvSwk6nGL1+MVeNzyUC+t4GuBYojR+zRbRHj0KPP5FALiGgezH9+cjERCdN+f1Xbxh/Xt1YPPv49aVLjz9y6g9OPzr/xKMXn3rm62cv/L1+y3MvvJAkya/8yv9hr8Lx7N899+u//hstf37hF27Tf/7wj45/89mnv/zZL3zlC19++L8++at3/Ttd1W0R0NMzM20/l/u59sd59BPj/8s7f+pDH/qPv//7bc+1tb2jaeTbX/ryY0mSHLv7nt/8V//62N33HLv7niRJrr5yXb+yIMNOA7D7EdDh3gsZeWwEEND60VfakoF8v3sV0aCpwtkXDXLli6SdSTjDWRPQbTs5dpVc+SIZFWcEtFxu9hAIl0AnAd1jVRjd4UVbRfex+/uBBXIJAW3LxCGszp9bsNVz8TG/tr3T8qfte0/OzXVSz21f37az5USvdVjdwv1cX3niyffltvwa0L4Y5j8sAjrceyEjj40AAlo/+kpbMpDvd68iGjRVOPuiQa58kbQzCWc4awK6bSfHrpIrXySj4oyAlsvNHgLhEkBA98eRiqrqz7miPYtAHmUBnTee9AwVAQR0uPdCRh4bAQS0fvSVtmQg3+9eRTRoqnD2RYNc+SJpZxLOcNYEdNtOjl0lV75IRsUZAS2Xmz0EwiWAgO6PrhVL1p9zRXsWgYyANr97sMPs46HSuOEOBgEd7r2QkcdGAAGtH32lLRnI97tXEQ2aKpx90SBXvkjamYQznDUB3baTY1fJlS+SUXFGQMvlZg+BcAkgoPujaxHQfeCMgEY9D5gAAjrceyEjj40AAlo/+kpbMpDvd68iGjRVOPuiQa58kbQzCWc4awK6bSfHrpIrXySj4oyAlsvNHgLhEsgEdLiTDhk5BDQBZkAPWMLqixFbGwEd7r2QkcdGAAGtH32lLRnI97tXEQ2aKpx90SBXvkjamYQznDUB3baTY1fJlS+SUXFGQMvlZg+BcAkgoGNTZCP/eRHQCOiBEUBAh3svZOSxEdACutNnf72x9aK6u7tbq9V6cWR7zJxXM7dZuVThDGdNQLfJVXEa/B4VZ0WuirMiV8VZDVuu6vU6AlpfPtoQCJHAyurL/IHAKBFAQA9Mv478/9zo+gER0CHeBRlznAQQ0Pnr7vKoab+XB35N22blUoUznDUB3SZXxWnwe1ScFbkqzopcFWfVKVcIaM2QNgQCJcAM6K5OiReERQABjYAeGAEEdKA3QoYdIQEtoPVfg9VtwaJ7dNulyl899kXSvgpwhrMmoNt2cuwqufJFEs6aJLnSNOxsuFThHDRnZkBL+NlDIFwCCOiw7Cqj7UoAAT0w/dr12oz8CxDQ4d4LGXlsBBDQ+hFU2pKBfL97lQd+TRXOvmiQK18k7UzCGc6agG7bybGr5MoXyag4I6DlcrOHQLgEENAj78Ri+4AIaAT0wAggoMO9FzLy2AggoPWjr7QlA/l+9yqiQVOFsy8a5MoXSTuTcIazJqDbdnLsKrnyRTIqzghoudzsIRAuAQR0bH525D8vAnpg+nXks9X1AyKgw70XMvLYCCCg9aOvtCUD+X73KqJBU4WzLxrkyhdJO5NwhrMmoNt2cuwqufJFMirOCGi53OwhEC4BBHRXp8QLwiKAgEZAD4wAAjrceyEjj40AAlo/+kpbMpDvd68iGjRVOPuiQa58kbQzCWc4awK6bSfHrpIrXySj4oyAlsvNHgLhEkBAh2VXGW1XAgjogenXrtdm5F+AgA73XsjIYyOAgNaPvtKWDOT73auIBk0Vzr5okCtfJO1MwhnOmoBu28mxq+TKF8moOCOg5XKzh0C4BBDQI+/EYvuACGgE9MAIIKDDvRcy8tgIIKD1o6+0JQP5fvcqokFThbMvGuTKF0k7k3CGsyag23Zy7Cq58kUyKs4IaLnc7CEQLgEEdGx+duQ/LwJ6YPp15LPV9QMioMO9FzLy2AggoPWjr7QlA/l+9yqiQVOFsy8a5MoXSTuTcIazJqDbdnLsKrnyRTIqzghoudzsIRAuAQR0V6fEC8IigIBGQA+MAAI63HshI4+NAAJaP/pKWzKQ73evIho0VTj7okGufJG0MwlnOGsCum0nx66SK18ko+KMgJbLzR4C4RJAQIdlVxltVwII6IHp167XZuRfgIAO917IyGMjoAX0eoet1tg6FNddquvr66urq704sj0qzquZ26xcqnCGsyag2+SqOA1+j4qzIlfFWZGr4qyGLVf1eh0BHdt/rvN5R48AAnrknVhsHxABjYAeGAEE9OjdI/lEo0pAC2g9C0m35bPrHt12qTLzyxdJ+yrAGc6agG7bybGr5MoXSThrkuRK07Cz4VKFc9CcEdASfvYQCJcAAjo2PzvynxcBPTD9OvLZ6voBEdDh3gsZeWwEEND6EVTakoF8v3uVB35NFc6+aJArXyTtTMIZzpqAbtvJsavkyhfJqDgjoOVys4dAuAQQ0F2dEi8IiwACGgE9MAII6HDvhYw8NgIIaP3oK23JQL7fvYpo0FTh7IsGufJF0s4knOGsCei2nRy7Sq58kYyKMwJaLjd7CIRLAAEdll1ltF0JIKAHpl+7XpuRfwECOtx7ISOPjQACWj/6SlsykO93ryIaNFU4+6JBrnyRtDMJZzhrArptJ8eukitfJKPijICWy80eAuESQECPvBOL7QMmK6sv8wcCgyIQ7s2AkUMgKgIIaP3oK20JQL7fvYpo0FTh7IsGufJF0s4knOGsCei2nRy7Sq58kYyKMwJaLjd7CIRLAAEdm58d+c/LDGhmQA+MADOgw70XMvLYCCCg9aOvtCUD+X73KqJBU4WzLxrkyhdJO5NwhrMmoNt2cuwqufJFMirOCGi53OwhEC4BBPTIC9nYPiACemD6Nbao5T8vAjrceyEjj40AAlo/+kpbMpDvd68iGjRVOPuiQa58kbQzCWc4awK6bSfHrpIrXySj4oyAlsvNHgLhEkBA5yUSPUETQEAjoAdGAAEd7r2QkcdGAAGtH32lLRnI97tXEQ2aKpx90SBXvkjamYQznDUB3baTY1fJlS+SUXFGQMvlZg+BcAkgoIOWrQw+TwABPTD9mr8YsfUgoMO9FzLy2AhoAd3ps7/e2HpR3d3drdVqvTiyPWbOq5nbrFyqcIazJqDb5Ko4DX6PirMiV8VZkavirIYtV/V6HQGtLx9tCIRIAAEdmyIb+c+LgEZAD4wAAjrEuyBjjpMAAjp/3V0eNe338sCvadusXKpwhrMmoNvkqjgNfo+KsyJXxVmRq+KsOuUKAa0Z0oZAoAQQ0CMvZGP7gAjogenX2KKW/7wI6EBvhAw7QgJaQOu/BqvbgkX36LZLlb967IukfRXgDGdNQLft5NhVcuWLJJw1SXKladjZcKnCOWjOzICW8LOHQLgEENB5iURP0AQQ0AjogRFAQId7L2TksRFAQOtHUGlLBvL97lUe+DVVOPuiQa58kbQzCWc4awK6bSfHrpIrXySj4oyAlsvNHgLhEkBABy1bGXyeAAJ6YPo1fzFi60FAh3svZOSxEUBA60dfaUsG8v3uVUSDpgpnXzTIlS+SdibhDGdNQK9DCqUAACAASURBVLft5NhVcuWLZFScEdByudlDIFwCCOjYFNnIf14ENAJ6YAQQ0OHeCxl5bAQQ0PrRV9qSgXy/exXRoKnC2RcNcuWLpJ1JOMNZE9BtOzl2lVz5IhkVZwS0XG72EAiXAAJ65IVsbB8QAT0w/Rpb1PKfFwEd7r2QkcdGAAGtH32lLRnI97tXEQ2aKpx90SBXvkjamYQznDUB3baTY1fJlS+SUXFGQMvlZg+BcAkgoPMSiZ6gCSCgEdADI4CADvdeyMhjI4CA1o++0pYM5Pvdq4gGTRXOvmiQK18k7UzCGc6agG7bybGr5MoXyag4I6DlcrOHQLgEENBBy1YGnyfgTUCvnPn45Jm1/AlyPRfvT9psxd47MFWa+xSMxAMBBHS490JGHhsBBLR+9JW2ZCDf715FNGiqcPZFg1z5ImlnEs5w1gR0206OXSVXvkhGxRkBLZebPQTCJYCARsSNGAGfAvr+S+2l5IX7lHG+7+IewUsPJHecWdlu/5YRo8zHaUsAAR3uvZCRx0YAAa0ffaUtGcj3u1cRDZoqnH3RIFe+SNqZhDOcNQHdtpNjV8mVL5JRcUZAy+VmD4FwCSCg23okOsMl0FFAf+5znyvwqdYeuUPJZd3MRPOeYr54f/LABaWbC8+YxlCPLAEEdLj3QkYeGwEtoDt99tcbWy+qu7u7tVqtF0e2x8x5NXOblUsVznDWBHSbXBWnwe9RcVbkqjgrclWc1bDlql6vI6D15aMNgRAJIKALOMmR1WUj+dktAV3MQcv1Xnvkjo8/sty89pceSERAL5+Z3JvmnAnots76gJseSdB8qDwBBHSId0HGHCcBBHT+urs8atrv5YFf07ZZuVThDGdNQLfJVXEa/B4VZ0WuirMiV8VZdcoVAlozpA2BQAkgoPMSiZ6gCXQR0IUc9PKZySQ5sIhzJqCzxrYW0EpVp3Ois1LTX6uJ0kHDZfA2AQR0oDdChh0hAS2g9V+D1W3Bont026XKXz32RdK+CnCGsyag23Zy7Cq58kUSzpokudI07Gy4VOEcNGdmQEv42UMgXAIIaFsoUQ2OQHcBbTnohnpus5Sz9KcrcmSuObPM2VzptUfukInPWQkBHRcBBHS490JGHhsBBLR+BJW2ZCDf717lgV9ThbMvGuTKF0k7k3CGsyag23Zy7Cq58kUyKs4IaLnc7CEQLgEEdHCClQHbBNwEdOtU5cwp50VqZpkR0Hk4kfYgoMO9FzLy2AggoPWjr7QlA/l+9yqiQVOFsy8a5MoXSTuTcIazJqDbdnLsKrnyRTIqzghoudzsIRAuAQS0bTOpBkegu4C2PtKlB/T3DrZt339J7CoCOlLLbOQHAR3uvZCRx0YAAa0ffaUtGcj3u1cRDZoqnH3RIFe+SNqZhDOcNQHdtpNjV8mVL5JRcUZAy+VmD4FwCSCgDZtEKUQCXQR0yY9kz4BuCOo7Hrhfvq6wzfcTomjjIoCADvdeyMhjI4CA1o++0pYM5Pvdq4gGTRXOvmiQK18k7UzCGc6agG7bybGr5MoXyag4I6DlcrOHQLgEENAlhWRcPi1EOJaALvx5Lt6/t9ZzU0BfekAvDH3hvoZ6vu+iOuDaI3eIjz6z0rqOB6GJhQACOtx7ISOPjQACWj/6SlsykO93ryIaNFU4+6JBrnyRtDMJZzhrArptJ8eukitfJKPijICWy80eAuESQEArhRiLJRvtj9xRQBf92OkqHNk3DTYF9PbOVmN1jskza22OI19RKD7aeBlietQJIKDDvRcy8tgIIKD1o6+0JQP5fvcqokFThbMvGuTKF0k7k3CGsyag23Zy7Cq58kUyKs4IaLnc7CEQLgEEdBudOOqWbLQ/spOAXjnz8eZM54v3ywrQd+gZzek05+Ya0PL/KxoTnw+8Ju2/cF/SXlWTrZEmgIAO917IyGMjgIDWj77Slgzk+92riAZNFc6+aJArXyTtTMIZzpqAbtvJsavkyhfJqDgjoOVys4dAuAQQ0KNtYyP8dE4COkJefGSPBBDQ4d4LGXlsBLSA7vTZX29svaju7u7WarVeHNkeM+fVzG1WLlU4w1kT0G1yVZwGv0fFWZGr4qzIVXFWw5arer2OgNaXjzYEQiSAgPZonzjUMBBAQLOUzMAIIKBDvAsy5jgJIKDz193lUdN+Lw/8mrbNyqUKZzhrArpNrorT4PeoOCtyVZwVuSrOqlOuENCaIW0IBEoAAT0MzpQxeCSAgB6YfvV4FQM9FAI60Bshw46QgBbQ+q/B6rZg0T267VLlrx77ImlfBTjDWRPQbTs5dpVc+SIJZ02SXGkadjZcqnAOmjMzoCX87CEQLgEEdKCmi2F3IoCARkAPjAACOtx7ISOPjQACWj+CSlsykO93r/LAr6nC2RcNcuWLpJ1JOMNZE9BtOzl2lVz5IhkVZwS0XG72EAiXAAK6k8ekP1ACCOiB6ddAE+Nx2AjocO+FjDw2Agho/egrbclAvt+9imjQVOHsiwa58kXSziSc4awJ6LadHLtKrnyRjIozAlouN3sIhEsAAe3RPnGoYSCAgEZAD4wAAjrceyEjj40AAlo/+kpbMpDvd68iGjRVOPuiQa58kbQzCWc4awK6bSfHrpIrXySj4oyAlsvNHgLhEkBAD4MzZQweCSCgB6ZfPV7FQA+FgA73XsjIYyOAgNaPvtKWDOT73auIBk0Vzr5okCtfJO1MwhnOmoBu28mxq+TKF8moOCOg5XKzh0C4BBDQgZouht2JAAIaAT0wAgjocO+FjDw2Agho/egrbclAvt+9imjQVOHsiwa58kXSziSc4awJ6LadHLtKrnyRjIozAlouN3sIhEsAAd3JY9IfKAEE9MD0a6CJ8ThsBHS490JGHhsBBLR+9JW2ZCDf715FNGiqcPZFg1z5ImlnEs5w1gR0206OXSVXvkhGxRkBLZebPQTCJYCA9mifONQwEEBAI6AHRgABHe69kJHHRgABrR99pS0ZyPe7VxENmiqcfdEgV75I2pmEM5w1Ad22k2NXyZUvklFxRkDL5WYPgXAJIKCHwZkyBo8EENAD068er2Kgh0JAh3svZOSxEUBA60dfaUsG8v3uVUSDpgpnXzTIlS+SdibhDGdNQLft5NhVcuWLZFScEdByudlDIFwCCOhATRfD7kQAAY2AHhgBBHS490JGHhsBLaDXO2y1xtahuO5SXV9fX11d7cWR7VFxXs3cZuVShTOcNQHdJlfFafB7VJwVuSrOilwVZzVsuarX6wjo2P5znc87egQQ0J08Jv2BEkius0FgQAQQ0KN3j+QTjSoBLaD1LCTdls+ue3TbpcrML18k7asAZzhrArptJ8eukitfJOGsSZIrTcPOhksVzkFzRkBL+NlDIFwCCOhANSvD7kSAGdADm//b6ZLE04+ADvdeyMhjI4CA1o+g0pYM5Pvdqzzwa6pw9kWDXPkiaWcSznDWBHTbTo5dJVe+SEbFGQEtl5s9BMIlgICOR45F8kkR0AjogRFAQId7L2TksRFAQOtHX2lLBvL97lVEg6YKZ180yJUvknYm4QxnTUC37eTYVXLli2RUnBHQcrnZQyBcAgjoSLRsPB8TAT0w/RpPyDp9UgR0uPdCRh4bAQS0fvSVtmQg3+9eRTRoqnD2RYNc+SJpZxLOcNYEdNtOjl0lV75IRsUZAS2Xmz0EwiWAgO6kkugPlAACGgE9MAII6HDvhYw8NgIIaP3oK23JQL7fvYpo0FTh7IsGufJF0s4knOGsCei2nRy7Sq58kYyKMwJaLjd7CIRLAAEdqGZl2J0IIKAHpl87XZJ4+hHQ4d4LGXlsBBDQ+tFX2pKBfL97FdGgqcLZFw1y5YuknUk4w1kT0G07OXaVXPkiGRVnBLRcbvYQCJcAAjoeORbJJ0VAI6AHRgABHe69kJHHRgABrR99pS0ZyPe7VxENmiqcfdEgV75I2pmEM5w1Ad22k2NXyZUvklFxRkDL5WYPgXAJIKAj0bLxfEwE9MD0azwh6/RJEdDh3gsZeWwEEND60VfakoF8v3sV0aCpwtkXDXLli6SdSTjDWRPQbTs5dpVc+SIZFWcEtFxu9hAIlwACupNKoj9QAghoBPTACCCgw70XMvLYCGgB3emzv97YelHd3d2t1Wq9OLI9Zs6rmdusXKpwhrMmoNvkqjgNfo+KsyJXxVmRq+Kshi1X9XodAa0vH20IhEgAAR2oZmXYnQggoAemXztdknj6EdAh3gUZc5wEEND56+7yqGm/lwd+Tdtm5VKFM5w1Ad0mV8Vp8HtUnBW5Ks6KXBVn1SlXCGjNkDYEAiWAgI5HjkXySRHQCOiBEUBAB3ojZNgREtACWv81WN0WLLpHt12q/NVjXyTtqwBnOGsCum0nx66SK18k4axJkitNw86GSxXOQXNmBrSEnz0EwiWAgI5Ey8bzMRHQA9Ov8YSs0ydFQId7L2TksRFAQOtHUGlLBvL97lUe+DVVOPuiQa58kbQzCWc4awK6bSfHrpIrXySj4oyAlsvNHgLhEkBAd1JJ9AdKwKuAvvRAkjxwYbu90l058/Hkvotb6Wtato5vCZQpwy5IAAEd7r2QkcdGAAGtH32lLRnI97tXEQ2aKpx90SBXvkjamYQznDUB3baTY1fJlS+SUXFGQMvlZg+BcAkgoAuaJV4WCoGOAvpzn/tct8+w9sgdLSq53Y93nFnZ3km9830X9w64fGZSOrd3tnS7g7nuNoz2vpt3DT8BBHS490JGHhsBBLR+9JW2ZCDf715FNGiqcPZFg1z5ImlnEs5w1gR0206OXSVXvkhGxRkBLZebPQTCJYCAHn6pxQhLEbAEdAEHncrflTMfv/9SzgK3GOeGfU4nQd9xZkVJ5/bvxUTHQQABHe69kJHHRgABrR99pS0ZyPe7VxENmiqcfdEgV75I2pmEM5w1Ad22k2NXyZUvklFxRkDL5WYPgXAJIKBLyU1ePPwEugjoIg461cptt+aUZ/WCxmoby2cm91bquHh/5yU7hp8dI3QkgIAO917IyGMjgIDWj77Slgzk+92riAZNFc6+aJArXyTtTMIZzpqAbtvJsavkyhfJqDgjoOVys4dAuAQQ0I7GibcPG4HuArqIgy7wqS7en3z8keXGROlUQCfppOlGI3XX2Yocccz8LYArN6N8FMkgoMO9FzLy2AggoPWjr7QlA/l+9yqiQVOFsy8a5MoXSTuTcIazJqDbdnLsKrnyRTIqzghoudzsIRAuAQQ06mzECDgK6Iv3t537vN8pXzCYrha9v0yHfA9hc350qqGz9ihq1hFLjMePg4AO917IyGMjgIDWj77Slgzk+92riAZNFc6+aJArXyTtTMIZzpqAbtvJsavkyhfJqDgjoOVys4dAuAQQ0B7tE4caBgLdBbQ5SnsNjbVH7sjW3Gg66fsuNr6Q8Mwjd+xNiL5wn3LTCOiYCCCgw70XMvLYCGgB3emzv97YelHd3d2t1Wq9OLI9Zs6rmdusXKpwhrMmoNvkqjgNfo+KsyJXxVmRq+Kshi1X9XodAa0vH20IhEgAAW3ayCiWDRgxAl0EdLdP2xTQMqm5KZmTJJk8s7a13RTQB6Xqhfsa1UsPtHwhYbdzEa9RI4CADvEuyJjjJICAzl93l0dN+7088GvaNiuXKpzhrAnoNrkqToPfo+KsyFVxVuSqOKtOuUJAa4a0IRAoAQQ0knDECFgCusBHVQJaLaOxcubjnQX0mp77nGQLQx+U1AVOPWo2NsKPjIAO9EbIsCMkoAW0/muwui1YdI9uu1T5q8e+SNpXAc5w1gR0206OXSVXvkjCWZMkV5qGnQ2XKpyD5swMaAk/ewiESwABHaElG+2P3FFAF/vYSkCr6c8tM6Av3Ldfu/++xsTnVDfvrR/dUNXY5BgJIKDDvRcy8tgIIKD1I6i0JQP5fvcqD/yaKpx90SBXvkjamYQznDUB3baTY1fJlS+SUXFGQMvlZg+BcAkgoItpyRhlWqBk/AloNQO6yaKpp/dnN1+8X6Y8L5+Z3Fumo6Gh27yXDI0+AQR0uPdCRh4bAQS0fvSVtmQg3+9eRTRoqnD2RYNc+SJpZxLOcNYEdNtOjl0lV75IRsUZAS2Xmz0EwiWAgG6qxdGXY5F8Uk8Cel8xN5KRLQl90CzvLc2RVve+gVAop1OkD74yEvqRf0wEdLj3QkYeGwEEtH70lbZkIN/vXkU0aKpw9kWDXPkiaWcSznDWBHTbTo5dJVe+SEbFGQEtl5s9BMIlgICO3JiN3sd3FND8jwgIHJ4AAjrceyEjj40AAlo/+kpbMpDvd68iGjRVOPuiQa58kbQzCWc4awK6bSfHrpIrXySj4oyAlsvNHgLhEkBAj56BjfwTIaAP708jj477x0dAh3svZOSxEUBA60dfaUsG8v3uVUSDpgpnXzTIlS+SdibhDGdNQLft5NhVcuWLZFScEdByudlDIFwCCGh36cQRhooAAhoBPTACCOhw74WMPDYCCGj96CttyUC+372KaNBU4eyLBrnyRdLOJJzhrAnotp0cu0qufJGMijMCWi43ewiESwABPVTylMG4E0BAD0y/ul+80I+AgA73XsjIYyOAgNaPvtKWDOT73auIBk0Vzr5okCtfJO1MwhnOmoBu28mxq+TKF8moOCOg5XKzh0C4BBDQoSsvxt9CAAGNgB4YAQR0uPdCRh4bAS2gO3321xtbL6q7u7u1Wq0XR7bHzHk1c5uVSxXOcNYEdJtcFafB71FxVuSqOCtyVZzVsOWqXq8joPXlow2BEAkgoFv0JT+GTgABPTD9Gnp03MePgA7xLsiY4ySAgM5fd5dHTfu9PPBr2jYrlyqc4awJ6Da5Kk6D36PirMhVcVbkqjirTrlCQGuGtCEQKAEEtLt04ghDRQABjYAeGAEEdKA3QoYdIQEtoPVfg9VtwaJ7dNulyl899kXSvgpwhrMmoNt2cuwqufJFEs6aJLnSNOxsuFThHDRnZkBL+NlDIFwCCOihkqcMxp0AAnpg+tX94oV+BAR0uPdCRh4bAQS0fgSVtmQg3+9e5YFfU4WzLxrkyhdJO5NwhrMmoNt2cuwqufJFMirOCGi53OwhEC4BBHToyovxtxBAQCOgB0YAAR3uvZCRx0YAAa0ffaUtGcj3u1cRDZoqnH3RIFe+SNqZhDOcNQHdtpNjV8mVL5JRcUZAy+VmD4FwCSCgW/QlP4ZOAAE9MP0aenTcx4+ADvdeyMhjI4CA1o++0pYM5Pvdq4gGTRXOvmiQK18k7UzCGc6agG7bybGr5MoXyag4I6DlcrOHQLgEENDu0okjDBUBBDQCemAEENDh3gsZeWwEEND60VfakoF8v3sV0aCpwtkXDXLli6SdSTjDWRPQbTs5dpVc+SIZFWcEtFxu9hAIlwACeqjkKYNxJ5BcZ4PAgAggoMO9FzLy2AggoPWjr7QlA/l+9yqiQVOFsy8a5MoXSTuTcIazJqDbdnLsKrnyRTIqzghoudzsIRAuAQS0u/HkCENFgBnQA5v/O1Q5GMhgENDh3gsZeWwEEND60VfakoF8v3sV0aCpwtkXDXLli6SdSTjDWRPQbTs5dpVc+SIZFWcEtFxu9hAIlwACeiCeipP2jgACGgE9MAII6HDvhYw8NgIIaP3oK23JQL7fvYpo0FTh7IsGufJF0s4knOGsCei2nRy7Sq58kYyKMwJaLjd7CIRLAAHdOxPKkQdCAAE9MP06kOs9VCdFQId7L2TksRFAQOtHX2lLBvL97lVEg6YKZ180yJUvknYm4QxnTUC37eTYVXLli2RUnBHQcrnZQyBcAgjoofJXDMadAAIaAT0wAgjocO+FjDw2AlpAr3fYao2tQ3Hdpbq+vr66utqLI9uj4ryauc3KpQpnOGsCuk2uitPg96g4K3JVnBW5Ks5q2HJVr9cR0LH95zqfd/QIIKDdjSdHGCoCCOiB6dehysFABoOAHr17JJ9oVAloAa1nIem2fHbdo9suVWZ++SJpXwU4w1kT0G07OXaVXPkiCWdNklxpGnY2XKpwDpozAlrCzx4C4RJAQA/EU3HS3hFAQCOgB0YAAR3uvZCRx0YAAa0fQaUtGcj3u1d54NdU4eyLBrnyRdLOJJzhrAnotp0cu0qufJGMijMCWi43ewiESwAB3TsTypEHQgABPTD9OpDrPVQnRUCHey9k5LERQEDrR19pSwby/e5VRIOmCmdfNMiVL5J2JuEMZ01At+3k2FVy5YtkVJwR0HK52UMgXAII6KHyVwzGnQACGgE9MAII6HDvhYw8NgIIaP3oK23JQL7fvYpo0FTh7IsGufJF0s4knOGsCei2nRy7Sq58kYyKMwJaLjd7CIRLAAHtbjw5wlARQEAPTL8OVQ4GMhgEdLj3QkYeGwEEtH70lbZkIN/vXkU0aKpw9kWDXPkiaWcSznDWBHTbTo5dJVe+SEbFGQEtl5s9BMIlgIAeiKfipL0jgIBGQA+MAAI63HshI4+NAAJaP/pKWzKQ73evIho0VTj7okGufJG0MwlnOGsCum0nx66SK18ko+KMgJbLzR4C4RJAQPfOhP5/7Z1Pjx3Xeafvt9B3mIWzy3ICzMK2JJMAAS8HzmYQzGZmiEFgJAHZCAJNqH+2M5PEkeCehmejhYOBMTAMSCJIGwi88GAWkmgZjRYJiFTUasOSIprtkHaTuoOqt+/tX3f1fe9pnVNd9dZ5GkT57fPeP6ee8+tbqsfV1bzyIAQQ0IPp10HWe1RvioCOeyxk5rURQEDrqa/VloHueH4X0aBU4VyKBrkqRdLPJJzhrAS09pPjd8lVKZJVcUZA23KzhUBcAgjoUfkrJpNPoISA3t66cGlr54Ga3Dubly5ubuuI1jeuzjauH3u8dqlrIYCAjnssZOa1EUBA66mv1ZaB7nh+F9GgVOFciga5KkXSzySc4awEtPaT43fJVSmSVXFGQNtys4VAXAII6HzjySuMisBKAf3qq6+un+jNjdm6r6s3uzoVAd1lUuMIAjrusZCZ10ZABfSqfX/YfvXRPTg42N3d7eOV/TnzvsrcZ5XThTOclYDW5CqdBj9H6azIVTorcpXOamy5ms/nCGhdPmoIRCSAgF7vJLmwNRQBT0AnOegH+/fXXQG9s3VxnaaeXdi6Q7ZqI4CAjngUZM51EkBAd9c951TTfy4n/ErbZ5XThTOclYDW5CqdBj9H6azIVTorcpXOalWuENDKkBoCQQkgoGtTZJPf3zUCOslBb29dOEUwr7wFx/Ur7aOv3Jg8XHbQJ4CADnogZNoVElABrb8Gq7Vh0RGtc7r86nEpkv4qwBnOSkBrPzl+l1yVIglnJUmulIafjZwunENz5gpoCz9bCMQlgID2hRLdcATWC+j1DnrdFdAKZWfr4tWbzS04NpuixvtOKI3KawR03GMhM6+NAAJaT0Gttgx0x/O7nPArVTiXokGuSpH0MwlnOCsBrf3k+F1yVYpkVZwR0LbcbCEQlwACunJjNr3dLySg066Abu7F0Vz4bPeA9v9QIW56+gQQ0HGPhcy8NgIIaD31tdoy0B3P7yIalCqcS9EgV6VI+pmEM5yVgNZ+cvwuuSpFsirOCGhbbrYQiEsAAT09A1v5Hq0X0OsBpV0BvbDP+wsBbcXKO3Wsf99QN9tmd7oEENBxj4XMvDYCCGg99bXaMtAdz+8iGpQqnEvRIFelSPqZhDOclYDWfnL8LrkqRbIqzghoW262EIhLAAHdlUiMhCawRkD7+3Z4N+dTLn+WoeaS5zubl2bttc92Va9dAb2s+QuE07/Y+dQgIaDjHguZeW0EENB66mu1ZaA7nt9FNChVOJeiQa5KkfQzCWc4KwGt/eT4XXJVimRVnBHQttxsIRCXAAL6VI/EYFwCnoBO3aubG7OZXci8MMvNnyU8urT5+pVWMZ/6twovbe20evrC1p3Ut+PC56kQQEDHPRYy89oIIKD11Ndqy0B3PL+LaFCqcC5Fg1yVIulnEs5wVgJa+8nxu+SqFMmqOCOgbbnZQiAuAQQ0knBiBFYK6JT9PLwC+spWc4Hzia9LG1dtsLkC+sQVvgtPfXL8xMP4duIEENBxj4XMvDYCCGg99bXaMtAdz+8iGpQqnEvRIFelSPqZhDOclYDWfnL8LrkqRbIqzghoW262EIhLAAHdcYkTV2ST398sAd2hk2iWEx9GtiZOAAEd91jIzGsjgIDWU1+rLQPd8fwuokGpwrkUDXJViqSfSTjDWQlo7SfH75KrUiSr4oyAtuVmC4G4BBDQHeU4cUU2+f3NFNA3rp648PnktxvXT7nMGQHNj01DAAEd91jIzGsjoAJ61b4/bL/66B4cHOzu7vbxyv6ceV9l7rPK6cIZzkpAa3KVToOfo3RW5CqdFblKZzW2XM3ncwS0Lh81BCISQEBPXsjWtoOZAhqRCoEvTgABHfEoyJzrJICA7q57zqmm/1xO+JW2zyqnC2c4KwGtyVU6DX6O0lmRq3RW5Cqd1apcIaCVITUEghJAQNfmZye/vwjoL+5PJx+OvncQAR30QMi0KySgAlp/DVZrw6IjWud0+dXjUiT9VYAznJWA1n5y/C65KkUSzkqSXCkNPxs5XTiH5swV0BZ+thCISwAB3beS4vXPmQACGgE9GAEEdNxjITOvjQACWk9BrbYMdMfzu5zwK1U4l6JBrkqR9DMJZzgrAa395PhdclWKZFWcEdC23GwhEJcAAvqc9Shv1zcBBPRg+rXvpR3/6yOg4x4LmXltBBDQeuprtWWgO57fRTQoVTiXokGuSpH0MwlnOCsBrf3k+F1yVYpkVZwR0LbcbCEQlwACevxSixmeiQACGgE9GAEEdNxjITOvjQACWk99rbYMdMfzu4gGpQrnUjTIVSmSfibhDGcloLWfHL9LrkqRrIozAtqWmy0E4hJAQJ9JbvLg8RNAQA+mX8cfjr5niICOeyxk5rURQEDrqa/VloHueH4X0aBU4VyKBrkqRdLPJJzhrAS09pPjd8lV9OzjawAAIABJREFUKZJVcUZA23KzhUBcAgjovpUUr3/OBBDQCOjBCCCg4x4LmXltBBDQeuprtWWgO57fRTQoVTiXokGuSpH0MwlnOCsBrf3k+F1yVYpkVZwR0LbcbCEQlwAC+pz1KG/XNwEE9GD6te+lHf/rI6DjHguZeW0EENB66mu1ZaA7nt9FNChVOJeiQa5KkfQzCWc4KwGt/eT4XXJVimRVnBHQttxsIRCXAAJ6/FKLGZ6JAAIaAT0YAQR03GMhM6+NAAJaT32ttgx0x/O7iAalCudSNMhVKZJ+JuEMZyWgtZ8cv0uuSpGsijMC2pabLQTiEkBAn0lu8uDxE0BAD6Zfxx+OvmeIgI57LGTmtRFQAb1q3x+2X310Dw4Odnd3+3hlf868rzL3WeV04QxnJaA1uUqnwc9ROitylc6KXKWzGluu5vM5AlqXjxoCEQkgoPtWUrz+ORNAQCOgByOAgI54FGTOdRJAQHfXPedU038uJ/xK22eV04UznJWA1uQqnQY/R+msyFU6K3KVzmpVrhDQypAaAkEJIKDPWY/ydn0TmH3IFwQGIoCADnogZNoVElABrb8Gq7Vh0RGtc7r86nEpkv4qwBnOSkBrPzl+l1yVIglnJUmulIafjZwunENz5gpoCz9bCMQlgIDu24fy+udMgCugB7v+95xXeoRvh4COeyxk5rURQEDrKajVloHueH6XE36lCudSNMhVKZJ+JuEMZyWgtZ8cv0uuSpGsijMC2pabLQTiEkBAj9BiMaUcAghoBPRgBBDQcY+FzLw2AghoPfW12jLQHc/vIhqUKpxL0SBXpUj6mYQznJWA1n5y/C65KkWyKs4IaFtuthCISwABneM6ee4ICSCgB9OvI0zDOU8JAR33WMjMayOAgNZTX6stA93x/C6iQanCuRQNclWKpJ9JOMNZCWjtJ8fvkqtSJKvijIC25WYLgbgEENDnbKh4u74JIKAR0IMRQEDHPRYy89oIIKD11Ndqy0B3PL+LaFCqcC5Fg1yVIulnEs5wVgJa+8nxu+SqFMmqOCOgbbnZQiAuAQR03z6U1z9nAgjowfTrOa/0CN8OAR33WMjMayOAgNZTX6stA93x/C6iQanCuRQNclWKpJ9JOMNZCWjtJ8fvkqtSJKvijIC25WYLgbgEENAjtFhMKYcAAhoBPRgBBHTcYyEzr40AAlpPfa22DHTH87uIBqUK51I0yFUpkn4m4QxnJaC1nxy/S65KkayKMwLalpstBOISQEDnuE6eO0ICCOjB9OsI03DOU0JAxz0WMvPaCCCg9dTXastAdzy/i2hQqnAuRYNclSLpZxLOcFYCWvvJ8bvkqhTJqjgjoG252UIgLgEE9DkbKt6ubwIIaAT0YAQQ0HGPhcy8NgIIaD31tdoy0B3P7yIalCqcS9EgV6VI+pmEM5yVgNZ+cvwuuSpFsirOCGhbbrYQiEsAAd23D+X1z5kAAnow/XrOKz3Ct0NAxz0WMvPaCKiA3lvxtdt+rWju5XT39vZu377dxyv7s+J9lbnPKqcLZzgrAa3JVToNfo7SWZGrdFbkKp3V2HI1n88R0LX95zr7Oz0CCOgRWiymlEMAAY2AHowAAnp6x0j2aKoEVEDrVUha277riNY5Xa78KkXSXwU4w1kJaO0nx++Sq1Ik4awkyZXS8LOR04VzaM4IaAs/WwjEJYCAznGdPHeEBBDQg+nXEabhnKeEgI57LGTmtRFAQOspqNWWge54fpcTfqUK51I0yFUpkn4m4QxnJaC1nxy/S65KkayKMwLalpstBOISQECfs6Hi7fomkC+g72xeml29KRp3e+vCpa2dBzJitY5r3X0kI3UQQEDHPRYy89oIIKD11Ndqy0B3PL+LaFCqcC5Fg1yVIulnEs5wVgJa+8nxu+SqFMmqOCOgbbnZQiAuAQR03z6U1z9nAtkC+ubGTL4ubN25fkW+n81mV24c7tL2nc221dhqBHQditlPMwI67rGQmddGAAGtp75WWwa64/ldRINShXMpGuSqFEk/k3CGsxLQ2k+O3yVXpUhWxRkBbcvNFgJxCSCgfaFENxyBlQL61VdfTdiZG1dnG9cfiFDe3rrQGufrV45dFr2zdfHQRN/cmF3a2kFAI6Af7COg4x4LmXltBBDQeuprtWWgO57fRTQoVTiXokGuSpH0MwlnOCsBrf3k+F1yVYpkVZwR0LbcbCEQlwACOsFJdm69gGobMQFPQK910AvLfOPqpa3rWxev3ty/fqXx0e34nc1LrZtud35ne+tqc2H0xc3tNh8I6BFn4tx+yBHQcY+FzLw2AghoPfW12jLQHc/vIhqUKpxL0SBXpUj6mYQznJWA1n5y/C65KkWyKs4IaFtuthCISwABfW5uijc6HwJrBPRaB22z3Nm6eGHrzuGMHblslz8/2L+/LPCwFRNAQMc9FjLz2gggoPXU12rLQHc8v4toUKpwLkWDXJUi6WcSznBWAlr7yfG75KoUyao4I6BtudlCIC4BBPT5WFHe5dwIrBfQjoM+ebvn4zd/Pvzu1D9IiICu2Dsvw42AjnssZOa1EUBA66mv1ZaB7nh+F9GgVOFciga5KkXSzySc4awEtPaT43fJVSmSVXFGQNtys4VAXAII6KU7opgGgSwBff/Bnc1Li7tq6J2gj9vV5gbQa7+Wf6vw+HOnQZm9OJUAAjrusZCZ10ZABfSqfX/YfvXRPTg42N3d7eOV/TnzvsrcZ5XThTOclYDW5CqdBj9H6azIVTorcpXOamy5ms/nCGhdPmoIRCSAgD7VIzEYl8B6Ae3u253NS8fVcnO988JK39w4/MODHad89DcJOy337bi/+KQIIKAjHgWZc50EENDddc851fSfywm/0vZZ5XThDGcloDW5SqfBz1E6K3KVzopcpbNalSsEtDKkhkBQAgho9ODECKwR0Ov2duGazSMf3v15MbhKQG9vXWit9dFto9HQVRJAQAc9EDLtCgmogNZfg9XasOiI1jldfvW4FEl/FeAMZyWgtZ8cv0uuSpGEs5IkV0rDz0ZOF86hOXMFtIWfLQTiEkBArxOSk7pAs4ad9QR0wv6f+Qro9nYch3ftaG8hLXfwqFLCJkCe7A8VAjrusZCZ10YAAa2noFZbBrrj+V1O+JUqnEvRIFelSPqZhDOclYDWfnL8LrkqRbIqzghoW262EIhLAAFdsy6b5L6vFNBpe7u42DnlCuibG811zyf+JqFdDc0NoKuU7wjouMdCZl4bAQS0nvpabRnojud3EQ1KFc6laJCrUiT9TMIZzkpAaz85fpdclSJZFWcEtC03WwjEJYCATtOSk71kc3q7X0pA37hq94JuVfLyrw4e3mTD1PNqy3z9yozbcUwvW2v3CAEd91jIzGsjgIDWU1+rLQPd8fwuokGpwrkUDXJViqSfSTjDWQlo7SfH75KrUiSr4oyAtuVmC4G4BBDQa50SD4hFIFNA8381QOCLE0BAxz0WMvPaCCCg9dTXastAdzy/i2hQqnAuRYNclSLpZxLOcFYCWvvJ8bvkqhTJqjgjoG252UIgLgEEdCy7ymzXEkBAf3F/uhYuD/AJIKDjHguZeW0EENB66mu1ZaA7nt9FNChVOJeiQa5KkfQzCWc4KwGt/eT4XXJVimRVnBHQttxsIRCXAALaF0p0wxFAQCOgByOAgI57LGTmtRFAQOupr9WWge54fhfRoFThXIoGuSpF0s8knOGsBLT2k+N3yVUpklVxRkDbcrOFQFwCCOhwgpUJ+wQQ0IPpV39haugioOMeC5l5bQQQ0Hrqa7VloDue30U0KFU4l6JBrkqR9DMJZzgrAa395PhdclWKZFWcEdC23GwhEJcAAroGLVbVPiKgEdCDEUBAxz0WMvPaCKiAXrXvD9uvProHBwe7u7t9vLI/Z95XmfuscrpwhrMS0JpcpdPg5yidFblKZ0Wu0lmNLVfz+RwBrctHDYGIBBDQVcnZGnYWAT2Yfq0hXv4+IqAjHgWZc50EENDddc851fSfywm/0vZZ5XThDGcloDW5SqfBz1E6K3KVzopcpbNalSsEtDKkhkBQAghoXyjRDUcAAY2AHowAAjrogZBpV0hABbT+GqzWhkVHtM7p8qvHpUj6qwBnOCsBrf3k+F1yVYoknJUkuVIafjZyunAOzZkroC38bCEQlwACOpxgZcI+AQT0YPrVX5gaugjouMdCZl4bAQS0noJabRnojud3OeFXqnAuRYNclSLpZxLOcFYCWvvJ8bvkqhTJqjgjoG252UIgLgEEdA1arKp9REAjoAcjgICOeyxk5rURQEDrqa/VloHueH4X0aBU4VyKBrkqRdLPJJzhrAS09pPjd8lVKZJVcUZA23KzhUBcAgjoquRsDTuLgB5Mv9YQL38fEdBxj4XMvDYCCGg99bXaMtAdz+8iGpQqnEvRIFelSPqZhDOclYDWfnL8LrkqRbIqzghoW262EIhLAAHtCyW64QggoBHQgxFAQMc9FjLz2gggoPXU12rLQHc8v4toUKpwLkWDXJUi6WcSznBWAlr7yfG75KoUyao4I6BtudlCIC4BBHQ4wcqEfQKzD/mCwEAEENBxj4XMvDYCCGg99bXaMtAdz+8iGpQqnEvRIFelSPqZhDOclYDWfnL8LrkqRbIqzghoW262EIhLAAHt20y64QhwBfRg1/+Gy0rxCSOg4x4LmXltBBDQeuprtWWgO57fRTQoVTiXokGuSpH0MwlnOCsBrf3k+F1yVYpkVZwR0LbcbCEQlwACuriD4gWHJYCARkAPRgABHfdYyMxrI4CA1lNfqy0D3fH8LqJBqcK5FA1yVYqkn0k4w1kJaO0nx++Sq1Ikq+KMgLblZguBuAQQ0MPaUt69OAEE9GD6tfhahntBBHTcYyEzr42ACuhV+/6w/eqje3BwsLu728cr+3PmfZW5zyqnC2c4KwGtyVU6DX6O0lmRq3RW5Cqd1dhyNZ/PEdC6fNQQiEgAAR3OcTFhnwACGgE9GAEEdMSjIHOukwACurvuOaea/nM54VfaPqucLpzhrAS0JlfpNPg5SmdFrtJZkat0VqtyhYBWhtQQCEoAAe3bTLrhCCCgB9Ov4bJSfMII6KAHQqZdIQEV0PprsFobFh3ROqfLrx6XIumvApzhrAS09pPjd8lVKZJwVpLkSmn42cjpwjk0Z66AtvCzhUBcAgjo4g6KFxyWAAIaAT0YAQR03GMhM6+NAAJaT0Gttgx0x/O7nPArVTiXokGuSpH0MwlnOCsBrf3k+F1yVYpkVZwR0LbcbCEQlwACelhbyrsXJ4CAHky/Fl/LcC+IgI57LGTmtRFAQOupr9WWge54fhfRoFThXIoGuSpF0s8knOGsBLT2k+N3yVUpklVxRkDbcrOFQFwCCOhwjosJ+wQQ0AjowQggoOMeC5l5bQQQ0Hrqa7VloDue30U0KFU4l6JBrkqR9DMJZzgrAa395PhdclWKZFWcEdC23GwhEJcAAtq3mXTDEUBAD6Zfw2Wl+IQR0HGPhcy8NgIIaD31tdoy0B3P7yIalCqcS9EgV6VI+pmEM5yVgNZ+cvwuuSpFsirOCGhbbrYQiEsAAV3cQfGCwxJAQCOgByOAgI57LGTmtRFAQOupr9WWge54fhfRoFThXIoGuSpF0s8knOGsBLT2k+N3yVUpklVxRkDbcrOFQFwCCOhhbSnvXpwAAnow/Vp8LcO9IAI67rGQmddGAAGtp75WWwa64/ldRINShXMpGuSqFEk/k3CGsxLQ2k+O3yVXpUhWxRkBbcvNFgJxCSCgwzkuJuwTyBPQNzdms4ub2+Jwt7cuzGZXb8rIg2V94+psNru0tdM86/jXpa2dB/v32+ceb5z4buP60astX5YiKgEEdNxjITOvjQACWk99rbYMdMfzu4gGpQrnUjTIVSmSfibhDGcloLWfHL9LrkqRrIozAtqWmy0E4hJAQPs2k244AnkCutHBN67OLm5udZzyQh1fvbm/s3Wx/W6hqm9uXNi6I6RuXF0KaCsetE9Z1ItH3tm8hICO6poXi3hs/gjouMdCZl4bAQS0nvpabRnojud3EQ1KFc6laJCrUiT9TMIZzkpAaz85fpdclSJZFWcEtC03WwjEJYCAPtUjMRiXwEoB/eqrr559r+5sXpodl8tL4Xhn81KqgF4I64XDbv534/oDBPQS5kQKBHTcYyEzr42ACui9FV+77deK5l5Od29v7/bt2328sj8r3leZ+6xyunCGsxLQmlyl0+DnKJ0VuUpnRa7SWY0tV/P5HAFd23+us7/TI4CAPruTnIgrm+qOewJ6rYO+fmU2u3JjiUa/3dm6uLgRR2Ol5WvjunMLjktbm1fssQtb3Vxhbff0QEBP7WcJAT29YyR7NFUCKqD1KiStbd91ROucLld+lSLprwKc4awEtPaT43fJVSmScFaS5Epp+NnI6cI5NGcEtIWfLQTiEkBAL2UjxTQIrBHQax10c7Vye68Mtc8tGrnkeXmnDr1bdPduzttbF45uu7HU1svbbiCgEdBxjx3MHAKxCSCg9RTUalvR7nh+lxN+pQrnUjTIVSmSfibhDGcloLWfHL9LrkqRrIozAtqWmy0E4hJAQE/DurIXSwLrBfRaB9281qq/H7gUyu2fK7zQ3MR5aZblqmi7xrkR0BtXDy+XPnYFdPPQK1vcA3q5bNMouAI67rGQmddGAAGtp75WWwa64/ldRINShXMpGuSqFEk/k3CGsxLQ2k+O3yVXpUhWxRkBbcvNFgJxCSCgpyG+2IslgUICuns5czuyvBHH9SsXL1yaXbh0UW7ZceIS6dZiHxPWM7u2ejFXroDmCui4xw5mDoHYBBDQeuprta1odzy/i2hQqnAuRYNclSLpZxLOcFYCWvvJ8bvkqhTJqjgjoG252UIgLgEE9EIGTk2FVbtf6wX0GjTL+2bc3Gjl8qFW3tm6ePTXCLe3LjTXLzcXNV+/sry02RXQZrTbu0UvXgcBPbWfOq6AjnssZOa1EUBA66mv1ZaB7nh+F9GgVOFciga5KkXSzySc4awEtPaT43fJVSmSVXFGQNtys4VAXAII6DU2csWFsDxrtATWCOj18z70zvv3b260pvgUAX39yuzqzSPd3Nwt+uRXe6Pnhcs+esDygugmWAhoBHTcYwczh0BsAghoPfW12la0O57fRTQoVTiXokGuSpH0MwlnOCsBrf3k+F1yVYpkVZwR0LbcbCEQlwACer2QxEGHIuAJ6JTFbuVyI0YXxQkBfePqbOO/b23tNPp4ee2zidTOyEJAL9+3+QuH7dfVmwjoqdnn+w/2uQI67rGQmddGAAGtp75WWwa64/ldRINShXMpGuSqFEk/k3CGsxLQ2k+O3yVXpUhWxRkBbcvNFgJxCSCgl26QYhoEVgrotN27cXXWauXmXhntVcwL0Xx4C44jp9zRzYtHHr3Rqr9keHS5tL3FBFXsEYRQ//dF5rQR0HGPhcy8NgIIaD31tdoy0B3P7yIalCqcS9EgV6VI+pmEM5yVgNZ+cvwuuSpFsirOCGhbbrYQiEsAAZ1pnHj62AjkCeibG7NLW9eb65SXanghmtvbN89mM7mD81JVHxnlo+rS1s6RrT5VMXMLjlOxBB5EQMc9FjLz2giogF617w/brz66BwcHu7u7fbyyP2feV5n7rHK6cIazEtCaXKXT4OconRW5SmdFrtJZjS1X8/kcAa3LRw2BiAQQ0GPzp8wnk0CegK7pct1M0Dy9SwABHfEoyJzrJICA7q57zqmm/1xO+JW2zyqnC2c4KwGtyVU6DX6O0lmRq3RW5Cqd1apcIaCVITUEghJAQHclEiOhCSCgA19BHDp53AM66FGQaddJQAW0/hqs1kZGR7TO6fKrx6VI+qsAZzgrAa395PhdclWKJJyVJLlSGn42crpwDs2ZK6At/GwhEJcAAjq68mL+JwggoBHQgxHgCui4x0JmXhsBBLSeglptGeiO53c54VeqcC5Fg1yVIulnEs5wVgJa+8nxu+SqFMmqOCOgbbnZQiAuAQT0CX3Jt9EJIKAH06/Ro5M/fwR03GMhM6+NAAJaT32ttgx0x/O7iAalCudSNMhVKZJ+JuEMZyWgtZ8cv0uuSpGsijMC2pabLQTiEkBA50snXmFUBBDQCOjBCCCg4x4LmXltBBDQeuprtWWgO57fRTQoVTiXokGuSpH0MwlnOCsBrf3k+F1yVYpkVZwR0LbcbCEQlwACelTylMnkE0BAD6Zf8xcv+isgoOMeC5l5bQQQ0Hrqa7VloDue30U0KFU4l6JBrkqR9DMJZzgrAa395PhdclWKZFWcEdC23GwhEJcAAjq68mL+JwggoBHQgxFAQMc9FjLz2gggoPXU12rLQHc8v4toUKpwLkWDXJUi6WcSznBWAlr7yfG75KoUyao4I6BtudlCIC4BBPQJfcm30QkgoAfTr9Gjkz9/BHTcYyEzr40AAlpPfa22DHTH87uIBqUK51I0yFUpkn4m4QxnJaC1nxy/S65KkayKMwLalpstBOISQEDnSydeYVQEENAI6MEIIKDjHguZeW0EENB66mu1ZaA7nt9FNChVOJeiQa5KkfQzCWc4KwGt/eT4XXJVimRVnBHQttxsIRCXAAJ6VPKUyeQTQEAPpl/zFy/6KyCg4x4LmXltBFRAr9r3h+1XH92Dg4Pd3d0+XtmfM++rzH1WOV04w1kJaE2u0mnwc5TOilylsyJX6azGlqv5fI6A1uWjhkBEAgjo6MqL+Z8ggIBGQA9GAAEd8SjInOskgIDurnvOqab/XE74lbbPKqcLZzgrAa3JVToNfo7SWZGrdFbkKp3VqlwhoJUhNQSCEkBAn9CXfBudwOxDviAwEAEEdNADIdOukIAKaP01WK0Ni45ondPlV49LkfRXAc5wVgJa+8nxu+SqFEk4K0lypTT8bOR04RyaM1dAW/jZQiAuAQR0dN/K/E8Q4Arowa7/PbESFX6LgI57LGTmtRFAQOspqNWWge54fpcTfqUK51I0yFUpkn4m4QxnJaC1nxy/S65KkayKMwLalpstBOISQEBXaMmmvcsIaAT0YAQQ0HGPhcy8NgIIaD31tdoy0B3P7yIalCqcS9EgV6VI+pmEM5yVgNZ+cvwuuSpFsirOCGhbbrYQiEsAAT1tG1vh3iGgB9OvFabtxC4joOMeC5l5bQQQ0Hrqa7VloDue30U0KFU4l6JBrkqR9DMJZzgrAa395PhdclWKZFWcEdC23GwhEJcAAvqEQeLb6AQQ0AjowQggoOMeC5l5bQQQ0Hrqa7VloDue30U0KFU4l6JBrkqR9DMJZzgrAa395PhdclWKZFWcEdC23GwhEJcAAjq6b2X+JwggoAfTrydWosJvEdBxj4XMvDYCCGg99bXaMtAdz+8iGpQqnEvRIFelSPqZhDOclYDWfnL8LrkqRbIqzghoW262EIhLAAFdoSWb9i4joBHQgxFAQMc9FjLz2gggoPXU12rLQHc8v4toUKpwLkWDXJUi6WcSznBWAlr7yfG75KoUyao4I6BtudlCIC4BBPS0bWyFe4eAHky/Vpi2E7uMgI57LGTmtRFAQOupr9WWge54fhfRoFThXIoGuSpF0s8knOGsBLT2k+N3yVUpklVxRkDbcrOFQFwCCOgTBolvoxNAQCOgByOAgI57LGTmtRFQAb1q3x+2X310Dw4Odnd3+3hlf868rzL3WeV04QxnJaA1uUqnwc9ROitylc6KXKWzGluu5vM5AlqXjxoCEQkgoKP7VuZ/ggACejD9emIlKvwWAR3xKMic6ySAgO6ue86ppv9cTviVts8qpwtnOCsBrclVOg1+jtJZkat0VuQqndWqXCGglSE1BIISQEBXaMmmvcsIaAT0YAQQ0EEPhEy7QgIqoPXXYLU2LDqidU6XXz0uRdJfBTjDWQlo7SfH75KrUiThrCTJldLws5HThXNozlwBbeFnC4G4BBDQ07axFe4dAnow/Vph2k7sMgI67rGQmddGAAGtp6BWWwa64/ldTviVKpxL0SBXpUj6mYQznJWA1n5y/C65KkWyKs4IaFtuthCISwABfcIg8W10AkUF9M2N2ZUbK4lsb124tLXz4FD47mxdvLB1p/vg08bvbF7auL54YvcpRyM3N2azmTeHlBfhMedFAAEd91jIzGsjgIDWU1+rLQPd8fwuokGpwrkUDXJViqSfSTjDWQlo7SfH75KrUiSr4oyAtuVmC4G4BBDQR67vvCQV79grgaIC+sGNq7PZqVr5/oP9E2b5xLeyk3c2Lx17kZ2ti8edcvOA078c/U1ex0cAAR33WMjMayOAgNZTX6stA93x/C6iQanCuRQNclWKpJ9JOMNZCWjtJ8fvkqtSJKvijIC25WYLgbgEENDiCbl1wRQIrBTQr7766vrFtiuOT5fBh6NXbxqmO5uXLm5uHyFbLaD37zcie/Hg7a0Ls5WXPzduejZbvMXRi6+f+fhsbIVzRkDHPRYy89oIIKD11Ndqy0B3PL+LaFCqcC5Fg1yVIulnEs5wVgJa+8nxu+SqFMmqOCOgbbnZQiAuAQR0hZZs2rvsCej1Dtq/58aD/etXFna4vf/G9dYXn+qr2+umV1/abM+RO3jcb9338aut26frY7DM4yaAgI57LGTmtRFAQOupr9WWge54fhfRoFThXIoGuSpF0s8knOGsBLT2k+N3yVUpklVxRkDbcrOFQFwCCOhp29gK926NgF7voBvFqXfeuHH1tAuWr185fmvmmxsXLl2cLS9zPt2Trrz1s1343BXZXAodK8EI6LjHQmZeGwEEtJ76Wm0Z6I7ndxENShXOpWiQq1Ik/UzCGc5KQGs/OX6XXJUiWRVnBLQtN1sIxCWAgI4luJjtWgLrBXSag25u8Txrrj4+VUA3hlru49yY5c2tixeubFw97e8QLia9UkAvHtDec6O9FLpRz9t3ln/h8NgDTrfb3K9jeAII6LjHQmZeGwEEtJ76Wm0Z6I7pEdCtAAAgAElEQVTndxENShXOpWiQq1Ik/UzCGc5KQGs/OX6XXJUiWRVnBLQtN1sIxCWAgMbsTYxAtoBu7tG8uM+GXQ3duQlGcyOOKxtHAnp768KVG+09oG9sXjq6v/Oq65r1Sme558bifh1Hf3iw0dxcBB0ooAjouMdCZl4bAQS0nvpabRnojud3EQ1KFc6laJCrUiT9TMIZzkpAaz85fpdclSJZFWcEtC03WwjEJYCADmS3mGoKgfUCOuVVmjtsmHdu7/V84krk61tbO0d3iz78a4SHf4Tw5oY45WPX5LY+evGnCI9fxeyr6lUvmLIjPOY8CSCg4x4LmXltBFRA76342m2/VjT3crp7e3u3b9/u45X9WfG+ytxnldOFM5yVgNbkKp0GP0fprMhVOitylc5qbLmaz+cI6Nr+c539nR4BBPR56ine6xwIrBHQ/gx8EWxXLh/q4IWAbp7SXrN8KKAfHProk2/UXFi9cf30G3oc89T39U8dNp66uTKa66BP8jxu8EfSRUBP7xjJHk2VgApovQpJa9t3HdE6p8uVX6VI+qsAZzgrAa395PhdclWKJJyVJLlSGn42crpwDs0ZAW3hZwuBuAQQ0CMxV0yjFAFPQJ/5PdrbMR/dakOlpwno5gEb1+1hiztrXN0y1yxaubHPi2ufD020dO1l5THNLT5u7t+/uXF4Fba+L/WICSCg4x4LmXltBBDQegpqtWWgO57f5YRfqcK5FA1yVYqkn0k4w1kJaO0nx++Sq1Ikq+KMgLblZguBuAQQ0Gd2kiPWX+zL/Qf7KwX02egcOuX2hs4Lv3zsVhiNgN642lzUfKiSF1dAt98euWO7s/PRw9ppnPgbhu0fPFwaar0Cun3rY++7eLuz7Q7POhcCCOi4x0JmXhsBBLSe+lptGeiO53cRDUoVzqVokKtSJP1MwhnOSkBrPzl+l1yVIlkVZwS0LTdbCMQlgIDG402MQJaAbm79bF9Hfwnw6FJlu0HH4d0wFrfgWOI7JqBb3dm+2uLC564ANa995UbzsMO3a8V0MwEV1tyC42gJlrTHWSCg4x4LmXltBBDQeuprtWWgO57fRTQoVTiXokGuSpH0MwlnOCsBrf3k+F1yVYpkVZwR0LbcbCEQlwACepwii1l9YQJZAvoLvytPhMD9B/sI6LjHQmZeGwEEtJ76Wm0Z6I7ndxENShXOpWiQq1Ik/UzCGc5KQGs/OX6XXJUiWRVnBLQtN1sIxCWAgMabTYwAAjrM9cITSx4COu6BkJlXSAABrae+VlsMuuP5XUSDUoVzKRrkqhRJP5NwhrMS0NpPjt8lV6VIVsUZAW3LzRYCcQkgoKcnwSrfIwQ0AnowAlwBHfdYyMxrI4CA1lNfqy0D3fH8LqJBqcK5FA1yVYqkn0k4w1kJaO0nx++Sq1Ikq+KMgLblZguBuAQQ0JXr2untPgJ6MP06vTCddY8Q0HGPhcy8NgIIaD31tdoy0B3P7yIalCqcS9EgV6VI+pmEM5yVgNZ+cvwuuSpFsirOCGhbbrYQiEsAAX1WxcTjR04AAY2AHowAAjrusZCZ10ZABfSqfX/YfvXRPTg42N3d7eOV/TnzvsrcZ5XThTOclYDW5CqdBj9H6azIVTorcpXOamy5ms/nCGhdPmoIRCSAgB65TmV6ZyWAgB5Mv551qab3eAR0xKMgc66TAAK6u+45p5r+cznhV9o+q5wunOGsBLQmV+k0+DlKZ0Wu0lmRq3RWq3KFgFaG1BAISgABPT0JVvkeIaAR0IMRQEAHPRAy7QoJqIDWX4PV2rDoiNY5XX71uBRJfxXgDGcloLWfHL9LrkqRhLOSJFdKw89GThfOoTlzBbSFny0E4hJAQFeua6e3+wjowfTr9MJ01j1CQMc9FjLz2gggoPUU1GrLQHc8v8sJv1KFcyka5KoUST+TcIazEtDaT47fJVelSFbFGQFty80WAnEJIKDPqph4/MgJIKAR0IMRQEDHPRYy89oIIKD11Ndqy0B3PL+LaFCqcC5Fg1yVIulnEs5wVgJa+8nxu+SqFMmqOCOgbbnZQiAuAQT0yHUq0zsrAQT0YPr1rEs1vccjoOMeC5l5bQQQ0Hrqa7VloDue30U0KFU4l6JBrkqR9DMJZzgrAa395PhdclWKZFWcEdC23GwhEJcAAnp6EqzyPUJAI6AHI4CAjnssZOa1EUBA66mv1ZaB7nh+F9GgVOFciga5KkXSzySc4awEtPaT43fJVSmSVXFGQNtys4VAXAII6Mp17fR2HwE9mH6dXpjOukcI6LjHQmZeGwEEtJ76Wm0Z6I7ndxENShXOpWiQq1Ik/UzCGc5KQGs/OX6XXJUiWRVnBLQtN1sIxCWAgD6rYuLxIycw+5AvCAxEAAEd91jIzGsjgIDWU1+rLQPd8fwuokGpwrkUDXJViqSfSTjDWQlo7SfH75KrUiSr4oyAtuVmC4G4BBDQI9epTO+sBLgCmiugByOAgI57LGTmtRFAQOupr9WWge54fhfRoFThXIoGuSpF0s8knOGsBLT2k+N3yVUpklVxRkDbcrOFQFwCCOiz+k0eP3ICCOjB9OvIk3EO00NAxz0WMvPaCKiAXrXvD9uvProHBwe7u7t9vLI/Z95XmfuscrpwhrMS0JpcpdPg5yidFblKZ0Wu0lmNLVfz+RwBrctHDYGIBBDQ52CleIvzJICARkAPRgABHfEoyJzrJICA7q57zqmm/1xO+JW2zyqnC2c4KwGtyVU6DX6O0lmRq3RW5Cqd1apcIaCVITUEghJAQJ+nG+W9zoEAAnow/XoOqzvyt0BABz0QMu0KCaiA1l+D1dqw6IjWOV1+9bgUSX8V4AxnJaC1nxy/S65KkYSzkiRXSsPPRk4XzqE5cwW0hZ8tBOISQECP3GgxvbMSQEAjoAcjgICOeyxk5rURQEDrKajVloHueH6XE36lCudSNMhVKZJ+JuEMZyWgtZ8cv0uuSpGsijMC2pabLQTiEkBAn9Vv8viRE0BAD6ZfR56Mc5geAjrusZCZ10YAAa2nvlZbBrrj+V1Eg1KFcyka5KoUST+TcIazEtDaT47fJVelSFbFGQFty80WAnEJIKDPwUrxFudJAAGNgB6MAAI67rGQmddGAAGtp75WWwa64/ldRINShXMpGuSqFEk/k3CGsxLQ2k+O3yVXpUhWxRkBbcvNFgJxCSCgz9ON8l7nQAABPZh+PYfVHflbIKDjHguZeW0EENB66mu1ZaA7nt9FNChVOJeiQa5KkfQzCWc4KwGt/eT4XXJVimRVnBHQttxsIRCXAAJ65EaL6Z2VAAIaAT0YAQR03GMhM6+NAAJaT32ttgx0x/O7iAalCudSNMhVKZJ+JuEMZyWgtZ8cv0uuSpGsijMC2pabLQTiEkBAn9Vv8viRE0BAD6ZfR56Mc5geAjrusZCZ10YAAa2nvlZbBrrj+V1Eg1KFcyka5KoUST+TcIazEtDaT47fJVelSFbFGQFty80WAnEJIKDPwUrxFudJAAGNgB6MAAI67rGQmddGAAGtp75WWwa64/ldRINShXMpGuSqFEk/k3CGsxLQ2k+O3yVXpUhWxRkBbcvNFgJxCSCgz9ON8l7nQAABPZh+PYfVHflbIKDjHguZeW0EVECv2veH7Vcf3YODg93d3T5e2Z8z76vMfVY5XTjDWQloTa7SafBzlM6KXKWzIlfprMaWq/l8joDW5aOGQEQCCOiRGy2md1YCKwX0q6++etbX4vEQOBMBBHTEoyBzrpMAArq77jmnmv5zOeFX2j6rnC6c4awEtCZX6TT4OUpnRa7SWZGrdFarcoWAVobUEAhKAAF9Jr/Eg8dPwBPQCQ76xtXZ7MLWnaP9vLkxm13c3G4uK97ZujibzWZf/vt3HshVxr/+8Z8+NTv+mI3r+gDqagggoIMeCJl2hQRUQOuvwWptWHRE65wuv3pciqS/CnCGsxLQ2k+O3yVXpUjCWUmSK6XhZyOnC+fQnLkC2sLPFgJxCSCgj0xjNZZs2ru8RkCvc9AJAnr2B8/97EhA33vtj2df+oMvHZPUCOgjPtNO24m9Q0DHPRYy89oIIKD1FNRqy0B3PL/LCb9ShXMpGuSqFEk/k3CGsxLQ2k+O3yVXpUhWxRkBbcvNFgJxCSCgTxgkvo1OYL2Adh30WgH9n//Tf5k9deXGAtMv/vbLs2/8+z/mCugFkErVs+0+AjrusZCZ10YAAa2nvlZbBrrj+V1Eg1KFcyka5KoUST+TcIazEtDaT47fJVelSFbFGQFty80WAnEJIKDxZhMj0LeA3vjRj7/51FPf/NGvW9P69t//26e++aP/c+I2HVwBXamGRkDHPRYy89oIIKD11Ndqy0B3PL+LaFCqcC5Fg1yVIulnEs5wVgJa+8nxu+SqFMmqOCOgbbnZQiAuAQT0xPQru7NeQLuM1l4BvXH9wc+e+9LsG699eP/B/j899wdfeu5n90/eJxoBjYCOe1Bg5hCoggACWk99rbaF747ndxENShXOpWiQq1Ik/UzCGc5KQGs/OX6XXJUiWRVnBLQtN1sIxCWAgHZtZKUaLTSTNQJ63b51BPSb3+zeXuOdf/jK7NLWTvPnB9v7QSOguYF6S4AroOMeC5l5bQQQ0Hrqa7VloDue30U0KFU4l6JBrkqR9DMJZzgrAa395PhdclWKZFWcEdC23GwhEJcAAnqdkMRBByPgCeiExf7F3/672ew//u9fLYzq//3OH82e2vgn04tbF2ez9urm91/7xuwrV//yT2Zf/vt3HuxzBXQC2GAx+mJ7hICOeyxk5rURQEDrqa/VloHueH4X0aBU4VyKBrkqRdLPJJzhrAS09pPjd8lVKZJVcUZA23KzhUBcAgjoLyaaeNZoCawU0Ikzbq5unj315b987Uc//vE//sOf/OFs9ofXfmbP3VkK6Acf/uN/mM1mhzfi6Ajob/7jP394z/7ZraIXOjtxDjwsKAEEdNxjITOvjQACWk99rbYMdMfzu4gGpQrnUjTIVSmSfibhDGcloLWfHL9LrkqRrIozAtqWmy0E4hJAQAc1XUx7FYFcAX3/wYf/9A9/8uV/89RsNnvq3/zRN567cW+hj0VA7/9K/xThyVtwNG7avi5s3Vk1UcanRwABHfdYyMxrI4CA1lNfqy0D3fH8LqJBqcK5FA1yVYqkn0k4w1kJaO0nx++Sq1Ikq+KMgLblZguBuAQQ0NOTYJXvUb6AruJmEZWnpKfdR0DHPRYy89oIqIDeW/G1236taO7ldPf29m7fvt3HK/uz4n2Vuc8qpwtnOCsBrclVOg1+jtJZkat0VuQqndXYcjWfzxHQtf3nOvs7PQII6J5MFC87FAEENAJ9MAII6OkdI9mjqRJQAa1XIWlt+64jWud0ufKrFEl/FeAMZyWgtZ8cv0uuSpGEs5IkV0rDz0ZOF86hOSOgLfxsIRCXAAJ6KE/K+/ZEAAE9mH7taUUDvSwCOu6xkJnXRgABraegVlsGuuP5XU74lSqcS9EgV6VI+pmEM5yVgNZ+cvwuuSpFsirOCGhbbrYQiEsAAR3IbjHVFAIIaAT0YAQQ0HGPhcy8NgIIaD31tdoy0B3P7yIalCqcS9EgV6VI+pmEM5yVgNZ+cvwuuSpFsirOCGhbbrYQiEsAAZ3iNHlMIAII6MH0a6CU9DRVBHTcYyEzr40AAlpPfa22DHTH87uIBqUK51I0yFUpkn4m4QxnJaC1nxy/S65KkayKMwLalpstBOISQED3ZKJ42aEIIKAR0IMRQEDHPRYy89oIIKD11Ndqy0B3PL+LaFCqcC5Fg1yVIulnEs5wVgJa+8nxu+SqFMmqOCOgbbnZQiAuAQT0UJ6U9+2JAAJ6MP3a04oGelkEdNxjITOvjQACWk99rbYMdMfzu4gGpQrnUjTIVSmSfibhDGcloLWfHL9LrkqRrIozAtqWmy0E4hJAQAeyW0w1hQACGgE9GAEEdNxjITOvjQACWk99rbYMdMfzu4gGpQrnUjTIVSmSfibhDGcloLWfHL9LrkqRrIozAtqWmy0E4hJAQKc4TR4TiAACejD9GiglPU0VAR33WMjMayOAgNZTX6stA93x/C6iQanCuRQNclWKpJ9JOMNZCWjtJ8fvkqtSJKvijIC25WYLgbgEENA9mShedigCCGgE9GAEENBxj4XMvDYCKqBX7fvD9quP7sHBwe7ubh+v7M+Z91XmPqucLpzhrAS0JlfpNPg5SmdFrtJZkat0VmPL1Xw+R0Dr8lFDICIBBPRQnpT37YkAAnow/drTigZ6WQR0xKMgc66TAAK6u+45p5r+cznhV9o+q5wunOGsBLQmV+k0+DlKZ0Wu0lmRq3RWq3KFgFaG1BAISgABHchuMdUUAghoBPRgBBDQQQ+ETLtCAiqg9ddgtTYsOqJ1TpdfPS5F0l8FOMNZCWjtJ8fvkqtSJOGsJMmV0vCzkdOFc2jOXAFt4WcLgbgEENApTpPHBCIw27n9Pv8gMBSBuAcDZg6BqgggoPUU1GoLQHc8v8sJv1KFcyka5KoUST+TcIazEtDaT47fJVelSFbFGQFty80WAnEJIKADqVWmmkKAK6AHu/43ZXmm/RiugI57LGTmtRFAQOupr9WWge54fhfRoFThXIoGuSpF0s8knOGsBLT2k+N3yVUpklVxRkDbcrOFQFwCCOhpC7EK9w4BjYAejAACOu6xkJnXRgABrae+VlsGuuP5XUSDUoVzKRrkqhRJP5NwhrMS0NpPjt8lV6VIVsUZAW3LzRYCcQkgoCtUtNPeZQT0YPp12sFK2TsEdNxjITOvjQACWk99rbYMdMfzu4gGpQrnUjTIVSmSfibhDGcloLWfHL9LrkqRrIozAtqWmy0E4hJAQKdoJR4TiAACGgE9GAEEdNxjITOvjQACWk99rbYMdMfzu4gGpQrnUjTIVSmSfibhDGcloLWfHL9LrkqRrIozAtqWmy0E4hJAQAdSq0w1hQACejD9mrI8034MAjrusZCZ10YAAa2nvlZbBrrj+V1Eg1KFcyka5KoUST+TcIazEtDaT47fJVelSFbFGQFty80WAnEJIKCnLcQq3DsENAJ6MAII6LjHQmZeGwEEtJ76Wm0Z6I7ndxENShXOpWiQq1Ik/UzCGc5KQGs/OX6XXJUiWRVnBLQtN1sIxCWAgK5Q0U57lxHQg+nXaQcrZe8Q0HGPhcy8NgIqoFft+8P2q4/uwcHB7u5uH6/sz5n3VeY+q5wunOGsBLQmV+k0+DlKZ0Wu0lmRq3RWY8vVfD5HQOvyUUMgIgEEdIpW4jGBCCCgEdCDEUBARzwKMuc6CSCgu+uec6rpP5cTfqXts8rpwhnOSkBrcpVOg5+jdFbkKp0VuUpntSpXCGhlSA2BoAQQ0IHUKlNNIYCAHky/pizPtB+DgA56IGTaFRJQAa2/Bqu1YdERrXO6/OpxKZL+KsAZzkpAaz85fpdclSIJZyVJrpSGn42cLpxDc+YKaAs/WwjEJYCAnrYQq3DvENAI6MEIIKDjHguZeW0EENB6Cmq1ZaA7nt/lhF+pwrkUDXJViqSfSTjDWQlo7SfH75KrUiSr4oyAtuVmC4G4BBDQFSraae8yAnow/TrtYKXsHQI67rGQmddGAAGtp75WWwa64/ldRINShXMpGuSqFEk/k3CGsxLQ2k+O3yVXpUhWxRkBbcvNFgJxCSCgU7QSjwlEILCA/vjTz7bvfLT93t2d2+9X+G/7vbvbdz76+NPPAqXtxFQR0HGPhcy8NgIIaD31tdoy0B3P7yIalCqcS9EgV6VI+pmEM5yVgNZ+cvwuuSpFsirOCGhbbrYQiEsAAX3CIPFtdAJRBfTHn372y527z//w/tf/7vGFv/m8wn9f/7vHz//w/i937sZ10AjouMdCZl4bAQS0nvpabRnojud3EQ1KFc6laJCrUiT9TMIZzkpAaz85fpdclSJZFWcEtC03WwjEJYCAju5bmf8JAlEF9Padj6798P6F7zz52uJfnfW1H97fvvPRiUWN8i0COu6xkJnXRgABrae+VlsGuuP5XUSDUoVzKRrkqhRJP5NwhrMS0NpPjt8lV6VIVsUZAW3LzRYCcQkgoKOoLeaZSCCsgH7v7tf/9uDC3zQC+kL3XzXjX//bg+337iYu9tgehoCOeyxk5rURQEDrqa/VloHueH4X0aBU4VyKBrkqRdLPJJzhrAS09pPjd8lVKZJVcUZA23KzhUBcAgjosSks5pNJIKqA3rn9/te+85h/X/vO47ifSgjouMdCZl4bAQS0nvpabRnojud3EQ1KFc6laJCrUiT9TMIZzkpAaz85fpdclSJZFWcEtC03WwjEJRBX9WRqSp4+VQKhBfTBhcZBH7Qa+ti2qvG4n0oI6LjHQmZeGwEV0Kv2/WH71Uf34OBgd3e3j1f258z7KnOfVU4XznBWAlqTq3Qa/BylsyJX6azIVTqrseVqPp8joHX5qCEQkUBc1TNVf8p+ZRIILKCf/fbvv/bt37ON+6mEgI54FGTOdRJAQHfXPedU038uJ/xK22eV04UznJWA1uQqnQY/R+msyFU6K3KVzmpVrhDQypAaAkEJxFU9mZqSp0+VQGAB/bVWQLON+6mEgA56IGTaFRJQAa2/Bqu1YdERrXO6/OpxKZL+KsAZzkpAaz85fpdclSIJZyVJrpSGn42cLpxDc+YKaAs/WwjEJRBX9UzVn7JfmQQCC+hnv/W7Z7/9u2Zr/2qt434qIaDjHguZeW0EENB6Cmq1ZaA7nt/lhF+pwrkUDXJViqSfSTjDWQlo7SfH75KrUiSr4oyAtuVmC4G4BOKqnkxNydOnSiC2gP5aK50zt5v39D9pVtZv/7Qx3fpeb37SPLg73jzmp0/2V77SovHoyf/89u+e/cXni++P/e+9Xyzf68k9e+Txd1/OJO6nEgI67rGQmddGAAF97AO6/cYy0B23kZwuokGp5pD0nwtnOCsBrf3k+F1yVYoknJUkuVIafjZyuhPjjIC2MLCFQFwCcVXPVP0p+5VJILSAfvTstx4983KztX+n1K0IvnfLfUz7dH3u5r35/r2Dla/ZPP7xKmt9+F4/fbL/6Mmmza2dw1s/OT4He8Dh/JtXe+unzb4s3/pwPqc+9/j+xv1UQkDHPRYy89oIIKD11Ndqy0B3PL87sRPg+Xzus2J/NUU+q5wunOGsBLQmV+k0+DlKZ0Wu0ln1lCsEtIWQLQTiEoirejI1JU+fKoHwAnppn08vTED/4kj+nv6wFZchL/+74a2fLl/h4K1H8/n88zcWFvjwBds3Wmrr5groR082m8fY45ev1BafPJYHHOpse4ulgH72W4/eaK6w7rzRiff91qO4n0oI6LjHQmZeGwEE9PEP8eY7y0B33EZyuj2diK6dM++rq5mzgv5z4QxnJaC1nxy/S65KkYSzkiRXSsPPRk63J84IaFsUthCISyCu6pmqP2W/MgkEFtDPvPzw2ZcfPnPav6PxnzS3wrh36/BhR+PHn/Xsrc/nnzxevtQbnzRXQC9e//G9+edv/aR9hcWrPfvywVuPFoNN3Zpinc9P7Aroh81LPfp8OYFnmldon7h4QPumR2+xee/zxmK3r2lzWM5qMZ+Tuxz3UwkBHfdYyMxrI4CA1lNQqy0D3fH8bk8nogjo7mLt7e11B/NX0M8G66vMfVY5XTjDWQloTa7SafBzlM5qhLlCQNuisIVAXAJxVU+mpuTpUyUQWEA/uxC+Vphctrq9dlj/g2FRN7fFaLT1yefeOv1GzIunNcpYX7+tl5c2H3aPvWbrl984tMmthr53sHmveReT0c+KgH725a6AbizzYp6HsvvY68u+x/1UQkDHPRYy89oIIKAXh4Oj/7UMHH1/vMrpcsKvLHNI+s+FM5yVgNZ+cvwuuSpFEs5KklwpDT8bOd2JcUZAWxjYQiAugbiqZ6r+lP3KJBBYQD/z0m+feelfT93+r53P7/36yb1ff37vXxrn+7vftPWvn9z758cvnvqs5grog+WrvfHJ/N6t5SsfNFdA39T3Oji8AfQnj5956bcmu+Xx7SNvPm5uwbF4r6UQv3dr8To3n+w/erz50r8uW/rfVU3ddp95qXmvo2edtr9xP5UQ0HGPhcy8NgII6JMf0dyC4zgR+4k4Pnb0nd+d2Ak/V5ofLfyi4krzBQlu3bMk0RT+J4Pf5XNDUfqscrpwDs0ZAW3hZwuBuATiqp5MTcnTp0oguIB++beNgHa2Nx+3t+BwH/PSb5+59aQR0IvXaQX08pUXAvrl327etQuln7zRPtKuaNb/LmnrttsK6HvNrTmar9YgN3NY6uZ79x43AvrwHdu3+Enzjs0tOO7+3mbSvv7nb7Xjy7l19zfupxICOu6xkJnXRgABffhpLv9jGZCBY2VOlxN+RZlD0n8unOGsBLT2k+N3yVUpknBWkuRKafjZyOlOjDMC2sLAFgJxCcRVPVP1p+xXJoHAAvrpl/afeem37Xa/s12MHwro/WdesscsxpvnyrNuPdH/rOnUn791Ux//u/amz81Fyt/T12nfa//u75pXbgT0otuOz5vLqOUd2wdsHs7/4N78yRvtfDbvft6+wm9f/2Q+/+TgcL9uPdm/+7tV+xv3UwkBHfdYyMxrI6ACem/F1277taK5l9Pd29u7fft2H6/sz4r3VeY+q5wunOGsBLQmV+k0+DlKZ0Wu0lmRq3RWY8vVfD5HQNf2n+vs7/QIxFU9mZqSp0+VQGAB/Uwrf9dsRUB7j2wedmiZn3npd80fGGyNc/sUuwK6EdDPvLS/uOFG+61dN300Ls869MuHz1q8znzeiubmW32A1AsBffTE5rLr5nYcRyM2k+U27qcSAnp6x0j2aKoEVEB3/i+6wwHb9z66E7siae0vnrO/miJyVYoGuSpF0s8knOGsBLT2k+N3yVUpklVxRkDbcrOFQFwCcVXPVP0p+5VJILCAfvrFB0X//b65s/Ojx6/f/Xz+ye8TX7m5Trn92r/76ELxHawAABL1SURBVNhTWqf8vRcfrH3A0y8++F5z1fPh07V+2p7+6PH33D2N+6mEgI57LGTmtRFAQOupr9WWge54fhfRoFThXIoGuSpF0s8knOGsBLT2k+N3yVUpklVxRkDbcrOFQFwCcVVPpqbk6VMlgIAWi314r4z2v3DWOuh3Du/ace8deYWlKV4I6KWVXpro+fzJ6y8+OLxHhxU20j73SEC3k1mK6eXrdIu4n0oI6LjHQmZeGwEEtJ76Wm0Z6I7ndxENShXOpWiQq1Ik/UzCGc5KQGs/OX6XXJUiWRVnBLQtN1sIxCUQV/VM1Z+yX5kEIgvoF37z9Iu/+Wq7ffqL148Ob+jcXv78vcXrfO/w7w0e/dfO/t1HX73R/EnDw6+Pf//0i79Z+b76yMUzTv5vc2lz8+733jl6nUMB3djtJ687r7+Y59Mv/ibupxICOu6xkJnXRgABffIDfD63DHTHbSSni2hQqjkk/efCGc5KQGs/OX6XXJUiCWclSa6Uhp+NnO7EOCOgLQxsIRCXQFzVk6kpefpUCUQW0C82Anqk/w6vgF49vbUPSN61uJ9KCOi4x0JmXhsBBLSe+lptGeiO53cndgLMPa+7Idnb2+sO5ifHzyS5UuY+q5wunOGsBLQmV+k0+DlKZ+XkCgFtcNhCIC6BuKpnqv6U/cokEFhAf/WFz776wn22cT+VENBxj4XMvDYCCGg9FbTaMtAdz+9y4q1U4VyKBrkqRdLPJJzhrAS09pPjd8lVKZJVcUZA23KzhUBcAnFVT6am5OlTJYCADq+w434qIaDjHguZeW0EENB66mu1ZaA7nt9FNChVOJeiQa5KkfQzCWc4KwGt/eT4XXJVimRVnBHQttxsIRCXQFzVM1V/yn5lEogsoJ//l68+/9lXq9/G/VRCQMc9FjLz2gggoPXU12rLQHc8v4toUKpwLkWDXJUi6WcSznBWAlr7yfG75KoUyao4I6BtudlCIC6BuKonU1Py9KkSCC6gXzAB/S+Nhq61jvuphICOeyxk5rURUAG9at8ftl99dA8ODnZ3d/t4ZX/OvK8y91nldOEMZyWgNblKp8HPUTorcpXOilylsxpbrubzOQJal48aAhEJxFU9U/Wn7FcmgagCevu9uxdf+uQrz3/6lWuf1ry9+PIn2+/dzQzBUE9HQEc8CjLnOgkgoLvrnnOq6T+XE36l7bPK6cIZzkpAa3KVToOfo3RW5CqdFblKZ7UqVwhoZUgNgaAEENBDqSretycCYQX0nY+e+8HeV1sB3Wyf//Tk9lpnxB4zrfH/9oO97Tsf9RSOvl8WAR30QMi0KySgAlp/DVZrw6IjWud0+dXjUiT9VYAznJWA1n5y/C65KkUSzkqSXCkNPxs5XTiH5swV0BZ+thCISwAB3beS4vXPmUBUAf3xp5/9cufucz/46OJLH3/l2icV/rv40sfP/eCjX+7c/fjTz845NKXeDgEd91jIzGsjgIDWU1CrLQPd8fwuJ/xKFc6laJCrUiT9TMIZzkpAaz85fpdclSJZFWcEtC03WwjEJYCALqWeeJ2REIgqoO8/2P/408+273y0/d7dndvvV/hv+72723c+imuf7z/YR0DHPRYy89oIIKD11Ndqy0B3PL+LaFCqcC5Fg1yVIulnEs5wVgJa+8nxu+SqFMmqOCOgbbnZQiAuAQT0SLQp0yhFILCALoWA1xmKAAI67rGQmddGAAGtp75WWwa64/ldRINShXMpGuSqFEk/k3CGsxLQ2k+O3yVXpUhWxRkBbcvNFgJxCSCgh1JVvG9PBBDQ+z2R5WXXEkBAxz0WMvPaCCCg9dTXastAdzy/i2hQqnAuRYNclSLpZxLOcFYCWvvJ8bvkqhTJqjgjoG252UIgLgEE9FqnxANiEUBAI6AHI4CAjnssZOa1EUBA66mv1ZaB7nh+F9GgVOFciga5KkXSzySc4awEtPaT43fJVSmSVXFGQNtys4VAXAII6Fh2ldmuJYCAHky/rl2byT8AAR33WMjMayOAgNZTX6stA93x/C6iQanCuRQNclWKpJ9JOMNZCWjtJ8fvkqtSJKvijIC25WYLgbgEENCTd2K17SACGgE9GAEEdNxjITOvjQACWk99rbYMdMfzu4gGpQrnUjTIVSmSfibhDGcloLWfHL9LrkqRrIozAtqWmy0E4hJAQNfmZye/vwjowfTr5LO1dgcR0HGPhcy8NgIqoFft+8P2q4/uwcHB7u5uH6/sz5n3VeY+q5wunOGsBLQmV+k0+DlKZ0Wu0lmRq3RWY8vVfD5HQOvyUUMgIgEE9FqnxANiEUBAI6AHI4CAjngUZM51EkBAd9c951TTfy4n/ErbZ5XThTOclYDW5CqdBj9H6azIVTorcpXOalWuENDKkBoCQQkgoGPZVWa7lgACejD9unZtJv8ABHTQAyHTrpCACmj9NVitDYuOaJ3T5VePS5H0VwHOcFYCWvvJ8bvkqhRJOCtJcqU0/GzkdOEcmjNXQFv42UIgLgEE9OSdWG07iIBGQA9GAAEd91jIzGsjgIDWU1CrLQPd8fwuJ/xKFc6laJCrUiT9TMIZzkpAaz85fpdclSJZFWcEtC03WwjEJYCArs3PTn5/EdCD6dfJZ2vtDiKg4x4LmTkEIAABCEAAAhCAAAQgAAEIQAACPRFAQK91SjwgFgEENAJ6MAII6J4OVLwsBCAAAQhAAAIQgAAEIAABCEAAAnEJIKBj2VVmu5YAAnow/bp2bSb/AAR03GMhM4cABCAAAQhAAAIQgAAEIAABCECgJwII6Mk7sdp2EAGNgB6MAAK6pwMVLwsBCEyPwP379z/44IO7fEEAAhCAAATGR+CDDz64f//+9A6+7BEEIACBAQkgoGvzs5PfXwT0YPp18tlau4MI6AEPZrw1BCAQiwD2eXy+hRlBAAIQgMARgQ8++CDWgZXZQgACEBg5AQT0WqfEA2IRQEAjoAcjgIAe+QGP6UEAAuMhgIA+khxUEIAABCAwPgII6PH8NwMzgQAEpkEAAR3LrjLbtQQQ0IPp17VrM/kHIKCncVxkLyAAgXMgwC04xidbmBEEIAABCBwS4BYc5/BfArwFBCBQGwEE9OSdWG07iIBGQA9GAAFd2xGU/YUABCAAAQhAAAIQgAAEIAABCEBgLQEEdG1+dvL7i4AeTL9OPltrdxABvfaQwwMgAAEIQAACEIAABCAAAQhAAAIQqI0AAnqtU+IBsQggoBHQgxHYuf0+/yAAAQhAAAIQgAAEIAABCEAAAhCAAAROEIilF5ktBHwCCOjB9Ku/MDV0e/0/9HZuvz+f4lev0GpIHfsIAQhAAAIQgAAEIAABCEAAAhAYOQHO/Ue+QEzvrAQQ0AjowQj0+nmKgD7rZwGPhwAEIAABCEAAAhCAAAQgAAEIQGAMBHoVJmPYQeZQGwEE9GD6tbaodfe3189TBHQXOCMQgAAEIAABCEAAAhCAAAQgAAEIjJ9Ar8Jk/LvPDKdHAAGNgB6MQK+fpwjo6X1asUcQgAAEIAABCEAAAhCAAAQgAIEaCPQqTGoAyD6OjQACejD9OrYonP98ev08RUCf/4LyjhCAAAQgAAEIQAACEIAABCAAAQjkE+hVmORPj1eAwFkJIKAR0IMR6PXzFAF91s8CHg8BCEAAAhCAAAQgAAEIQAACEIDAGAj0KkzGsIPMoTYCCOjB9GttUevub6+fpwjoLnBGIAABCEAAAhCAAAQgAAEIQAACEBg/gV6Fyfh3nxlOjwACGgE9GIFeP08R0NP7tGKPIAABCEAAAhCAAAQgAAEIQAACNRDoVZjUAJB9HBsBBPRg+nVsUTj/+fT6eYqAPv8F5R0hAAEIQAACEIAABCAAAQhAAAIQyCfQqzDJnx6vAIGzEkBAI6AHI9Dr5ykC+qyfBTweAhCAAAQgAAEIQAACEIAABCAAgTEQ6FWYjGEHmUNtBBDQg+nX2qLW3d/0z9Nb77773Vde+e4rr9x6993u65w6goA+FQuDEIAABCAAAQhAAAIQgAAEIAABCIycQLowGfmOMD0IGAEENAJ6MALpn6fXnn/hz/78L/7sz//iu6+8kviji4C+/2DfoCUS42EQgAAEIAABCEAAAhCAAAQgAAEIjIFAujAZw2yZAwTWEkBAD6Zf167N5B+Q/nm6FNDXnn8hEQsCGgGdGBUeBgEIQAACEIAABCAAAQhAAAIQGBWBdGEyqmkzGQisIoCARkAPRiD98/TWu+9ee/6Fvm7B8as3r12+fO2Nvfnh196bf3358l+/ufx+Mb76f9tXuOx9XVv95LN10qEhoFd96jEOAQhAAAIQgAAEIAABCEAAAhAYM4EznfuPeUeYGwSMAAJ6MP1KBHv9PE2+AvrtrWPi+NrW968dG/j+20eG+MnvP37//735/Wt/+l+3ZPSo31atv7587c1fnRgv8+2ZoHELDn7KIAABCEAAAhCAAAQgAAEIQAAC4Qic6dw/3N4x4QoJIKAR0IMR6PXzNFFANxc7t7L47e9b0erj7789f6fx0lvvHLfGv3rzpb/8m63/cfXyZUdAt0b7TBdQz+c///nPX3/99eNvdvp3Z4KGgK7wM51dhgAEIAABCEAAAhCAAAQgAIHoBM507h99Z5l/DQQQ0IPp1xri5e9j+ufprXff/e4rr/R0C45WPR+76Fm+OUU0771x7TQBfeJKanmNdVdD//znP7dHpzjodGjcgsOPH10IQAACEIAABCAAAQhAAAIQgMA4CZzp3H+cu8CsIKAEENAI6MEIpH+eLv8I4XdfeUXj69SJV0CfuMy4kdGLi5dbMX02AS03kj584dZWe7fjMPv82muvvf7665cvX17roB1odr1zytbhRgsCEIAABCAAAQhAAAIQgAAEIACBYQk45/7DTox3h8AXI4CAHky/frEFm9Kz0j9PlwL62vMvJBJIF9AFr4A+FNDyVw19Af3ee+/91V/91WuvvWa62hz0J598ckKL67cOtBT1zE05EvPDwyAAAQhAAAIQgAAEIAABCEAAAkMRcM79h5oS7wuBHAIIaAT0YATSP09vvfvutedf6OcWHIubPreWV6+AVu2rtXMLjkMBLfeP9gX0fD5/77339MV9+zyfz9OhcQuOnE9GngsBCEAAAhCAAAQgAAEIQAACEBiKwJnO/YeaJO8LgXQCCOjB9Gv6Ik31kb1+niZfAe3cu7m5M/OKu2p0b83RvI49WKWz1iqav3B9Jmhc7zzVnx32CwIQgAAEIAABCEAAAhCAAAQmTOBM5/4T5sCuTYYAAhoBPRiBXj9PkwW0qeBWQ//1m2/KPaDncicN9cXrroBWo31t6/vXLq/7I4T64mvrM0FDQE/mk5odgQAEIAABCEAAAhCAAAQgAIF6CJzp3L8eLOxpXAII6MH0a9zQlJp5+ufprXff/e4rr/RzC475vL1jxuXvvz2fz4/dgqMV0FvvnHTCKwR0+zB7qcM/Y9je3KO5irp7ufTJ10z/Ph0at+AoFVReBwIQgAAEIAABCEAAAhCAAAQgcJ4EznTuf54T470g8MUIIKAR0IMRSP88Xf4Rwu++8kpi0BOvgG7/AuG1N391aIBNQL/9xrXGG1++fPlQJa/zw62qXvV4e4t1L5HaT4eGgE6MCg+DAAQgAAEIQAACEIAABCAAAQiMisCZzv1HNXMmA4FTCSCgB9Ovp65HVYPpn6dLAX3t+RcSESUK6FTvO5rHpUNDQCdGhYdBAAIQgAAEIAABCEAAAhCAAARGReBM5/6jmjmTgcCpBBDQCOjBCKR/nt56991rz7/Q1y04RiOXUyaSDu3UH3gGIQABCEAAAhCAAAQgAAEIQAACEBg5Ac79R75ATO+sBBDQg+nXsy7V9B7f6+cpV0BPLzDsEQQgAAEIQAACEIAABCAAAQhAoAYCvQqTGgCyj2MjgIBGQA9GoNfPUwT02D5rmA8EIAABCEAAAhCAAAQgAAEIQAACKQR6FSYpE+AxEChLAAE9mH4tu5ARX63Xz1MEdMRIMGcIQAACEIAABCAAAQhAAAIQgAAEehUm4IXA+RNAQCOgByPQ6+cpAvr8P014RwhAAAIQgAAEIAABCEAAAhCAAATyCfQqTPKnxytA4KwEENCD6dezLtX0Ht/r5ykCenqBYY8gAAEIQAACEIAABCAAAQhAAAI1EOhVmNQAkH0cGwEENAJ6MAK9fp4ioMf2WcN8IAABCEAAAhCAAAQgAAEIQAACEEgh0KswSZkAj4FAWQII6MH0a9mFjPhqvX6eIqAjRoI5QwACEIAABCAAAQhAAAIQgAAEINCrMAEvBM6fAAIaAT0YgV4/TxHQ5/9pwjtCAAIQgAAEIAABCEAAAhCAAAQgkE+gV2GSPz1eAQJnJYCAHky/nnWppvf4Xj9PEdDTCwx7BAEIQAACEIAABCAAAQhAAAIQqIFAr8KkBoDs49gIIKAR0IMR6PXzFAE9ts8a5gMBCEAAAhCAAAQgAAEIQAACEIBACoFehUnKBHgMBMoS+P8odHYT2C+ygAAAAABJRU5ErkJggg==;" vertex="1" parent="1">
          <mxGeometry x="610" y="-2300" width="1118.15" height="555" as="geometry" />
        </mxCell>
        <mxCell id="xpNhdHFbhx5iCEHr1dCp-4" value="&lt;font style=&quot;font-size: 27px;&quot;&gt;效果图类似于&lt;/font&gt;" style="text;html=1;align=center;verticalAlign=middle;resizable=0;points=[];autosize=1;strokeColor=none;fillColor=none;" vertex="1" parent="1">
          <mxGeometry x="300" y="-2077.5" width="190" height="50" as="geometry" />
        </mxCell>
        <mxCell id="xpNhdHFbhx5iCEHr1dCp-6" value="" style="shape=flexArrow;endArrow=classic;html=1;rounded=0;" edge="1" parent="1">
          <mxGeometry width="50" height="50" relative="1" as="geometry">
            <mxPoint x="490" y="-2050" as="sourcePoint" />
            <mxPoint x="580" y="-2050" as="targetPoint" />
          </mxGeometry>
        </mxCell>
        <mxCell id="xpNhdHFbhx5iCEHr1dCp-7" value="&lt;span style=&quot;font-size: 27px;&quot;&gt;前端 架构&lt;/span&gt;" style="text;html=1;align=center;verticalAlign=middle;resizable=0;points=[];autosize=1;strokeColor=none;fillColor=none;" vertex="1" parent="1">
          <mxGeometry x="937" y="20" width="140" height="50" as="geometry" />
        </mxCell>
        <mxCell id="xpNhdHFbhx5iCEHr1dCp-9" value="&lt;span style=&quot;font-size: 27px;&quot;&gt;主页面-编辑&lt;/span&gt;" style="text;html=1;align=center;verticalAlign=middle;resizable=0;points=[];autosize=1;strokeColor=none;fillColor=none;" vertex="1" parent="1">
          <mxGeometry x="800" y="-750" width="170" height="50" as="geometry" />
        </mxCell>
        <mxCell id="xpNhdHFbhx5iCEHr1dCp-11" style="edgeStyle=orthogonalEdgeStyle;rounded=0;orthogonalLoop=1;jettySize=auto;html=1;exitX=0.5;exitY=1;exitDx=0;exitDy=0;" edge="1" parent="1" source="xpNhdHFbhx5iCEHr1dCp-10" target="xpNhdHFbhx5iCEHr1dCp-10">
          <mxGeometry relative="1" as="geometry" />
        </mxCell>
        <mxCell id="xpNhdHFbhx5iCEHr1dCp-12" value="" style="rounded=0;whiteSpace=wrap;html=1;" vertex="1" parent="1">
          <mxGeometry x="190" y="-920" width="270" height="125" as="geometry" />
        </mxCell>
        <mxCell id="xpNhdHFbhx5iCEHr1dCp-13" value="&lt;font style=&quot;font-size: 27px;&quot;&gt;图形组件区&lt;/font&gt;" style="text;html=1;align=center;verticalAlign=middle;resizable=0;points=[];autosize=1;strokeColor=none;fillColor=none;" vertex="1" parent="1">
          <mxGeometry x="240" y="-882.5" width="160" height="50" as="geometry" />
        </mxCell>
        <mxCell id="xpNhdHFbhx5iCEHr1dCp-15" value="" style="rounded=0;whiteSpace=wrap;html=1;" vertex="1" parent="1">
          <mxGeometry x="507" y="-920" width="320" height="125" as="geometry" />
        </mxCell>
        <mxCell id="xpNhdHFbhx5iCEHr1dCp-16" value="&lt;font style=&quot;font-size: 27px;&quot;&gt;编辑内容区&lt;/font&gt;" style="text;html=1;align=center;verticalAlign=middle;resizable=0;points=[];autosize=1;strokeColor=none;fillColor=none;" vertex="1" parent="1">
          <mxGeometry x="580" y="-885" width="160" height="50" as="geometry" />
        </mxCell>
        <mxCell id="xpNhdHFbhx5iCEHr1dCp-17" value="" style="rounded=0;whiteSpace=wrap;html=1;" vertex="1" parent="1">
          <mxGeometry x="900" y="-920" width="330" height="125" as="geometry" />
        </mxCell>
        <mxCell id="xpNhdHFbhx5iCEHr1dCp-18" value="&lt;font style=&quot;font-size: 27px;&quot;&gt;样式以及事件区&lt;/font&gt;" style="text;html=1;align=center;verticalAlign=middle;resizable=0;points=[];autosize=1;strokeColor=none;fillColor=none;" vertex="1" parent="1">
          <mxGeometry x="960" y="-870" width="210" height="50" as="geometry" />
        </mxCell>
        <mxCell id="xpNhdHFbhx5iCEHr1dCp-19" value="" style="rounded=0;whiteSpace=wrap;html=1;" vertex="1" parent="1">
          <mxGeometry x="1284" y="-920" width="370" height="120" as="geometry" />
        </mxCell>
        <mxCell id="xpNhdHFbhx5iCEHr1dCp-20" value="&lt;font style=&quot;font-size: 27px;&quot;&gt;顶部操作区&lt;/font&gt;" style="text;html=1;align=center;verticalAlign=middle;resizable=0;points=[];autosize=1;strokeColor=none;fillColor=none;" vertex="1" parent="1">
          <mxGeometry x="1380" y="-882.5" width="160" height="50" as="geometry" />
        </mxCell>
        <mxCell id="xpNhdHFbhx5iCEHr1dCp-21" value="&lt;font style=&quot;font-size: 27px;&quot;&gt;注册&amp;nbsp; 登录&lt;/font&gt;" style="rounded=0;whiteSpace=wrap;html=1;" vertex="1" parent="1">
          <mxGeometry x="190" y="-90" width="1460" height="60" as="geometry" />
        </mxCell>
        <mxCell id="xpNhdHFbhx5iCEHr1dCp-22" value="&lt;span style=&quot;font-size: 27px;&quot;&gt;选择新建或打开已有的项目&lt;/span&gt;" style="rounded=0;whiteSpace=wrap;html=1;" vertex="1" parent="1">
          <mxGeometry x="190" y="-280" width="1460" height="60" as="geometry" />
        </mxCell>
        <mxCell id="xpNhdHFbhx5iCEHr1dCp-27" value="&lt;font style=&quot;font-size: 27px;&quot;&gt;新建操作页面&lt;/font&gt;" style="rounded=0;whiteSpace=wrap;html=1;" vertex="1" parent="1">
          <mxGeometry x="190" y="-550" width="580" height="60" as="geometry" />
        </mxCell>
        <mxCell id="xpNhdHFbhx5iCEHr1dCp-28" value="&lt;span style=&quot;font-size: 27px;&quot;&gt;选择项目页面&lt;/span&gt;" style="rounded=0;whiteSpace=wrap;html=1;" vertex="1" parent="1">
          <mxGeometry x="920" y="-550" width="730" height="60" as="geometry" />
        </mxCell>
        <mxCell id="xpNhdHFbhx5iCEHr1dCp-36" value="" style="endArrow=classic;html=1;rounded=0;" edge="1" parent="1">
          <mxGeometry width="50" height="50" relative="1" as="geometry">
            <mxPoint x="919.23" y="-100" as="sourcePoint" />
            <mxPoint x="919" y="-210" as="targetPoint" />
          </mxGeometry>
        </mxCell>
        <mxCell id="xpNhdHFbhx5iCEHr1dCp-38" value="" style="endArrow=classic;html=1;rounded=0;" edge="1" parent="1">
          <mxGeometry width="50" height="50" relative="1" as="geometry">
            <mxPoint x="400" y="-564" as="sourcePoint" />
            <mxPoint x="400" y="-670" as="targetPoint" />
          </mxGeometry>
        </mxCell>
        <mxCell id="xpNhdHFbhx5iCEHr1dCp-39" value="" style="endArrow=classic;html=1;rounded=0;" edge="1" parent="1">
          <mxGeometry width="50" height="50" relative="1" as="geometry">
            <mxPoint x="1279.23" y="-564" as="sourcePoint" />
            <mxPoint x="1279.23" y="-670" as="targetPoint" />
          </mxGeometry>
        </mxCell>
        <mxCell id="xpNhdHFbhx5iCEHr1dCp-41" value="" style="verticalLabelPosition=bottom;verticalAlign=top;html=1;strokeWidth=2;shape=mxgraph.arrows2.arrow;dy=0.6;dx=40;notch=0;" vertex="1" parent="1">
          <mxGeometry x="1750" y="-480" width="100" height="70" as="geometry" />
        </mxCell>
        <mxCell id="xpNhdHFbhx5iCEHr1dCp-42" value="&lt;font style=&quot;font-size: 27px;&quot;&gt;注册&amp;nbsp; &amp;nbsp; &amp;nbsp; &amp;nbsp; &amp;nbsp; &amp;nbsp;登录&lt;/font&gt;" style="rounded=0;whiteSpace=wrap;html=1;" vertex="1" parent="1">
          <mxGeometry x="1950" y="970" width="1460" height="60" as="geometry" />
        </mxCell>
        <mxCell id="xpNhdHFbhx5iCEHr1dCp-43" value="&lt;font style=&quot;font-size: 27px;&quot;&gt;注册&lt;/font&gt;" style="rounded=0;whiteSpace=wrap;html=1;" vertex="1" parent="1">
          <mxGeometry x="1950" y="890" width="540" height="60" as="geometry" />
        </mxCell>
        <mxCell id="xpNhdHFbhx5iCEHr1dCp-45" value="&lt;span style=&quot;font-size: 27px;&quot;&gt;登录&lt;/span&gt;" style="rounded=0;whiteSpace=wrap;html=1;" vertex="1" parent="1">
          <mxGeometry x="2870" y="900" width="540" height="60" as="geometry" />
        </mxCell>
        <mxCell id="xpNhdHFbhx5iCEHr1dCp-47" value="&lt;font style=&quot;font-size: 27px;&quot;&gt;自建账号&lt;/font&gt;" style="rounded=0;whiteSpace=wrap;html=1;" vertex="1" parent="1">
          <mxGeometry x="1950" y="800" width="210" height="60" as="geometry" />
        </mxCell>
        <mxCell id="xpNhdHFbhx5iCEHr1dCp-48" value="&lt;font style=&quot;font-size: 27px;&quot;&gt;第三方账号&lt;/font&gt;" style="whiteSpace=wrap;html=1;" vertex="1" parent="1">
          <mxGeometry x="2270" y="800" width="220" height="60" as="geometry" />
        </mxCell>
        <mxCell id="xpNhdHFbhx5iCEHr1dCp-49" value="&lt;font style=&quot;font-size: 27px;&quot;&gt;自建账号&lt;/font&gt;" style="rounded=0;whiteSpace=wrap;html=1;" vertex="1" parent="1">
          <mxGeometry x="2870" y="810" width="210" height="60" as="geometry" />
        </mxCell>
        <mxCell id="xpNhdHFbhx5iCEHr1dCp-50" value="&lt;font style=&quot;font-size: 27px;&quot;&gt;第三方账号&lt;/font&gt;" style="whiteSpace=wrap;html=1;" vertex="1" parent="1">
          <mxGeometry x="3190" y="810" width="220" height="60" as="geometry" />
        </mxCell>
        <mxCell id="xpNhdHFbhx5iCEHr1dCp-51" value="&lt;font style=&quot;font-size: 27px;&quot;&gt;完成&amp;nbsp; 注册&amp;nbsp; 或&amp;nbsp; &amp;nbsp;登录&lt;/font&gt;" style="rounded=0;whiteSpace=wrap;html=1;" vertex="1" parent="1">
          <mxGeometry x="1950" y="585" width="1460" height="60" as="geometry" />
        </mxCell>
        <mxCell id="xpNhdHFbhx5iCEHr1dCp-52" value="&lt;font style=&quot;font-size: 27px;&quot;&gt;注册 存储账号信息&lt;/font&gt;" style="rounded=0;whiteSpace=wrap;html=1;" vertex="1" parent="1">
          <mxGeometry x="1950" y="710" width="540" height="60" as="geometry" />
        </mxCell>
        <mxCell id="xpNhdHFbhx5iCEHr1dCp-53" value="&lt;font style=&quot;font-size: 27px;&quot;&gt;登录&amp;nbsp; 对比 账号信息&lt;/font&gt;" style="rounded=0;whiteSpace=wrap;html=1;" vertex="1" parent="1">
          <mxGeometry x="2870" y="710" width="540" height="60" as="geometry" />
        </mxCell>
        <mxCell id="xpNhdHFbhx5iCEHr1dCp-54" value="&lt;span style=&quot;font-size: 27px;&quot;&gt;选择新建或打开已有的项目&lt;/span&gt;" style="rounded=0;whiteSpace=wrap;html=1;" vertex="1" parent="1">
          <mxGeometry x="1920" y="140" width="1460" height="60" as="geometry" />
        </mxCell>
        <mxCell id="xpNhdHFbhx5iCEHr1dCp-55" value="" style="endArrow=classic;html=1;rounded=0;" edge="1" parent="1">
          <mxGeometry width="50" height="50" relative="1" as="geometry">
            <mxPoint x="2640" y="560" as="sourcePoint" />
            <mxPoint x="2640" y="220" as="targetPoint" />
          </mxGeometry>
        </mxCell>
        <mxCell id="xpNhdHFbhx5iCEHr1dCp-56" value="&lt;font style=&quot;font-size: 27px;&quot;&gt;新建项目&lt;/font&gt;" style="rounded=0;whiteSpace=wrap;html=1;" vertex="1" parent="1">
          <mxGeometry x="1920" y="60" width="540" height="60" as="geometry" />
        </mxCell>
        <mxCell id="xpNhdHFbhx5iCEHr1dCp-57" value="&lt;font style=&quot;font-size: 27px;&quot;&gt;打开已有项目&lt;/font&gt;" style="rounded=0;whiteSpace=wrap;html=1;" vertex="1" parent="1">
          <mxGeometry x="2840" y="60" width="540" height="60" as="geometry" />
        </mxCell>
        <mxCell id="xpNhdHFbhx5iCEHr1dCp-58" value="&lt;span style=&quot;font-size: 27px;&quot;&gt;读取操作账号文件信息&lt;/span&gt;" style="rounded=0;whiteSpace=wrap;html=1;" vertex="1" parent="1">
          <mxGeometry x="1920" y="-20" width="1460" height="60" as="geometry" />
        </mxCell>
        <mxCell id="xpNhdHFbhx5iCEHr1dCp-59" value="&lt;span style=&quot;font-size: 27px;&quot;&gt;完成操作&amp;nbsp; 进入编辑页面&lt;/span&gt;" style="rounded=0;whiteSpace=wrap;html=1;" vertex="1" parent="1">
          <mxGeometry x="1920" y="-110" width="1460" height="60" as="geometry" />
        </mxCell>
        <mxCell id="xpNhdHFbhx5iCEHr1dCp-60" value="" style="endArrow=classic;html=1;rounded=0;" edge="1" parent="1">
          <mxGeometry width="50" height="50" relative="1" as="geometry">
            <mxPoint x="2620" y="-140" as="sourcePoint" />
            <mxPoint x="2620" y="-480" as="targetPoint" />
          </mxGeometry>
        </mxCell>
        <mxCell id="xpNhdHFbhx5iCEHr1dCp-61" value="" style="rounded=0;whiteSpace=wrap;html=1;" vertex="1" parent="1">
          <mxGeometry x="1920" y="-600" width="1460" height="80" as="geometry" />
        </mxCell>
        <mxCell id="xpNhdHFbhx5iCEHr1dCp-62" value="&lt;font style=&quot;font-size: 27px;&quot;&gt;图形组件区&lt;/font&gt;" style="rounded=0;whiteSpace=wrap;html=1;" vertex="1" parent="1">
          <mxGeometry x="1920" y="-690" width="340" height="60" as="geometry" />
        </mxCell>
        <mxCell id="xpNhdHFbhx5iCEHr1dCp-63" value="&lt;span style=&quot;font-size: 27px;&quot;&gt;编辑内容区&lt;/span&gt;" style="rounded=0;whiteSpace=wrap;html=1;" vertex="1" parent="1">
          <mxGeometry x="2310" y="-690" width="340" height="60" as="geometry" />
        </mxCell>
        <mxCell id="xpNhdHFbhx5iCEHr1dCp-64" value="&lt;font style=&quot;font-size: 27px;&quot;&gt;样式以及事件区&lt;/font&gt;" style="rounded=0;whiteSpace=wrap;html=1;" vertex="1" parent="1">
          <mxGeometry x="2700" y="-690" width="340" height="60" as="geometry" />
        </mxCell>
        <mxCell id="xpNhdHFbhx5iCEHr1dCp-65" value="&lt;font style=&quot;font-size: 27px;&quot;&gt;顶部操作区&lt;/font&gt;" style="rounded=0;whiteSpace=wrap;html=1;" vertex="1" parent="1">
          <mxGeometry x="3080" y="-690" width="300" height="60" as="geometry" />
        </mxCell>
        <mxCell id="xpNhdHFbhx5iCEHr1dCp-66" value="" style="rounded=0;whiteSpace=wrap;html=1;" vertex="1" parent="1">
          <mxGeometry x="1920" y="-1110" width="340" height="370" as="geometry" />
        </mxCell>
        <mxCell id="xpNhdHFbhx5iCEHr1dCp-67" value="&lt;font style=&quot;font-size: 27px;&quot;&gt;图形组件&lt;/font&gt;" style="text;html=1;align=center;verticalAlign=middle;whiteSpace=wrap;rounded=0;" vertex="1" parent="1">
          <mxGeometry x="1940" y="-780" width="280" height="30" as="geometry" />
        </mxCell>
        <mxCell id="xpNhdHFbhx5iCEHr1dCp-69" value="&lt;font style=&quot;font-size: 24px;&quot;&gt;服务本身提供的基础组件&lt;/font&gt;" style="rounded=1;whiteSpace=wrap;html=1;" vertex="1" parent="1">
          <mxGeometry x="1930" y="-850" width="170" height="60" as="geometry" />
        </mxCell>
        <mxCell id="xpNhdHFbhx5iCEHr1dCp-71" value="&lt;font style=&quot;font-size: 24px;&quot;&gt;用户自身可增加组件&lt;/font&gt;" style="rounded=1;whiteSpace=wrap;html=1;" vertex="1" parent="1">
          <mxGeometry x="2110" y="-850" width="140" height="60" as="geometry" />
        </mxCell>
        <mxCell id="xpNhdHFbhx5iCEHr1dCp-72" style="edgeStyle=orthogonalEdgeStyle;rounded=0;orthogonalLoop=1;jettySize=auto;html=1;exitX=0.5;exitY=1;exitDx=0;exitDy=0;entryX=0.25;entryY=1;entryDx=0;entryDy=0;" edge="1" parent="1" source="xpNhdHFbhx5iCEHr1dCp-71" target="xpNhdHFbhx5iCEHr1dCp-71">
          <mxGeometry relative="1" as="geometry" />
        </mxCell>
        <mxCell id="xpNhdHFbhx5iCEHr1dCp-73" value="&lt;font style=&quot;font-size: 24px;&quot;&gt;组件分类展示&amp;nbsp;&lt;/font&gt;" style="rounded=1;whiteSpace=wrap;html=1;" vertex="1" parent="1">
          <mxGeometry x="1930" y="-950" width="320" height="60" as="geometry" />
        </mxCell>
        <mxCell id="xpNhdHFbhx5iCEHr1dCp-74" value="&lt;font style=&quot;font-size: 24px;&quot;&gt;搜索组件功能&lt;/font&gt;" style="rounded=1;whiteSpace=wrap;html=1;" vertex="1" parent="1">
          <mxGeometry x="1930" y="-1020" width="320" height="60" as="geometry" />
        </mxCell>
        <mxCell id="xpNhdHFbhx5iCEHr1dCp-75" value="&lt;font style=&quot;font-size: 24px;&quot;&gt;组件拖拽点击功能&lt;/font&gt;" style="rounded=1;whiteSpace=wrap;html=1;" vertex="1" parent="1">
          <mxGeometry x="1930" y="-1090" width="320" height="60" as="geometry" />
        </mxCell>
        <mxCell id="xpNhdHFbhx5iCEHr1dCp-76" value="" style="rounded=0;whiteSpace=wrap;html=1;" vertex="1" parent="1">
          <mxGeometry x="2310" y="-1105" width="340" height="370" as="geometry" />
        </mxCell>
        <mxCell id="xpNhdHFbhx5iCEHr1dCp-77" value="&lt;font style=&quot;font-size: 27px;&quot;&gt;画布&lt;/font&gt;" style="text;html=1;align=center;verticalAlign=middle;whiteSpace=wrap;rounded=0;" vertex="1" parent="1">
          <mxGeometry x="2330" y="-775" width="280" height="30" as="geometry" />
        </mxCell>
        <mxCell id="xpNhdHFbhx5iCEHr1dCp-84" value="&lt;font style=&quot;font-size: 24px;&quot;&gt;展示组件&lt;/font&gt;" style="rounded=1;whiteSpace=wrap;html=1;" vertex="1" parent="1">
          <mxGeometry x="2380" y="-892.5" width="240" height="60" as="geometry" />
        </mxCell>
        <mxCell id="xpNhdHFbhx5iCEHr1dCp-85" value="&lt;font style=&quot;font-size: 24px;&quot;&gt;组件大小和位置的编辑&lt;/font&gt;" style="rounded=1;whiteSpace=wrap;html=1;" vertex="1" parent="1">
          <mxGeometry x="2375" y="-1030" width="245" height="60" as="geometry" />
        </mxCell>
        <mxCell id="xpNhdHFbhx5iCEHr1dCp-86" value="" style="rounded=0;whiteSpace=wrap;html=1;" vertex="1" parent="1">
          <mxGeometry x="2700" y="-1105" width="340" height="370" as="geometry" />
        </mxCell>
        <mxCell id="xpNhdHFbhx5iCEHr1dCp-87" value="&lt;font style=&quot;font-size: 27px;&quot;&gt;样式及事件&lt;/font&gt;" style="text;html=1;align=center;verticalAlign=middle;whiteSpace=wrap;rounded=0;" vertex="1" parent="1">
          <mxGeometry x="2720" y="-775" width="280" height="30" as="geometry" />
        </mxCell>
        <mxCell id="xpNhdHFbhx5iCEHr1dCp-88" value="&lt;span style=&quot;font-size: 24px;&quot;&gt;样式&lt;/span&gt;" style="rounded=1;whiteSpace=wrap;html=1;" vertex="1" parent="1">
          <mxGeometry x="2750" y="-855" width="240" height="60" as="geometry" />
        </mxCell>
        <mxCell id="xpNhdHFbhx5iCEHr1dCp-89" value="&lt;font style=&quot;font-size: 24px;&quot;&gt;文本&lt;/font&gt;" style="rounded=1;whiteSpace=wrap;html=1;" vertex="1" parent="1">
          <mxGeometry x="2750" y="-942.5" width="245" height="60" as="geometry" />
        </mxCell>
        <mxCell id="xpNhdHFbhx5iCEHr1dCp-90" value="&lt;font style=&quot;font-size: 24px;&quot;&gt;调整图形&lt;/font&gt;" style="rounded=1;whiteSpace=wrap;html=1;" vertex="1" parent="1">
          <mxGeometry x="2750" y="-1020" width="245" height="60" as="geometry" />
        </mxCell>
        <mxCell id="xpNhdHFbhx5iCEHr1dCp-91" value="&lt;font style=&quot;font-size: 24px;&quot;&gt;事件绑定&lt;/font&gt;" style="rounded=1;whiteSpace=wrap;html=1;" vertex="1" parent="1">
          <mxGeometry x="2750" y="-1090" width="245" height="60" as="geometry" />
        </mxCell>
        <mxCell id="xpNhdHFbhx5iCEHr1dCp-92" value="" style="rounded=0;whiteSpace=wrap;html=1;" vertex="1" parent="1">
          <mxGeometry x="3080" y="-1105" width="300" height="370" as="geometry" />
        </mxCell>
        <mxCell id="xpNhdHFbhx5iCEHr1dCp-93" value="&lt;font style=&quot;font-size: 27px;&quot;&gt;顶部操作栏&lt;/font&gt;" style="text;html=1;align=center;verticalAlign=middle;whiteSpace=wrap;rounded=0;" vertex="1" parent="1">
          <mxGeometry x="3100" y="-775" width="280" height="30" as="geometry" />
        </mxCell>
        <mxCell id="xpNhdHFbhx5iCEHr1dCp-94" value="&lt;span style=&quot;font-size: 24px;&quot;&gt;文件&lt;/span&gt;" style="rounded=1;whiteSpace=wrap;html=1;" vertex="1" parent="1">
          <mxGeometry x="3100" y="-850" width="110" height="60" as="geometry" />
        </mxCell>
        <mxCell id="xpNhdHFbhx5iCEHr1dCp-95" value="&lt;span style=&quot;font-size: 24px;&quot;&gt;编辑&lt;/span&gt;" style="rounded=1;whiteSpace=wrap;html=1;" vertex="1" parent="1">
          <mxGeometry x="3240" y="-850" width="110" height="60" as="geometry" />
        </mxCell>
        <mxCell id="xpNhdHFbhx5iCEHr1dCp-96" value="&lt;font style=&quot;font-size: 24px;&quot;&gt;其它&lt;/font&gt;" style="rounded=1;whiteSpace=wrap;html=1;" vertex="1" parent="1">
          <mxGeometry x="3100" y="-920" width="110" height="60" as="geometry" />
        </mxCell>
        <mxCell id="xpNhdHFbhx5iCEHr1dCp-97" value="&lt;font style=&quot;font-size: 24px;&quot;&gt;帮助&lt;/font&gt;" style="rounded=1;whiteSpace=wrap;html=1;" vertex="1" parent="1">
          <mxGeometry x="3240" y="-920" width="110" height="60" as="geometry" />
        </mxCell>
      </root>
    </mxGraphModel>
  </diagram>
</mxfile>
